<?xml version="1.0" encoding="UTF-8" standalone="no"?>
<!DOCTYPE svg PUBLIC "-//W3C//DTD SVG 1.1//EN" "http://www.w3.org/Graphics/SVG/1.1/DTD/svg11.dtd">
<svg width="100%" height="100%" viewBox="0 0 644 400" version="1.1" xmlns="http://www.w3.org/2000/svg" xmlns:xlink="http://www.w3.org/1999/xlink" xml:space="preserve" xmlns:serif="http://www.serif.com/" style="fill-rule:evenodd;clip-rule:evenodd;">
    <rect x="-15.966" y="-14.086" width="739.836" height="452.625" style="fill:rgb(46,44,44);"/>
    <g transform="matrix(1.4118,0,0,1.4118,23.3957,21.2523)">
        <path d="M32,36C32,32.686 34.686,30 38,30L796,30C799.314,30 802,32.686 802,36L802,648C802,651.314 799.314,654 796,654L38,654C34.686,654 32,651.314 32,648L32,36Z" style="fill:rgb(221,225,229);"/>
        <path d="M796,29.75L38,29.75C34.548,29.75 31.75,32.548 31.75,36L31.75,648C31.75,651.452 34.548,654.25 38,654.25L796,654.25C799.452,654.25 802.25,651.452 802.25,648L802.25,36C802.25,32.548 799.452,29.75 796,29.75Z" style="fill:none;fill-rule:nonzero;stroke:rgb(222,222,222);stroke-width:0.5px;"/>
    </g>
    <g transform="matrix(1.4118,0,0,1.4118,23.3957,21.2523)">
        <path d="M811,9.75L23,9.75C19.548,9.75 16.75,12.548 16.75,16L16.75,668C16.75,671.452 19.548,674.25 23,674.25L811,674.25C814.452,674.25 817.25,671.452 817.25,668L817.25,16C817.25,12.548 814.452,9.75 811,9.75Z" style="fill:rgb(221,225,229);fill-rule:nonzero;stroke:rgb(222,222,222);stroke-width:0.5px;"/>
    </g>
    <g transform="matrix(1.4118,0,0,1.4118,23.3957,21.2523)">
        <path d="M36.75,28C36.75,30.623 34.623,32.75 32,32.75C29.377,32.75 27.25,30.623 27.25,28C27.25,25.377 29.377,23.25 32,23.25C34.623,23.25 36.75,25.377 36.75,28Z" style="fill:rgb(255,96,88);fill-rule:nonzero;stroke:rgb(225,73,66);stroke-width:0.5px;"/>
        <path d="M52.75,28C52.75,30.623 50.623,32.75 48,32.75C45.377,32.75 43.25,30.623 43.25,28C43.25,25.377 45.377,23.25 48,23.25C50.623,23.25 52.75,25.377 52.75,28Z" style="fill:rgb(255,193,48);fill-rule:nonzero;stroke:rgb(225,163,37);stroke-width:0.5px;"/>
        <path d="M68.75,28C68.75,30.623 66.623,32.75 64,32.75C61.377,32.75 59.25,30.623 59.25,28C59.25,25.377 61.377,23.25 64,23.25C66.623,23.25 68.75,25.377 68.75,28Z" style="fill:rgb(39,202,64);fill-rule:nonzero;stroke:rgb(62,175,63);stroke-width:0.5px;"/>
        <path d="M79,29.8C79,25.32 79,23.079 79.872,21.368C80.639,19.863 81.863,18.639 83.368,17.872C85.079,17 87.32,17 91.8,17L260.2,17C264.68,17 266.921,17 268.632,17.872C270.137,18.639 271.361,19.863 272.128,21.368C273,23.079 273,25.32 273,29.8L273,44.5L79,44.5L79,29.8Z" style="fill:white;fill-rule:nonzero;"/>
        <path d="M96.289,34L95.347,34L91.768,28.522L91.768,34L90.825,34L90.825,26.891L91.768,26.891L95.356,32.394L95.356,26.891L96.289,26.891L96.289,34ZM100.005,34.098C99.289,34.098 98.706,33.863 98.257,33.395C97.808,32.923 97.583,32.293 97.583,31.505L97.583,31.339C97.583,30.815 97.682,30.348 97.881,29.938C98.083,29.524 98.363,29.202 98.721,28.971C99.082,28.736 99.473,28.619 99.893,28.619C100.579,28.619 101.113,28.845 101.494,29.298C101.875,29.75 102.065,30.398 102.065,31.241L102.065,31.617L98.486,31.617C98.499,32.138 98.651,32.56 98.94,32.882C99.233,33.201 99.605,33.36 100.054,33.36C100.373,33.36 100.643,33.295 100.864,33.165C101.086,33.035 101.279,32.862 101.445,32.648L101.997,33.077C101.554,33.758 100.89,34.098 100.005,34.098ZM99.893,29.361C99.528,29.361 99.222,29.495 98.975,29.762C98.727,30.025 98.574,30.397 98.516,30.875L101.162,30.875L101.162,30.807C101.136,30.348 101.012,29.993 100.791,29.742C100.57,29.488 100.27,29.361 99.893,29.361ZM107.793,32.755L108.809,28.717L109.712,28.717L108.174,34L107.441,34L106.157,29.996L104.907,34L104.175,34L102.642,28.717L103.54,28.717L104.58,32.672L105.811,28.717L106.538,28.717L107.793,32.755ZM117.974,27.662L115.688,27.662L115.688,34L114.756,34L114.756,27.662L112.476,27.662L112.476,26.891L117.974,26.891L117.974,27.662ZM121.592,34C121.54,33.896 121.497,33.71 121.465,33.443C121.045,33.88 120.544,34.098 119.961,34.098C119.44,34.098 119.012,33.951 118.677,33.658C118.345,33.362 118.179,32.988 118.179,32.535C118.179,31.985 118.387,31.559 118.804,31.256C119.224,30.95 119.813,30.797 120.571,30.797L121.45,30.797L121.45,30.382C121.45,30.066 121.356,29.815 121.167,29.63C120.978,29.441 120.7,29.347 120.332,29.347C120.01,29.347 119.74,29.428 119.521,29.591C119.303,29.754 119.194,29.951 119.194,30.182L118.286,30.182C118.286,29.918 118.379,29.664 118.564,29.42C118.753,29.173 119.007,28.977 119.326,28.834C119.648,28.691 120.002,28.619 120.386,28.619C120.994,28.619 121.471,28.772 121.816,29.078C122.161,29.381 122.34,29.799 122.354,30.333L122.354,32.765C122.354,33.25 122.415,33.635 122.539,33.922L122.539,34L121.592,34ZM120.093,33.312C120.376,33.312 120.645,33.238 120.898,33.092C121.152,32.945 121.336,32.755 121.45,32.52L121.45,31.436L120.742,31.436C119.635,31.436 119.082,31.76 119.082,32.408C119.082,32.691 119.176,32.913 119.365,33.072C119.554,33.232 119.797,33.312 120.093,33.312ZM128.242,31.417C128.242,32.224 128.057,32.874 127.686,33.365C127.314,33.853 126.816,34.098 126.191,34.098C125.524,34.098 125.008,33.862 124.644,33.39L124.6,34L123.77,34L123.77,26.5L124.673,26.5L124.673,29.298C125.037,28.845 125.54,28.619 126.182,28.619C126.823,28.619 127.326,28.862 127.69,29.347C128.058,29.832 128.242,30.496 128.242,31.339L128.242,31.417ZM127.339,31.315C127.339,30.699 127.22,30.224 126.982,29.889C126.745,29.553 126.403,29.386 125.957,29.386C125.361,29.386 124.933,29.662 124.673,30.216L124.673,32.501C124.95,33.054 125.381,33.331 125.967,33.331C126.4,33.331 126.737,33.163 126.978,32.828C127.218,32.493 127.339,31.988 127.339,31.315Z" style="fill:rgb(50,50,50);fill-rule:nonzero;"/>
        <path d="M262.5,27.417C262.27,27.187 261.929,27.154 261.739,27.344L259.458,29.625L257.178,27.344C256.988,27.154 256.647,27.187 256.417,27.417C256.187,27.647 256.154,27.988 256.344,28.178L258.625,30.458L256.344,32.739C256.154,32.929 256.187,33.27 256.417,33.5C256.647,33.73 256.988,33.763 257.178,33.572L259.458,31.292L261.739,33.572C261.929,33.763 262.27,33.73 262.5,33.5C262.73,33.27 262.762,32.929 262.572,32.739L260.292,30.458L262.572,28.178C262.762,27.988 262.73,27.647 262.5,27.417Z" style="fill:rgb(115,115,115);"/>
        <path d="M289.901,35.908C289.486,35.908 289.151,35.645 289.151,35.319L289.151,31.454L285.286,31.454C284.96,31.454 284.696,31.119 284.696,30.704C284.696,30.29 284.96,29.954 285.286,29.954L289.151,29.954L289.151,26.089C289.151,25.764 289.486,25.5 289.901,25.5C290.315,25.5 290.651,25.764 290.651,26.089L290.651,29.954L294.516,29.954C294.841,29.954 295.105,30.29 295.105,30.704C295.105,31.119 294.841,31.454 294.516,31.454L290.651,31.454L290.651,35.319C290.651,35.645 290.315,35.908 289.901,35.908Z" style="fill:rgb(95,99,103);"/>
        <rect x="17" y="44" width="800" height="30" style="fill:white;"/>
        <path d="M87.72,54.249C87.875,54.304 88.046,54.38 88.233,54.483C88.64,54.706 89.076,55.026 89.539,55.462L91,54L91,58L87,58L88.791,56.209C88.396,55.837 88.033,55.571 87.708,55.393C87.477,55.267 87.417,55.246 87.212,55.19C85.524,54.731 83.732,55.387 82.764,56.788C82.555,57.091 82.389,57.423 82.271,57.778C82.011,58.558 82.007,59.378 82.246,60.146C82.629,61.376 83.597,62.356 84.873,62.761C87.003,63.435 89.29,62.299 89.982,60.222L91,60.545C90.125,63.17 87.234,64.607 84.542,63.754C82.929,63.243 81.705,62.003 81.221,60.449C80.919,59.479 80.924,58.44 81.252,57.455C81.401,57.007 81.611,56.588 81.876,56.204C83.1,54.432 85.365,53.603 87.499,54.184C87.54,54.192 87.62,54.214 87.72,54.249Z" style="fill:rgb(95,99,103);"/>
        <path d="M30.118,58.556C29.793,58.556 29.529,58.82 29.529,59.146C29.529,59.471 29.793,59.735 30.118,59.735L39.348,59.735C39.674,59.735 39.938,59.471 39.938,59.146C39.938,58.82 39.674,58.556 39.348,58.556L30.118,58.556Z" style="fill:rgb(115,115,115);fill-rule:nonzero;"/>
        <path d="M29.73,58.69C29.499,58.92 29.499,59.293 29.729,59.523C29.958,59.754 30.331,59.754 30.562,59.525L35.038,55.063C35.268,54.833 35.269,54.46 35.039,54.229C34.809,53.999 34.436,53.998 34.206,54.228L29.73,58.69Z" style="fill:rgb(115,115,115);fill-rule:nonzero;"/>
        <path d="M30.563,58.768C30.332,58.538 29.959,58.539 29.729,58.77C29.5,59.001 29.501,59.374 29.732,59.603L34.244,64.093C34.474,64.322 34.847,64.321 35.077,64.091C35.307,63.86 35.306,63.487 35.075,63.257L30.563,58.768Z" style="fill:rgb(115,115,115);fill-rule:nonzero;"/>
        <path d="M64.882,58.556C65.207,58.556 65.471,58.82 65.471,59.146C65.471,59.471 65.207,59.735 64.882,59.735L55.652,59.735C55.326,59.735 55.062,59.471 55.062,59.146C55.062,58.82 55.326,58.556 55.652,58.556L64.882,58.556Z" style="fill:rgb(115,115,115);fill-rule:nonzero;"/>
        <path d="M65.27,58.69C65.501,58.92 65.501,59.293 65.271,59.523C65.042,59.754 64.668,59.754 64.438,59.525L59.962,55.063C59.732,54.833 59.731,54.46 59.961,54.229C60.191,53.999 60.564,53.998 60.795,54.228L65.27,58.69Z" style="fill:rgb(115,115,115);fill-rule:nonzero;"/>
        <path d="M64.437,58.768C64.668,58.538 65.041,58.539 65.271,58.77C65.5,59.001 65.499,59.374 65.269,59.603L60.756,64.093C60.526,64.322 60.153,64.321 59.923,64.091C59.694,63.86 59.695,63.487 59.925,63.257L64.437,58.768Z" style="fill:rgb(115,115,115);fill-rule:nonzero;"/>
        <path d="M756,54.729C756,51.015 752.985,48 749.271,48L110.729,48C107.015,48 104,51.015 104,54.729L104,63.271C104,66.985 107.015,70 110.729,70L749.271,70C752.985,70 756,66.985 756,63.271L756,54.729Z" style="fill:rgb(241,243,244);"/>
        <path d="M121,58.708C121,58.317 120.683,58 120.292,58L115.708,58C115.317,58 115,58.317 115,58.708L115,62.292C115,62.683 115.317,63 115.708,63L120.292,63C120.683,63 121,62.683 121,62.292L121,58.708Z" style="fill:rgb(95,99,103);"/>
        <path d="M120,57.15C120,55.964 119.105,55 118,55C116.898,55 116,55.962 116,57.15L116,59.284C116,59.687 116.296,60 116.661,60L119.339,60C119.699,60 120,59.679 120,59.284L120,57.15ZM119.339,59.286C119.339,59.286 116.667,59.291 116.667,59.284L116.667,57.15C116.667,56.357 117.265,55.714 118,55.714C118.735,55.714 119.333,56.357 119.333,57.15C119.333,57.15 119.332,59.286 119.339,59.286Z" style="fill:rgb(95,99,103);"/>
        <path d="M131.746,57.892C132.186,57.351 132.759,57.081 133.464,57.081C134.693,57.081 135.312,57.774 135.323,59.16L135.323,63L134.329,63L134.329,59.154C134.326,58.735 134.229,58.426 134.039,58.225C133.853,58.025 133.561,57.924 133.164,57.924C132.841,57.924 132.558,58.01 132.315,58.182C132.071,58.354 131.882,58.58 131.746,58.859L131.746,63L130.752,63L130.752,54.75L131.746,54.75L131.746,57.892ZM138.159,55.781L138.159,57.189L139.244,57.189L139.244,57.957L138.159,57.957L138.159,61.56C138.159,61.793 138.207,61.969 138.304,62.087C138.4,62.202 138.565,62.259 138.798,62.259C138.912,62.259 139.07,62.237 139.271,62.194L139.271,63C139.009,63.072 138.755,63.107 138.508,63.107C138.064,63.107 137.729,62.973 137.503,62.705C137.278,62.436 137.165,62.055 137.165,61.56L137.165,57.957L136.107,57.957L136.107,57.189L137.165,57.189L137.165,55.781L138.159,55.781ZM141.757,55.781L141.757,57.189L142.842,57.189L142.842,57.957L141.757,57.957L141.757,61.56C141.757,61.793 141.806,61.969 141.902,62.087C141.999,62.202 142.164,62.259 142.396,62.259C142.511,62.259 142.669,62.237 142.869,62.194L142.869,63C142.608,63.072 142.354,63.107 142.106,63.107C141.662,63.107 141.328,62.973 141.102,62.705C140.876,62.436 140.764,62.055 140.764,61.56L140.764,57.957L139.706,57.957L139.706,57.189L140.764,57.189L140.764,55.781L141.757,55.781ZM148.917,60.159C148.917,61.043 148.715,61.756 148.31,62.296C147.905,62.837 147.358,63.107 146.667,63.107C145.961,63.107 145.406,62.884 145.001,62.436L145.001,65.234L144.008,65.234L144.008,57.189L144.916,57.189L144.964,57.833C145.368,57.332 145.931,57.081 146.65,57.081C147.349,57.081 147.9,57.344 148.305,57.871C148.713,58.397 148.917,59.129 148.917,60.067L148.917,60.159ZM147.923,60.046C147.923,59.391 147.784,58.873 147.504,58.494C147.225,58.114 146.842,57.924 146.355,57.924C145.753,57.924 145.302,58.191 145.001,58.725L145.001,61.502C145.299,62.031 145.753,62.296 146.366,62.296C146.842,62.296 147.22,62.108 147.499,61.732C147.782,61.353 147.923,60.791 147.923,60.046ZM153.568,61.459C153.568,61.19 153.466,60.982 153.262,60.835C153.062,60.685 152.709,60.556 152.204,60.449C151.703,60.341 151.304,60.212 151.006,60.062C150.713,59.912 150.494,59.733 150.351,59.525C150.211,59.317 150.142,59.07 150.142,58.784C150.142,58.307 150.342,57.905 150.743,57.575C151.148,57.246 151.663,57.081 152.29,57.081C152.949,57.081 153.482,57.251 153.891,57.591C154.302,57.932 154.508,58.367 154.508,58.897L153.509,58.897C153.509,58.624 153.393,58.39 153.16,58.193C152.931,57.996 152.641,57.898 152.29,57.898C151.928,57.898 151.646,57.976 151.441,58.134C151.237,58.291 151.135,58.497 151.135,58.752C151.135,58.991 151.23,59.172 151.42,59.294C151.61,59.416 151.952,59.532 152.446,59.643C152.944,59.754 153.346,59.887 153.654,60.041C153.962,60.195 154.19,60.381 154.336,60.599C154.487,60.814 154.562,61.077 154.562,61.389C154.562,61.908 154.354,62.325 153.939,62.64C153.524,62.952 152.985,63.107 152.322,63.107C151.857,63.107 151.445,63.025 151.087,62.86C150.729,62.696 150.448,62.467 150.244,62.173C150.043,61.876 149.943,61.555 149.943,61.211L150.937,61.211C150.954,61.544 151.087,61.809 151.334,62.006C151.585,62.2 151.914,62.296 152.322,62.296C152.698,62.296 152.999,62.221 153.225,62.071C153.454,61.917 153.568,61.713 153.568,61.459ZM155.824,62.479C155.824,62.307 155.874,62.164 155.975,62.049C156.078,61.935 156.232,61.877 156.437,61.877C156.641,61.877 156.795,61.935 156.898,62.049C157.006,62.164 157.06,62.307 157.06,62.479C157.06,62.644 157.006,62.782 156.898,62.893C156.795,63.004 156.641,63.059 156.437,63.059C156.232,63.059 156.078,63.004 155.975,62.893C155.874,62.782 155.824,62.644 155.824,62.479ZM155.83,57.736C155.83,57.565 155.88,57.421 155.98,57.307C156.084,57.192 156.238,57.135 156.442,57.135C156.646,57.135 156.8,57.192 156.904,57.307C157.011,57.421 157.065,57.565 157.065,57.736C157.065,57.901 157.011,58.039 156.904,58.15C156.8,58.261 156.646,58.316 156.442,58.316C156.238,58.316 156.084,58.261 155.98,58.15C155.88,58.039 155.83,57.901 155.83,57.736ZM158.719,63.671L157.865,63.671L161.131,55.18L161.979,55.18L158.719,63.671ZM162.049,63.671L161.195,63.671L164.461,55.18L165.31,55.18L162.049,63.671ZM171.293,60.159C171.293,61.043 171.091,61.756 170.686,62.296C170.281,62.837 169.734,63.107 169.042,63.107C168.337,63.107 167.782,62.884 167.377,62.436L167.377,65.234L166.384,65.234L166.384,57.189L167.292,57.189L167.34,57.833C167.744,57.332 168.307,57.081 169.026,57.081C169.725,57.081 170.276,57.344 170.681,57.871C171.089,58.397 171.293,59.129 171.293,60.067L171.293,60.159ZM170.299,60.046C170.299,59.391 170.16,58.873 169.88,58.494C169.601,58.114 169.218,57.924 168.731,57.924C168.129,57.924 167.678,58.191 167.377,58.725L167.377,61.502C167.675,62.031 168.129,62.296 168.742,62.296C169.218,62.296 169.596,62.108 169.875,61.732C170.158,61.353 170.299,60.791 170.299,60.046ZM175.37,58.08C175.219,58.055 175.056,58.042 174.881,58.042C174.229,58.042 173.787,58.32 173.554,58.875L173.554,63L172.561,63L172.561,57.189L173.527,57.189L173.543,57.86C173.869,57.341 174.331,57.081 174.929,57.081C175.123,57.081 175.269,57.106 175.37,57.156L175.37,58.08ZM175.917,60.041C175.917,59.471 176.028,58.959 176.25,58.504C176.476,58.05 176.788,57.699 177.185,57.452C177.586,57.205 178.043,57.081 178.555,57.081C179.346,57.081 179.985,57.355 180.472,57.903C180.963,58.451 181.208,59.179 181.208,60.089L181.208,60.159C181.208,60.724 181.099,61.233 180.88,61.684C180.666,62.132 180.356,62.481 179.951,62.731C179.55,62.982 179.088,63.107 178.565,63.107C177.778,63.107 177.139,62.834 176.648,62.286C176.161,61.738 175.917,61.013 175.917,60.11L175.917,60.041ZM176.917,60.159C176.917,60.803 177.065,61.321 177.362,61.711C177.663,62.101 178.064,62.296 178.565,62.296C179.07,62.296 179.471,62.099 179.769,61.706C180.066,61.308 180.214,60.753 180.214,60.041C180.214,59.403 180.062,58.888 179.758,58.494C179.457,58.096 179.056,57.898 178.555,57.898C178.064,57.898 177.668,58.093 177.368,58.483C177.067,58.873 176.917,59.432 176.917,60.159ZM184.785,62.296C185.14,62.296 185.449,62.189 185.714,61.974C185.979,61.759 186.126,61.491 186.155,61.169L187.095,61.169C187.077,61.502 186.962,61.818 186.751,62.119C186.54,62.42 186.257,62.66 185.902,62.839C185.551,63.018 185.179,63.107 184.785,63.107C183.994,63.107 183.364,62.844 182.895,62.318C182.429,61.788 182.196,61.065 182.196,60.148L182.196,59.981C182.196,59.416 182.3,58.913 182.508,58.472C182.715,58.032 183.013,57.69 183.399,57.446C183.79,57.203 184.25,57.081 184.78,57.081C185.431,57.081 185.972,57.276 186.402,57.667C186.835,58.057 187.066,58.564 187.095,59.187L186.155,59.187C186.126,58.81 185.983,58.503 185.725,58.263C185.471,58.019 185.156,57.898 184.78,57.898C184.275,57.898 183.883,58.08 183.604,58.445C183.328,58.807 183.19,59.332 183.19,60.019L183.19,60.207C183.19,60.877 183.328,61.392 183.604,61.754C183.879,62.116 184.273,62.296 184.785,62.296ZM189.56,55.781L189.56,57.189L190.645,57.189L190.645,57.957L189.56,57.957L189.56,61.56C189.56,61.793 189.608,61.969 189.705,62.087C189.802,62.202 189.966,62.259 190.199,62.259C190.314,62.259 190.471,62.237 190.672,62.194L190.672,63C190.41,63.072 190.156,63.107 189.909,63.107C189.465,63.107 189.13,62.973 188.905,62.705C188.679,62.436 188.566,62.055 188.566,61.56L188.566,57.957L187.508,57.957L187.508,57.189L188.566,57.189L188.566,55.781L189.56,55.781ZM191.44,60.041C191.44,59.471 191.551,58.959 191.773,58.504C191.999,58.05 192.31,57.699 192.708,57.452C193.109,57.205 193.565,57.081 194.077,57.081C194.868,57.081 195.508,57.355 195.995,57.903C196.485,58.451 196.73,59.179 196.73,60.089L196.73,60.159C196.73,60.724 196.621,61.233 196.403,61.684C196.188,62.132 195.878,62.481 195.474,62.731C195.073,62.982 194.611,63.107 194.088,63.107C193.3,63.107 192.661,62.834 192.17,62.286C191.683,61.738 191.44,61.013 191.44,60.11L191.44,60.041ZM192.439,60.159C192.439,60.803 192.588,61.321 192.885,61.711C193.186,62.101 193.587,62.296 194.088,62.296C194.593,62.296 194.994,62.099 195.291,61.706C195.588,61.308 195.737,60.753 195.737,60.041C195.737,59.403 195.585,58.888 195.28,58.494C194.979,58.096 194.578,57.898 194.077,57.898C193.587,57.898 193.191,58.093 192.89,58.483C192.589,58.873 192.439,59.432 192.439,60.159ZM200.786,58.08C200.635,58.055 200.472,58.042 200.297,58.042C199.645,58.042 199.203,58.32 198.97,58.875L198.97,63L197.977,63L197.977,57.189L198.943,57.189L198.959,57.86C199.285,57.341 199.747,57.081 200.345,57.081C200.539,57.081 200.685,57.106 200.786,57.156L200.786,58.08ZM205.292,62.425C204.905,62.88 204.338,63.107 203.589,63.107C202.97,63.107 202.497,62.928 202.171,62.57C201.849,62.209 201.686,61.675 201.683,60.97L201.683,57.189L202.676,57.189L202.676,60.943C202.676,61.824 203.034,62.264 203.75,62.264C204.51,62.264 205.014,61.981 205.265,61.416L205.265,57.189L206.259,57.189L206.259,63L205.313,63L205.292,62.425ZM209.841,60.084L207.22,60.084L207.22,59.273L209.841,59.273L209.841,60.084ZM213.225,63.107C212.437,63.107 211.796,62.85 211.302,62.334C210.808,61.815 210.561,61.122 210.561,60.255L210.561,60.073C210.561,59.496 210.67,58.982 210.889,58.531C211.111,58.077 211.419,57.722 211.812,57.468C212.21,57.21 212.64,57.081 213.102,57.081C213.857,57.081 214.444,57.33 214.863,57.828C215.282,58.325 215.492,59.038 215.492,59.965L215.492,60.379L211.555,60.379C211.569,60.952 211.736,61.416 212.054,61.77C212.376,62.121 212.785,62.296 213.279,62.296C213.63,62.296 213.927,62.225 214.17,62.082C214.414,61.938 214.627,61.749 214.81,61.512L215.417,61.985C214.93,62.733 214.199,63.107 213.225,63.107ZM213.102,57.898C212.701,57.898 212.364,58.044 212.092,58.338C211.82,58.628 211.651,59.036 211.587,59.563L214.498,59.563L214.498,59.487C214.469,58.982 214.333,58.592 214.09,58.316C213.846,58.037 213.517,57.898 213.102,57.898ZM217.586,57.189L217.619,57.919C218.063,57.36 218.643,57.081 219.359,57.081C220.587,57.081 221.207,57.774 221.217,59.16L221.217,63L220.224,63L220.224,59.154C220.22,58.735 220.123,58.426 219.934,58.225C219.747,58.025 219.456,57.924 219.058,57.924C218.736,57.924 218.453,58.01 218.209,58.182C217.966,58.354 217.776,58.58 217.64,58.859L217.64,63L216.646,63L216.646,57.189L217.586,57.189ZM222.479,60.046C222.479,59.14 222.689,58.42 223.108,57.887C223.527,57.35 224.082,57.081 224.773,57.081C225.482,57.081 226.035,57.332 226.433,57.833L226.481,57.189L227.389,57.189L227.389,62.86C227.389,63.612 227.165,64.205 226.717,64.638C226.273,65.072 225.675,65.288 224.923,65.288C224.504,65.288 224.094,65.199 223.693,65.019C223.292,64.841 222.986,64.595 222.775,64.284L223.291,63.688C223.717,64.214 224.238,64.477 224.854,64.477C225.337,64.477 225.713,64.341 225.981,64.069C226.254,63.797 226.39,63.414 226.39,62.919L226.39,62.42C225.992,62.878 225.45,63.107 224.762,63.107C224.082,63.107 223.53,62.834 223.108,62.286C222.689,61.738 222.479,60.991 222.479,60.046ZM223.479,60.159C223.479,60.814 223.613,61.33 223.881,61.706C224.15,62.078 224.526,62.264 225.009,62.264C225.636,62.264 226.096,61.98 226.39,61.41L226.39,58.757C226.085,58.202 225.629,57.924 225.02,57.924C224.537,57.924 224.159,58.112 223.887,58.488C223.615,58.864 223.479,59.421 223.479,60.159ZM229.972,63L228.979,63L228.979,57.189L229.972,57.189L229.972,63ZM228.898,55.647C228.898,55.486 228.946,55.35 229.043,55.239C229.143,55.128 229.29,55.072 229.483,55.072C229.677,55.072 229.824,55.128 229.924,55.239C230.024,55.35 230.074,55.486 230.074,55.647C230.074,55.808 230.024,55.942 229.924,56.05C229.824,56.157 229.677,56.211 229.483,56.211C229.29,56.211 229.143,56.157 229.043,56.05C228.946,55.942 228.898,55.808 228.898,55.647ZM232.507,57.189L232.54,57.919C232.984,57.36 233.564,57.081 234.28,57.081C235.508,57.081 236.127,57.774 236.138,59.16L236.138,63L235.145,63L235.145,59.154C235.141,58.735 235.044,58.426 234.854,58.225C234.668,58.025 234.376,57.924 233.979,57.924C233.657,57.924 233.374,58.01 233.13,58.182C232.887,58.354 232.697,58.58 232.561,58.859L232.561,63L231.567,63L231.567,57.189L232.507,57.189ZM240.048,63.107C239.261,63.107 238.62,62.85 238.125,62.334C237.631,61.815 237.384,61.122 237.384,60.255L237.384,60.073C237.384,59.496 237.493,58.982 237.712,58.531C237.934,58.077 238.242,57.722 238.636,57.468C239.033,57.21 239.463,57.081 239.925,57.081C240.68,57.081 241.268,57.33 241.687,57.828C242.105,58.325 242.315,59.038 242.315,59.965L242.315,60.379L238.378,60.379C238.392,60.952 238.559,61.416 238.877,61.77C239.2,62.121 239.608,62.296 240.102,62.296C240.453,62.296 240.75,62.225 240.994,62.082C241.237,61.938 241.45,61.749 241.633,61.512L242.24,61.985C241.753,62.733 241.022,63.107 240.048,63.107ZM239.925,57.898C239.524,57.898 239.187,58.044 238.915,58.338C238.643,58.628 238.475,59.036 238.41,59.563L241.321,59.563L241.321,59.487C241.293,58.982 241.157,58.592 240.913,58.316C240.67,58.037 240.34,57.898 239.925,57.898ZM245.881,63.107C245.094,63.107 244.453,62.85 243.958,62.334C243.464,61.815 243.217,61.122 243.217,60.255L243.217,60.073C243.217,59.496 243.326,58.982 243.545,58.531C243.767,58.077 244.075,57.722 244.469,57.468C244.866,57.21 245.296,57.081 245.758,57.081C246.513,57.081 247.101,57.33 247.52,57.828C247.938,58.325 248.148,59.038 248.148,59.965L248.148,60.379L244.211,60.379C244.225,60.952 244.392,61.416 244.71,61.77C245.033,62.121 245.441,62.296 245.935,62.296C246.286,62.296 246.583,62.225 246.827,62.082C247.07,61.938 247.283,61.749 247.466,61.512L248.073,61.985C247.586,62.733 246.855,63.107 245.881,63.107ZM245.758,57.898C245.357,57.898 245.02,58.044 244.748,58.338C244.476,58.628 244.308,59.036 244.243,59.563L247.154,59.563L247.154,59.487C247.126,58.982 246.99,58.592 246.746,58.316C246.503,58.037 246.173,57.898 245.758,57.898ZM252.112,58.08C251.961,58.055 251.799,58.042 251.623,58.042C250.971,58.042 250.529,58.32 250.296,58.875L250.296,63L249.303,63L249.303,57.189L250.27,57.189L250.286,57.86C250.611,57.341 251.073,57.081 251.671,57.081C251.865,57.081 252.012,57.106 252.112,57.156L252.112,58.08ZM254.11,63L253.116,63L253.116,57.189L254.11,57.189L254.11,63ZM253.036,55.647C253.036,55.486 253.084,55.35 253.181,55.239C253.281,55.128 253.428,55.072 253.621,55.072C253.814,55.072 253.961,55.128 254.062,55.239C254.162,55.35 254.212,55.486 254.212,55.647C254.212,55.808 254.162,55.942 254.062,56.05C253.961,56.157 253.814,56.211 253.621,56.211C253.428,56.211 253.281,56.157 253.181,56.05C253.084,55.942 253.036,55.808 253.036,55.647ZM256.645,57.189L256.677,57.919C257.121,57.36 257.701,57.081 258.417,57.081C259.646,57.081 260.265,57.774 260.276,59.16L260.276,63L259.282,63L259.282,59.154C259.279,58.735 259.182,58.426 258.992,58.225C258.806,58.025 258.514,57.924 258.117,57.924C257.794,57.924 257.512,58.01 257.268,58.182C257.025,58.354 256.835,58.58 256.699,58.859L256.699,63L255.705,63L255.705,57.189L256.645,57.189ZM261.538,60.046C261.538,59.14 261.748,58.42 262.167,57.887C262.585,57.35 263.14,57.081 263.832,57.081C264.541,57.081 265.094,57.332 265.491,57.833L265.54,57.189L266.447,57.189L266.447,62.86C266.447,63.612 266.223,64.205 265.776,64.638C265.332,65.072 264.734,65.288 263.982,65.288C263.563,65.288 263.153,65.199 262.752,65.019C262.351,64.841 262.045,64.595 261.833,64.284L262.349,63.688C262.775,64.214 263.296,64.477 263.912,64.477C264.396,64.477 264.771,64.341 265.04,64.069C265.312,63.797 265.448,63.414 265.448,62.919L265.448,62.42C265.051,62.878 264.508,63.107 263.821,63.107C263.14,63.107 262.589,62.834 262.167,62.286C261.748,61.738 261.538,60.991 261.538,60.046ZM262.537,60.159C262.537,60.814 262.671,61.33 262.94,61.706C263.208,62.078 263.584,62.264 264.068,62.264C264.694,62.264 265.155,61.98 265.448,61.41L265.448,58.757C265.144,58.202 264.687,57.924 264.079,57.924C263.595,57.924 263.217,58.112 262.945,58.488C262.673,58.864 262.537,59.421 262.537,60.159ZM270.019,60.084L267.398,60.084L267.398,59.273L270.019,59.273L270.019,60.084ZM274.579,63C274.522,62.885 274.475,62.681 274.439,62.388C273.978,62.868 273.426,63.107 272.785,63.107C272.212,63.107 271.741,62.946 271.373,62.624C271.007,62.298 270.825,61.886 270.825,61.389C270.825,60.783 271.054,60.315 271.512,59.981C271.974,59.645 272.622,59.477 273.457,59.477L274.423,59.477L274.423,59.02C274.423,58.673 274.319,58.397 274.112,58.193C273.904,57.985 273.598,57.881 273.193,57.881C272.839,57.881 272.542,57.971 272.302,58.15C272.062,58.329 271.942,58.546 271.942,58.8L270.943,58.8C270.943,58.51 271.045,58.231 271.249,57.962C271.457,57.69 271.736,57.475 272.087,57.317C272.441,57.16 272.83,57.081 273.252,57.081C273.922,57.081 274.447,57.249 274.826,57.586C275.206,57.919 275.403,58.379 275.417,58.966L275.417,61.641C275.417,62.175 275.485,62.599 275.621,62.914L275.621,63L274.579,63ZM272.93,62.243C273.242,62.243 273.537,62.162 273.816,62.001C274.096,61.84 274.298,61.63 274.423,61.373L274.423,60.18L273.645,60.18C272.427,60.18 271.818,60.536 271.818,61.249C271.818,61.56 271.922,61.804 272.13,61.98C272.338,62.155 272.604,62.243 272.93,62.243ZM277.915,57.189L277.947,57.919C278.391,57.36 278.971,57.081 279.687,57.081C280.915,57.081 281.535,57.774 281.545,59.16L281.545,63L280.552,63L280.552,59.154C280.548,58.735 280.451,58.426 280.262,58.225C280.076,58.025 279.784,57.924 279.386,57.924C279.064,57.924 278.781,58.01 278.538,58.182C278.294,58.354 278.104,58.58 277.968,58.859L277.968,63L276.975,63L276.975,57.189L277.915,57.189ZM282.802,60.046C282.802,59.154 283.014,58.438 283.436,57.898C283.859,57.353 284.412,57.081 285.096,57.081C285.776,57.081 286.315,57.314 286.712,57.779L286.712,54.75L287.706,54.75L287.706,63L286.793,63L286.745,62.377C286.347,62.864 285.794,63.107 285.085,63.107C284.412,63.107 283.862,62.832 283.436,62.28C283.014,61.729 282.802,61.009 282.802,60.121L282.802,60.046ZM283.796,60.159C283.796,60.818 283.932,61.333 284.204,61.706C284.476,62.078 284.852,62.264 285.332,62.264C285.962,62.264 286.422,61.981 286.712,61.416L286.712,58.746C286.415,58.198 285.959,57.924 285.343,57.924C284.856,57.924 284.476,58.112 284.204,58.488C283.932,58.864 283.796,59.421 283.796,60.159ZM291.321,60.084L288.7,60.084L288.7,59.273L291.321,59.273L291.321,60.084ZM292.051,60.046C292.051,59.154 292.263,58.438 292.685,57.898C293.108,57.353 293.661,57.081 294.345,57.081C295.025,57.081 295.564,57.314 295.961,57.779L295.961,54.75L296.955,54.75L296.955,63L296.042,63L295.994,62.377C295.596,62.864 295.043,63.107 294.334,63.107C293.661,63.107 293.111,62.832 292.685,62.28C292.263,61.729 292.051,61.009 292.051,60.121L292.051,60.046ZM293.045,60.159C293.045,60.818 293.181,61.333 293.453,61.706C293.725,62.078 294.101,62.264 294.581,62.264C295.211,62.264 295.671,61.981 295.961,61.416L295.961,58.746C295.664,58.198 295.208,57.924 294.592,57.924C294.105,57.924 293.725,58.112 293.453,58.488C293.181,58.864 293.045,59.421 293.045,60.159ZM300.914,63.107C300.126,63.107 299.485,62.85 298.991,62.334C298.497,61.815 298.25,61.122 298.25,60.255L298.25,60.073C298.25,59.496 298.359,58.982 298.577,58.531C298.799,58.077 299.107,57.722 299.501,57.468C299.898,57.21 300.328,57.081 300.79,57.081C301.546,57.081 302.133,57.33 302.552,57.828C302.971,58.325 303.18,59.038 303.18,59.965L303.18,60.379L299.243,60.379C299.257,60.952 299.424,61.416 299.743,61.77C300.065,62.121 300.473,62.296 300.967,62.296C301.318,62.296 301.615,62.225 301.859,62.082C302.102,61.938 302.315,61.749 302.498,61.512L303.105,61.985C302.618,62.733 301.888,63.107 300.914,63.107ZM300.79,57.898C300.389,57.898 300.052,58.044 299.78,58.338C299.508,58.628 299.34,59.036 299.275,59.563L302.187,59.563L302.187,59.487C302.158,58.982 302.022,58.592 301.778,58.316C301.535,58.037 301.205,57.898 300.79,57.898ZM307.719,61.459C307.719,61.19 307.617,60.982 307.413,60.835C307.212,60.685 306.859,60.556 306.354,60.449C305.853,60.341 305.454,60.212 305.157,60.062C304.863,59.912 304.645,59.733 304.501,59.525C304.362,59.317 304.292,59.07 304.292,58.784C304.292,58.307 304.493,57.905 304.894,57.575C305.298,57.246 305.814,57.081 306.44,57.081C307.099,57.081 307.633,57.251 308.041,57.591C308.453,57.932 308.659,58.367 308.659,58.897L307.66,58.897C307.66,58.624 307.543,58.39 307.311,58.193C307.081,57.996 306.791,57.898 306.44,57.898C306.079,57.898 305.796,57.976 305.592,58.134C305.388,58.291 305.286,58.497 305.286,58.752C305.286,58.991 305.381,59.172 305.57,59.294C305.76,59.416 306.102,59.532 306.596,59.643C307.094,59.754 307.497,59.887 307.805,60.041C308.113,60.195 308.34,60.381 308.487,60.599C308.637,60.814 308.712,61.077 308.712,61.389C308.712,61.908 308.505,62.325 308.089,62.64C307.674,62.952 307.135,63.107 306.473,63.107C306.007,63.107 305.595,63.025 305.237,62.86C304.879,62.696 304.598,62.467 304.394,62.173C304.194,61.876 304.093,61.555 304.093,61.211L305.087,61.211C305.105,61.544 305.237,61.809 305.484,62.006C305.735,62.2 306.064,62.296 306.473,62.296C306.849,62.296 307.149,62.221 307.375,62.071C307.604,61.917 307.719,61.713 307.719,61.459ZM311.086,63L310.093,63L310.093,57.189L311.086,57.189L311.086,63ZM310.012,55.647C310.012,55.486 310.061,55.35 310.157,55.239C310.257,55.128 310.404,55.072 310.598,55.072C310.791,55.072 310.938,55.128 311.038,55.239C311.138,55.35 311.188,55.486 311.188,55.647C311.188,55.808 311.138,55.942 311.038,56.05C310.938,56.157 310.791,56.211 310.598,56.211C310.404,56.211 310.257,56.157 310.157,56.05C310.061,55.942 310.012,55.808 310.012,55.647ZM312.445,60.046C312.445,59.14 312.655,58.42 313.074,57.887C313.493,57.35 314.048,57.081 314.739,57.081C315.448,57.081 316.001,57.332 316.398,57.833L316.447,57.189L317.354,57.189L317.354,62.86C317.354,63.612 317.131,64.205 316.683,64.638C316.239,65.072 315.641,65.288 314.889,65.288C314.47,65.288 314.06,65.199 313.659,65.019C313.258,64.841 312.952,64.595 312.741,64.284L313.256,63.688C313.682,64.214 314.203,64.477 314.819,64.477C315.303,64.477 315.679,64.341 315.947,64.069C316.219,63.797 316.355,63.414 316.355,62.919L316.355,62.42C315.958,62.878 315.416,63.107 314.728,63.107C314.048,63.107 313.496,62.834 313.074,62.286C312.655,61.738 312.445,60.991 312.445,60.046ZM313.444,60.159C313.444,60.814 313.579,61.33 313.847,61.706C314.116,62.078 314.492,62.264 314.975,62.264C315.602,62.264 316.062,61.98 316.355,61.41L316.355,58.757C316.051,58.202 315.595,57.924 314.986,57.924C314.502,57.924 314.125,58.112 313.853,58.488C313.58,58.864 313.444,59.421 313.444,60.159ZM319.798,57.189L319.831,57.919C320.275,57.36 320.855,57.081 321.571,57.081C322.799,57.081 323.418,57.774 323.429,59.16L323.429,63L322.436,63L322.436,59.154C322.432,58.735 322.335,58.426 322.146,58.225C321.959,58.025 321.667,57.924 321.27,57.924C320.948,57.924 320.665,58.01 320.421,58.182C320.178,58.354 319.988,58.58 319.852,58.859L319.852,63L318.858,63L318.858,57.189L319.798,57.189ZM324.949,62.479C324.949,62.307 324.999,62.164 325.1,62.049C325.203,61.935 325.357,61.877 325.562,61.877C325.766,61.877 325.92,61.935 326.023,62.049C326.131,62.164 326.185,62.307 326.185,62.479C326.185,62.644 326.131,62.782 326.023,62.893C325.92,63.004 325.766,63.059 325.562,63.059C325.357,63.059 325.203,63.004 325.1,62.893C324.999,62.782 324.949,62.644 324.949,62.479ZM330.159,62.296C330.514,62.296 330.823,62.189 331.088,61.974C331.353,61.759 331.5,61.491 331.529,61.169L332.469,61.169C332.451,61.502 332.336,61.818 332.125,62.119C331.914,62.42 331.631,62.66 331.276,62.839C330.925,63.018 330.553,63.107 330.159,63.107C329.368,63.107 328.738,62.844 328.269,62.318C327.803,61.788 327.57,61.065 327.57,60.148L327.57,59.981C327.57,59.416 327.674,58.913 327.882,58.472C328.09,58.032 328.387,57.69 328.773,57.446C329.164,57.203 329.624,57.081 330.154,57.081C330.806,57.081 331.346,57.276 331.776,57.667C332.209,58.057 332.44,58.564 332.469,59.187L331.529,59.187C331.5,58.81 331.357,58.503 331.099,58.263C330.845,58.019 330.53,57.898 330.154,57.898C329.649,57.898 329.257,58.08 328.978,58.445C328.702,58.807 328.564,59.332 328.564,60.019L328.564,60.207C328.564,60.877 328.702,61.392 328.978,61.754C329.253,62.116 329.647,62.296 330.159,62.296ZM333.323,60.041C333.323,59.471 333.434,58.959 333.656,58.504C333.881,58.05 334.193,57.699 334.59,57.452C334.991,57.205 335.448,57.081 335.96,57.081C336.751,57.081 337.39,57.355 337.877,57.903C338.368,58.451 338.613,59.179 338.613,60.089L338.613,60.159C338.613,60.724 338.504,61.233 338.286,61.684C338.071,62.132 337.761,62.481 337.356,62.731C336.955,62.982 336.493,63.107 335.971,63.107C335.183,63.107 334.544,62.834 334.053,62.286C333.566,61.738 333.323,61.013 333.323,60.11L333.323,60.041ZM334.322,60.159C334.322,60.803 334.47,61.321 334.768,61.711C335.068,62.101 335.469,62.296 335.971,62.296C336.476,62.296 336.877,62.099 337.174,61.706C337.471,61.308 337.62,60.753 337.62,60.041C337.62,59.403 337.467,58.888 337.163,58.494C336.862,58.096 336.461,57.898 335.96,57.898C335.469,57.898 335.074,58.093 334.773,58.483C334.472,58.873 334.322,59.432 334.322,60.159ZM340.794,57.189L340.821,57.833C341.247,57.332 341.822,57.081 342.545,57.081C343.358,57.081 343.911,57.393 344.205,58.016C344.398,57.736 344.649,57.511 344.957,57.339C345.268,57.167 345.635,57.081 346.058,57.081C347.332,57.081 347.98,57.756 348.002,59.106L348.002,63L347.008,63L347.008,59.165C347.008,58.75 346.913,58.44 346.724,58.236C346.534,58.028 346.215,57.924 345.768,57.924C345.399,57.924 345.093,58.035 344.849,58.257C344.606,58.476 344.464,58.771 344.425,59.144L344.425,63L343.426,63L343.426,59.192C343.426,58.347 343.012,57.924 342.185,57.924C341.533,57.924 341.088,58.202 340.848,58.757L340.848,63L339.854,63L339.854,57.189L340.794,57.189Z" style="fill:rgb(50,50,50);fill-rule:nonzero;"/>
        <path d="M17,74L817,74L817,668C817,671.314 814.314,674 811,674L23,674C19.686,674 17,671.314 17,668L17,74Z" style="fill:white;fill-opacity:0.9;fill-rule:nonzero;"/>
        <rect x="17" y="74" width="800" height="0.5" style="fill:rgb(222,222,222);"/>
    </g>
    <g transform="matrix(1.4118,0,0,1.4118,23.3957,21.2523)">
        <path d="M1361,3.75L7,3.75C3.548,3.75 0.75,6.548 0.75,10L0.75,766C0.75,769.452 3.548,772.25 7,772.25L1361,772.25C1364.45,772.25 1367.25,769.452 1367.25,766L1367.25,10C1367.25,6.548 1364.45,3.75 1361,3.75Z" style="fill:rgb(221,225,229);fill-rule:nonzero;stroke:rgb(222,222,222);stroke-width:0.5px;"/>
    </g>
    <g transform="matrix(1.4118,0,0,1.4118,23.3957,21.2523)">
        <path d="M20.75,22C20.75,24.623 18.623,26.75 16,26.75C13.377,26.75 11.25,24.623 11.25,22C11.25,19.377 13.377,17.25 16,17.25C18.623,17.25 20.75,19.377 20.75,22Z" style="fill:rgb(255,96,88);fill-rule:nonzero;stroke:rgb(225,73,66);stroke-width:0.5px;"/>
        <path d="M36.75,22C36.75,24.623 34.623,26.75 32,26.75C29.377,26.75 27.25,24.623 27.25,22C27.25,19.377 29.377,17.25 32,17.25C34.623,17.25 36.75,19.377 36.75,22Z" style="fill:rgb(255,193,48);fill-rule:nonzero;stroke:rgb(225,163,37);stroke-width:0.5px;"/>
        <path d="M52.75,22C52.75,24.623 50.623,26.75 48,26.75C45.377,26.75 43.25,24.623 43.25,22C43.25,19.377 45.377,17.25 48,17.25C50.623,17.25 52.75,19.377 52.75,22Z" style="fill:rgb(39,202,64);fill-rule:nonzero;stroke:rgb(62,175,63);stroke-width:0.5px;"/>
        <path d="M63,23.8C63,19.32 63,17.079 63.872,15.368C64.639,13.863 65.863,12.639 67.368,11.872C69.079,11 71.32,11 75.8,11L244.2,11C248.68,11 250.921,11 252.632,11.872C254.137,12.639 255.361,13.863 256.128,15.368C257,17.079 257,19.32 257,23.8L257,38.5L63,38.5L63,23.8Z" style="fill:white;fill-rule:nonzero;"/>
        <path d="M246.5,21.417C246.27,21.187 245.929,21.154 245.739,21.344L243.458,23.625L241.178,21.344C240.988,21.154 240.647,21.187 240.417,21.417C240.187,21.647 240.154,21.988 240.344,22.178L242.625,24.458L240.344,26.739C240.154,26.929 240.187,27.27 240.417,27.5C240.647,27.73 240.988,27.763 241.178,27.572L243.458,25.292L245.739,27.572C245.929,27.763 246.27,27.73 246.5,27.5C246.73,27.27 246.762,26.929 246.572,26.739L244.292,24.458L246.572,22.178C246.762,21.988 246.73,21.647 246.5,21.417Z" style="fill:rgb(115,115,115);"/>
        <path d="M273.901,29.909C273.486,29.909 273.151,29.645 273.151,29.319L273.151,25.454L269.286,25.454C268.96,25.454 268.696,25.119 268.696,24.704C268.696,24.29 268.96,23.954 269.286,23.954L273.151,23.954L273.151,20.089C273.151,19.764 273.486,19.5 273.901,19.5C274.315,19.5 274.651,19.764 274.651,20.089L274.651,23.954L278.516,23.954C278.841,23.954 279.105,24.29 279.105,24.704C279.105,25.119 278.841,25.454 278.516,25.454L274.651,25.454L274.651,29.319C274.651,29.645 274.315,29.909 273.901,29.909Z" style="fill:rgb(95,99,103);"/>
        <rect x="1" y="38" width="1366" height="30" style="fill:white;"/>
        <path d="M71.72,48.249C71.875,48.304 72.046,48.38 72.233,48.483C72.64,48.706 73.076,49.026 73.539,49.462L75,48L75,52L71,52L72.791,50.209C72.396,49.837 72.033,49.571 71.708,49.393C71.477,49.267 71.417,49.246 71.212,49.19C69.524,48.731 67.732,49.387 66.764,50.788C66.555,51.091 66.389,51.423 66.271,51.778C66.011,52.558 66.007,53.378 66.246,54.146C66.629,55.376 67.597,56.356 68.873,56.761C71.003,57.435 73.29,56.299 73.982,54.222L75,54.545C74.125,57.17 71.234,58.607 68.542,57.754C66.929,57.243 65.705,56.003 65.221,54.449C64.919,53.479 64.924,52.44 65.252,51.455C65.401,51.007 65.611,50.588 65.876,50.204C67.1,48.432 69.365,47.603 71.499,48.184C71.54,48.192 71.62,48.214 71.72,48.249Z" style="fill:rgb(95,99,103);"/>
        <path d="M14.118,52.556C13.793,52.556 13.529,52.82 13.529,53.146C13.529,53.471 13.793,53.735 14.118,53.735L23.348,53.735C23.674,53.735 23.938,53.471 23.938,53.146C23.938,52.82 23.674,52.556 23.348,52.556L14.118,52.556Z" style="fill:rgb(115,115,115);fill-rule:nonzero;"/>
        <path d="M13.73,52.69C13.499,52.92 13.499,53.293 13.729,53.523C13.958,53.754 14.332,53.754 14.562,53.525L19.038,49.063C19.268,48.833 19.269,48.46 19.039,48.229C18.809,47.999 18.436,47.998 18.206,48.228L13.73,52.69Z" style="fill:rgb(115,115,115);fill-rule:nonzero;"/>
        <path d="M14.563,52.768C14.332,52.538 13.959,52.539 13.729,52.77C13.5,53.001 13.501,53.374 13.732,53.603L18.244,58.093C18.474,58.322 18.847,58.321 19.077,58.091C19.307,57.86 19.305,57.487 19.075,57.257L14.563,52.768Z" style="fill:rgb(115,115,115);fill-rule:nonzero;"/>
        <path d="M48.882,52.556C49.207,52.556 49.471,52.82 49.471,53.146C49.471,53.471 49.207,53.735 48.882,53.735L39.652,53.735C39.326,53.735 39.062,53.471 39.062,53.146C39.062,52.82 39.326,52.556 39.652,52.556L48.882,52.556Z" style="fill:rgb(115,115,115);fill-rule:nonzero;"/>
        <path d="M49.27,52.69C49.501,52.92 49.501,53.293 49.271,53.523C49.042,53.754 48.669,53.754 48.438,53.525L43.962,49.063C43.732,48.833 43.731,48.46 43.961,48.229C44.191,47.999 44.564,47.998 44.795,48.228L49.27,52.69Z" style="fill:rgb(115,115,115);fill-rule:nonzero;"/>
        <path d="M48.437,52.768C48.668,52.538 49.041,52.539 49.271,52.77C49.5,53.001 49.499,53.374 49.269,53.603L44.756,58.093C44.526,58.322 44.153,58.321 43.923,58.091C43.694,57.86 43.695,57.487 43.925,57.257L48.437,52.768Z" style="fill:rgb(115,115,115);fill-rule:nonzero;"/>
        <path d="M1140,48.729C1140,45.015 1136.98,42 1133.27,42L99.296,42C95.583,42 92.567,45.015 92.567,48.729L92.567,57.271C92.567,60.985 95.583,64 99.296,64L1133.27,64C1136.98,64 1140,60.985 1140,57.271L1140,48.729Z" style="fill:rgb(241,243,244);"/>
        <path d="M102.746,52.708C102.746,52.317 102.428,52 102.037,52L98.542,52C98.151,52 97.834,52.317 97.834,52.708L97.834,56.292C97.834,56.683 98.151,57 98.542,57L102.037,57C102.428,57 102.746,56.683 102.746,56.292L102.746,52.708Z" style="fill:rgb(95,99,103);"/>
        <path d="M101.927,51.15C101.927,49.964 101.194,49 100.29,49C99.387,49 98.652,49.962 98.652,51.15L98.652,53.284C98.652,53.687 98.894,54 99.193,54L101.386,54C101.681,54 101.927,53.679 101.927,53.284L101.927,51.15ZM101.386,53.286C101.386,53.286 99.198,53.291 99.198,53.284L99.198,51.15C99.198,50.357 99.688,49.714 100.289,49.714C100.891,49.714 101.381,50.357 101.381,51.15C101.381,51.15 101.38,53.286 101.386,53.286Z" style="fill:rgb(95,99,103);"/>
        <path d="M111.832,57L110.838,57L110.838,48.75L111.832,48.75L111.832,57ZM113.164,54.041C113.164,53.471 113.275,52.959 113.497,52.504C113.722,52.05 114.034,51.699 114.431,51.452C114.832,51.205 115.289,51.081 115.801,51.081C116.592,51.081 117.231,51.355 117.718,51.903C118.209,52.451 118.454,53.179 118.454,54.089L118.454,54.159C118.454,54.724 118.345,55.233 118.126,55.684C117.912,56.132 117.602,56.481 117.197,56.731C116.796,56.982 116.334,57.107 115.812,57.107C115.024,57.107 114.385,56.834 113.894,56.286C113.407,55.738 113.164,55.013 113.164,54.11L113.164,54.041ZM114.163,54.159C114.163,54.803 114.311,55.321 114.608,55.711C114.909,56.101 115.31,56.296 115.812,56.296C116.316,56.296 116.717,56.099 117.015,55.706C117.312,55.308 117.46,54.753 117.46,54.041C117.46,53.403 117.308,52.888 117.004,52.494C116.703,52.096 116.302,51.898 115.801,51.898C115.31,51.898 114.915,52.093 114.614,52.483C114.313,52.873 114.163,53.432 114.163,54.159ZM122.031,56.296C122.386,56.296 122.695,56.189 122.96,55.974C123.225,55.759 123.372,55.491 123.401,55.169L124.341,55.169C124.323,55.502 124.208,55.818 123.997,56.119C123.786,56.42 123.503,56.66 123.148,56.839C122.798,57.018 122.425,57.107 122.031,57.107C121.24,57.107 120.61,56.844 120.141,56.318C119.675,55.788 119.442,55.065 119.442,54.148L119.442,53.981C119.442,53.416 119.546,52.913 119.754,52.472C119.962,52.032 120.259,51.69 120.646,51.446C121.036,51.203 121.496,51.081 122.026,51.081C122.678,51.081 123.218,51.276 123.648,51.667C124.081,52.057 124.312,52.564 124.341,53.187L123.401,53.187C123.372,52.811 123.229,52.503 122.971,52.263C122.717,52.019 122.402,51.898 122.026,51.898C121.521,51.898 121.129,52.08 120.85,52.445C120.574,52.807 120.436,53.332 120.436,54.019L120.436,54.207C120.436,54.877 120.574,55.392 120.85,55.754C121.125,56.116 121.519,56.296 122.031,56.296ZM129.046,57C128.989,56.885 128.942,56.681 128.906,56.388C128.444,56.868 127.893,57.107 127.252,57.107C126.679,57.107 126.208,56.946 125.839,56.624C125.474,56.298 125.292,55.886 125.292,55.389C125.292,54.783 125.521,54.315 125.979,53.981C126.441,53.645 127.089,53.477 127.923,53.477L128.89,53.477L128.89,53.02C128.89,52.673 128.786,52.397 128.579,52.193C128.371,51.985 128.065,51.881 127.66,51.881C127.306,51.881 127.008,51.971 126.769,52.15C126.529,52.329 126.409,52.546 126.409,52.8L125.41,52.8C125.41,52.51 125.512,52.231 125.716,51.962C125.924,51.69 126.203,51.475 126.554,51.317C126.908,51.16 127.297,51.081 127.719,51.081C128.389,51.081 128.913,51.249 129.293,51.586C129.673,51.919 129.869,52.379 129.884,52.966L129.884,55.641C129.884,56.175 129.952,56.599 130.088,56.914L130.088,57L129.046,57ZM127.397,56.243C127.708,56.243 128.004,56.162 128.283,56.001C128.562,55.84 128.765,55.63 128.89,55.373L128.89,54.18L128.111,54.18C126.894,54.18 126.285,54.536 126.285,55.249C126.285,55.561 126.389,55.804 126.597,55.98C126.804,56.155 127.071,56.243 127.397,56.243ZM132.521,57L131.527,57L131.527,48.75L132.521,48.75L132.521,57ZM135.11,51.892C135.55,51.351 136.123,51.081 136.829,51.081C138.057,51.081 138.676,51.774 138.687,53.16L138.687,57L137.693,57L137.693,53.154C137.69,52.735 137.593,52.426 137.403,52.225C137.217,52.025 136.925,51.924 136.528,51.924C136.206,51.924 135.923,52.01 135.679,52.182C135.436,52.354 135.246,52.58 135.11,52.859L135.11,57L134.116,57L134.116,48.75L135.11,48.75L135.11,51.892ZM139.912,54.041C139.912,53.471 140.023,52.959 140.245,52.504C140.47,52.05 140.782,51.699 141.179,51.452C141.58,51.205 142.037,51.081 142.549,51.081C143.34,51.081 143.979,51.355 144.466,51.903C144.957,52.451 145.202,53.179 145.202,54.089L145.202,54.159C145.202,54.724 145.093,55.233 144.875,55.684C144.66,56.132 144.35,56.481 143.945,56.731C143.544,56.982 143.082,57.107 142.56,57.107C141.772,57.107 141.133,56.834 140.642,56.286C140.155,55.738 139.912,55.013 139.912,54.11L139.912,54.041ZM140.911,54.159C140.911,54.803 141.059,55.321 141.356,55.711C141.657,56.101 142.058,56.296 142.56,56.296C143.064,56.296 143.465,56.099 143.763,55.706C144.06,55.308 144.208,54.753 144.208,54.041C144.208,53.403 144.056,52.888 143.752,52.494C143.451,52.096 143.05,51.898 142.549,51.898C142.058,51.898 141.663,52.093 141.362,52.483C141.061,52.873 140.911,53.432 140.911,54.159ZM149.832,55.459C149.832,55.19 149.73,54.982 149.526,54.835C149.325,54.685 148.973,54.556 148.468,54.449C147.966,54.341 147.567,54.212 147.27,54.062C146.976,53.912 146.758,53.733 146.615,53.525C146.475,53.317 146.405,53.07 146.405,52.784C146.405,52.307 146.606,51.905 147.007,51.575C147.411,51.246 147.927,51.081 148.554,51.081C149.213,51.081 149.746,51.251 150.154,51.591C150.566,51.932 150.772,52.367 150.772,52.897L149.773,52.897C149.773,52.624 149.657,52.39 149.424,52.193C149.195,51.996 148.905,51.898 148.554,51.898C148.192,51.898 147.909,51.976 147.705,52.134C147.501,52.291 147.399,52.497 147.399,52.752C147.399,52.991 147.494,53.172 147.684,53.294C147.873,53.416 148.215,53.532 148.709,53.643C149.207,53.754 149.61,53.887 149.918,54.041C150.226,54.195 150.453,54.381 150.6,54.599C150.75,54.814 150.826,55.077 150.826,55.389C150.826,55.908 150.618,56.325 150.203,56.64C149.787,56.952 149.248,57.107 148.586,57.107C148.12,57.107 147.709,57.025 147.351,56.86C146.993,56.696 146.711,56.467 146.507,56.173C146.307,55.876 146.207,55.555 146.207,55.211L147.2,55.211C147.218,55.544 147.351,55.809 147.598,56.006C147.848,56.2 148.178,56.296 148.586,56.296C148.962,56.296 149.263,56.221 149.488,56.071C149.717,55.917 149.832,55.713 149.832,55.459ZM153.468,49.781L153.468,51.189L154.553,51.189L154.553,51.957L153.468,51.957L153.468,55.561C153.468,55.793 153.517,55.969 153.613,56.087C153.71,56.202 153.875,56.259 154.107,56.259C154.222,56.259 154.38,56.237 154.58,56.194L154.58,57C154.319,57.072 154.064,57.107 153.817,57.107C153.373,57.107 153.039,56.973 152.813,56.705C152.587,56.436 152.475,56.055 152.475,55.561L152.475,51.957L151.417,51.957L151.417,51.189L152.475,51.189L152.475,49.781L153.468,49.781ZM155.687,56.479C155.687,56.307 155.737,56.164 155.837,56.049C155.941,55.935 156.095,55.877 156.299,55.877C156.503,55.877 156.657,55.935 156.761,56.049C156.868,56.164 156.922,56.307 156.922,56.479C156.922,56.644 156.868,56.782 156.761,56.893C156.657,57.004 156.503,57.059 156.299,57.059C156.095,57.059 155.941,57.004 155.837,56.893C155.737,56.782 155.687,56.644 155.687,56.479ZM155.692,51.736C155.692,51.565 155.742,51.421 155.842,51.307C155.946,51.192 156.1,51.135 156.304,51.135C156.508,51.135 156.662,51.192 156.766,51.307C156.874,51.421 156.927,51.565 156.927,51.736C156.927,51.901 156.874,52.039 156.766,52.15C156.662,52.261 156.508,52.316 156.304,52.316C156.1,52.316 155.946,52.261 155.842,52.15C155.742,52.039 155.692,51.901 155.692,51.736ZM159.726,52.606L160.472,52.606C160.941,52.599 161.31,52.476 161.579,52.236C161.847,51.996 161.981,51.672 161.981,51.264C161.981,50.347 161.525,49.889 160.612,49.889C160.182,49.889 159.838,50.012 159.581,50.259C159.326,50.503 159.199,50.827 159.199,51.231L158.206,51.231C158.206,50.612 158.431,50.098 158.882,49.69C159.337,49.278 159.914,49.072 160.612,49.072C161.349,49.072 161.928,49.267 162.347,49.658C162.766,50.048 162.975,50.591 162.975,51.285C162.975,51.625 162.864,51.955 162.642,52.273C162.424,52.592 162.125,52.83 161.745,52.988C162.175,53.124 162.506,53.349 162.739,53.665C162.975,53.98 163.093,54.365 163.093,54.819C163.093,55.521 162.864,56.078 162.406,56.49C161.947,56.902 161.351,57.107 160.617,57.107C159.883,57.107 159.285,56.909 158.823,56.511C158.365,56.114 158.136,55.589 158.136,54.938L159.135,54.938C159.135,55.349 159.269,55.679 159.538,55.926C159.806,56.173 160.166,56.296 160.617,56.296C161.097,56.296 161.464,56.171 161.718,55.92C161.972,55.67 162.1,55.31 162.1,54.841C162.1,54.386 161.96,54.037 161.681,53.794C161.401,53.55 160.999,53.425 160.472,53.417L159.726,53.417L159.726,52.606ZM169.361,53.665C169.361,54.828 169.163,55.693 168.765,56.259C168.368,56.825 167.746,57.107 166.901,57.107C166.067,57.107 165.449,56.832 165.048,56.28C164.647,55.725 164.44,54.898 164.425,53.799L164.425,52.472C164.425,51.323 164.624,50.469 165.021,49.91C165.419,49.352 166.042,49.072 166.891,49.072C167.732,49.072 168.352,49.343 168.749,49.883C169.146,50.42 169.351,51.251 169.361,52.376L169.361,53.665ZM168.368,52.306C168.368,51.464 168.25,50.852 168.013,50.469C167.777,50.082 167.403,49.889 166.891,49.889C166.382,49.889 166.012,50.08 165.779,50.463C165.546,50.847 165.426,51.436 165.419,52.231L165.419,53.82C165.419,54.665 165.541,55.29 165.784,55.695C166.031,56.096 166.404,56.296 166.901,56.296C167.392,56.296 167.755,56.107 167.992,55.727C168.232,55.347 168.357,54.75 168.368,53.933L168.368,52.306ZM175.538,53.665C175.538,54.828 175.339,55.693 174.942,56.259C174.544,56.825 173.923,57.107 173.078,57.107C172.244,57.107 171.626,56.832 171.225,56.28C170.824,55.725 170.616,54.898 170.602,53.799L170.602,52.472C170.602,51.323 170.801,50.469 171.198,49.91C171.596,49.352 172.219,49.072 173.067,49.072C173.909,49.072 174.528,49.343 174.926,49.883C175.323,50.42 175.527,51.251 175.538,52.376L175.538,53.665ZM174.544,52.306C174.544,51.464 174.426,50.852 174.19,50.469C173.954,50.082 173.579,49.889 173.067,49.889C172.559,49.889 172.188,50.08 171.956,50.463C171.723,50.847 171.603,51.436 171.596,52.231L171.596,53.82C171.596,54.665 171.717,55.29 171.961,55.695C172.208,56.096 172.58,56.296 173.078,56.296C173.569,56.296 173.932,56.107 174.168,55.727C174.408,55.347 174.534,54.75 174.544,53.933L174.544,52.306ZM181.715,53.665C181.715,54.828 181.516,55.693 181.119,56.259C180.721,56.825 180.1,57.107 179.255,57.107C178.421,57.107 177.803,56.832 177.402,56.28C177.001,55.725 176.793,54.898 176.779,53.799L176.779,52.472C176.779,51.323 176.978,50.469 177.375,49.91C177.772,49.352 178.396,49.072 179.244,49.072C180.086,49.072 180.705,49.343 181.103,49.883C181.5,50.42 181.704,51.251 181.715,52.376L181.715,53.665ZM180.721,52.306C180.721,51.464 180.603,50.852 180.367,50.469C180.13,50.082 179.756,49.889 179.244,49.889C178.736,49.889 178.365,50.08 178.132,50.463C177.9,50.847 177.78,51.436 177.772,52.231L177.772,53.82C177.772,54.665 177.894,55.29 178.138,55.695C178.385,56.096 178.757,56.296 179.255,56.296C179.745,56.296 180.109,56.107 180.345,55.727C180.585,55.347 180.71,54.75 180.721,53.933L180.721,52.306Z" style="fill:rgb(50,50,50);fill-rule:nonzero;"/>
        <path d="M183.289,57.671L182.435,57.671L185.7,49.18L186.549,49.18L183.289,57.671Z" style="fill:rgb(127,140,151);fill-rule:nonzero;"/>
        <rect x="1" y="68" width="1366" height="0.5" style="fill:rgb(222,222,222);"/>
    </g>
    <g transform="matrix(1.4118,0,0,1.4118,23.3957,21.2523)">
        <path d="M1,69L1367,69L1367,761C1367,764.314 1364.31,767 1361,767L7,767C3.686,767 1,764.314 1,761L1,69Z" style="fill:white;fill-opacity:0.9;fill-rule:nonzero;"/>
    </g>
    <g transform="matrix(1.4118,0,0,1.4118,23.3957,21.2523)">
        <path d="M267,23.8C267,19.32 267,17.079 267.872,15.368C268.639,13.863 269.863,12.639 271.368,11.872C273.079,11 275.32,11 279.8,11L448.2,11C452.68,11 454.921,11 456.632,11.872C458.137,12.639 459.361,13.863 460.128,15.368C461,17.079 461,19.32 461,23.8L461,38.5L267,38.5L267,23.8Z" style="fill:white;fill-rule:nonzero;"/>
    </g>
    <g transform="matrix(1.4118,0,0,1.4118,23.3957,21.2523)">
        <path d="M284.289,28L283.347,28L279.768,22.522L279.768,28L278.825,28L278.825,20.891L279.768,20.891L283.356,26.394L283.356,20.891L284.289,20.891L284.289,28ZM288.005,28.098C287.289,28.098 286.706,27.863 286.257,27.395C285.808,26.923 285.583,26.293 285.583,25.505L285.583,25.339C285.583,24.815 285.682,24.348 285.881,23.938C286.083,23.524 286.363,23.202 286.721,22.971C287.082,22.736 287.473,22.619 287.893,22.619C288.579,22.619 289.113,22.845 289.494,23.298C289.875,23.75 290.065,24.398 290.065,25.241L290.065,25.617L286.486,25.617C286.499,26.138 286.651,26.56 286.94,26.882C287.233,27.201 287.604,27.36 288.054,27.36C288.373,27.36 288.643,27.295 288.864,27.165C289.086,27.035 289.279,26.862 289.445,26.648L289.997,27.077C289.554,27.758 288.89,28.098 288.005,28.098ZM287.893,23.361C287.528,23.361 287.222,23.495 286.975,23.762C286.727,24.025 286.574,24.397 286.516,24.875L289.162,24.875L289.162,24.807C289.136,24.348 289.012,23.993 288.791,23.742C288.57,23.488 288.27,23.361 287.893,23.361ZM295.793,26.755L296.809,22.717L297.712,22.717L296.174,28L295.441,28L294.157,23.996L292.907,28L292.175,28L290.642,22.717L291.54,22.717L292.58,26.672L293.811,22.717L294.538,22.717L295.793,26.755ZM305.974,21.662L303.688,21.662L303.688,28L302.756,28L302.756,21.662L300.476,21.662L300.476,20.891L305.974,20.891L305.974,21.662ZM309.592,28C309.54,27.896 309.497,27.71 309.465,27.443C309.045,27.88 308.544,28.098 307.961,28.098C307.44,28.098 307.012,27.951 306.677,27.658C306.345,27.362 306.179,26.988 306.179,26.535C306.179,25.985 306.387,25.559 306.804,25.256C307.224,24.95 307.813,24.797 308.571,24.797L309.45,24.797L309.45,24.382C309.45,24.066 309.356,23.815 309.167,23.63C308.978,23.441 308.7,23.347 308.332,23.347C308.01,23.347 307.74,23.428 307.521,23.591C307.303,23.754 307.194,23.951 307.194,24.182L306.286,24.182C306.286,23.918 306.379,23.664 306.564,23.42C306.753,23.173 307.007,22.977 307.326,22.834C307.648,22.691 308.002,22.619 308.386,22.619C308.994,22.619 309.471,22.772 309.816,23.078C310.161,23.381 310.34,23.799 310.354,24.333L310.354,26.765C310.354,27.25 310.415,27.635 310.539,27.922L310.539,28L309.592,28ZM308.093,27.312C308.376,27.312 308.645,27.238 308.898,27.092C309.152,26.945 309.336,26.755 309.45,26.52L309.45,25.437L308.742,25.437C307.635,25.437 307.082,25.76 307.082,26.408C307.082,26.691 307.176,26.913 307.365,27.072C307.554,27.232 307.797,27.312 308.093,27.312ZM316.242,25.417C316.242,26.224 316.057,26.874 315.686,27.365C315.314,27.854 314.816,28.098 314.191,28.098C313.524,28.098 313.008,27.862 312.644,27.39L312.6,28L311.77,28L311.77,20.5L312.673,20.5L312.673,23.298C313.037,22.845 313.54,22.619 314.182,22.619C314.823,22.619 315.326,22.862 315.69,23.347C316.058,23.832 316.242,24.496 316.242,25.339L316.242,25.417ZM315.339,25.315C315.339,24.699 315.22,24.224 314.982,23.889C314.745,23.553 314.403,23.386 313.957,23.386C313.361,23.386 312.933,23.662 312.673,24.216L312.673,26.501C312.95,27.054 313.381,27.331 313.967,27.331C314.4,27.331 314.737,27.163 314.978,26.828C315.218,26.493 315.339,25.988 315.339,25.315Z" style="fill:rgb(50,50,50);fill-rule:nonzero;"/>
    </g>
    <g transform="matrix(1.4118,0,0,1.4118,23.3957,21.2523)">
        <circle cx="79" cy="25" r="6" style="fill:rgb(192,24,37);"/>
    </g>
    <g transform="matrix(1.4118,0,0,1.4118,23.3957,21.2523)">
        <rect x="58" y="7" width="428" height="31" style="fill:rgb(221,225,229);"/>
    </g>
    <g transform="matrix(1.4118,0,0,1.4118,23.3957,21.2523)">
        <path d="M287.204,30.409C286.79,30.409 286.454,30.145 286.454,29.819L286.454,25.954L282.589,25.954C282.264,25.954 282,25.619 282,25.204C282,24.79 282.264,24.454 282.589,24.454L286.454,24.454L286.454,20.589C286.454,20.264 286.79,20 287.204,20C287.618,20 287.954,20.264 287.954,20.589L287.954,24.454L291.819,24.454C292.145,24.454 292.409,24.79 292.409,25.204C292.409,25.619 292.145,25.954 291.819,25.954L287.954,25.954L287.954,29.819C287.954,30.145 287.618,30.409 287.204,30.409Z" style="fill:rgb(95,99,103);"/>
    </g>
    <g transform="matrix(1.4118,0,0,1.4118,23.3957,21.2523)">
        <path d="M94,22.8C94,18.32 94,16.079 94.872,14.368C95.639,12.863 96.863,11.639 98.368,10.872C100.079,10 102.32,10 106.8,10L262.2,10C266.68,10 268.921,10 270.632,10.872C272.137,11.639 273.361,12.863 274.128,14.368C275,16.079 275,18.32 275,22.8L275,38L94,38L94,22.8Z" style="fill:white;fill-rule:nonzero;"/>
    </g>
    <g transform="matrix(1.4118,0,0,1.4118,23.3957,21.2523)">
        <path d="M65,22.5C65,18.302 65,16.203 65.768,14.58C66.559,12.906 67.906,11.559 69.58,10.768C71.204,10 73.302,10 77.5,10C81.698,10 83.797,10 85.42,10.768C87.094,11.559 88.441,12.906 89.232,14.58C90,16.203 90,18.302 90,22.5L90,38L65,38L65,22.5Z" style="fill:white;fill-rule:nonzero;"/>
    </g>
    <g transform="matrix(1.4118,0,0,1.4118,23.3957,21.2523)">
        <path d="M106.763,24.217L106.763,27L105.825,27L105.825,19.891L108.447,19.891C109.225,19.891 109.834,20.089 110.273,20.486C110.716,20.884 110.938,21.409 110.938,22.064C110.938,22.754 110.721,23.286 110.288,23.66C109.858,24.031 109.242,24.217 108.438,24.217L106.763,24.217ZM106.763,23.45L108.447,23.45C108.949,23.45 109.333,23.333 109.6,23.099C109.867,22.861 110,22.519 110,22.073C110,21.65 109.867,21.312 109.6,21.058C109.333,20.804 108.966,20.672 108.501,20.662L106.763,20.662L106.763,23.45ZM114.546,22.527C114.409,22.505 114.261,22.493 114.102,22.493C113.509,22.493 113.107,22.745 112.896,23.25L112.896,27L111.992,27L111.992,21.717L112.871,21.717L112.886,22.327C113.182,21.855 113.602,21.619 114.146,21.619C114.321,21.619 114.455,21.642 114.546,21.688L114.546,22.527ZM115.044,24.31C115.044,23.792 115.145,23.327 115.347,22.913C115.552,22.5 115.835,22.181 116.196,21.956C116.561,21.731 116.976,21.619 117.441,21.619C118.161,21.619 118.742,21.868 119.185,22.366C119.631,22.864 119.854,23.527 119.854,24.354L119.854,24.417C119.854,24.931 119.754,25.394 119.556,25.804C119.36,26.211 119.079,26.528 118.711,26.756C118.346,26.984 117.926,27.098 117.451,27.098C116.735,27.098 116.154,26.849 115.708,26.351C115.265,25.853 115.044,25.193 115.044,24.373L115.044,24.31ZM115.952,24.417C115.952,25.003 116.087,25.473 116.357,25.828C116.631,26.183 116.995,26.36 117.451,26.36C117.91,26.36 118.275,26.181 118.545,25.823C118.815,25.462 118.95,24.957 118.95,24.31C118.95,23.73 118.812,23.261 118.535,22.903C118.262,22.542 117.897,22.361 117.441,22.361C116.995,22.361 116.636,22.539 116.362,22.894C116.089,23.248 115.952,23.756 115.952,24.417ZM123.105,26.36C123.428,26.36 123.709,26.263 123.95,26.067C124.191,25.872 124.325,25.628 124.351,25.335L125.205,25.335C125.189,25.638 125.085,25.926 124.893,26.199C124.701,26.473 124.443,26.691 124.121,26.854C123.802,27.016 123.464,27.098 123.105,27.098C122.386,27.098 121.813,26.858 121.387,26.38C120.964,25.898 120.752,25.241 120.752,24.407L120.752,24.256C120.752,23.741 120.846,23.284 121.035,22.884C121.224,22.483 121.494,22.173 121.846,21.951C122.201,21.73 122.619,21.619 123.101,21.619C123.693,21.619 124.185,21.797 124.575,22.151C124.969,22.506 125.179,22.967 125.205,23.533L124.351,23.533C124.325,23.191 124.194,22.912 123.96,22.693C123.729,22.472 123.442,22.361 123.101,22.361C122.642,22.361 122.285,22.527 122.031,22.859C121.781,23.188 121.655,23.665 121.655,24.29L121.655,24.461C121.655,25.07 121.781,25.538 122.031,25.867C122.282,26.196 122.64,26.36 123.105,26.36ZM127.446,20.438L127.446,21.717L128.433,21.717L128.433,22.415L127.446,22.415L127.446,25.691C127.446,25.903 127.49,26.063 127.578,26.17C127.666,26.274 127.816,26.326 128.027,26.326C128.132,26.326 128.275,26.307 128.457,26.268L128.457,27C128.219,27.065 127.988,27.098 127.764,27.098C127.36,27.098 127.056,26.976 126.851,26.731C126.646,26.487 126.543,26.141 126.543,25.691L126.543,22.415L125.581,22.415L125.581,21.717L126.543,21.717L126.543,20.438L127.446,20.438ZM129.155,24.31C129.155,23.792 129.256,23.327 129.458,22.913C129.663,22.5 129.946,22.181 130.308,21.956C130.672,21.731 131.087,21.619 131.553,21.619C132.272,21.619 132.853,21.868 133.296,22.366C133.742,22.864 133.965,23.527 133.965,24.354L133.965,24.417C133.965,24.931 133.866,25.394 133.667,25.804C133.472,26.211 133.19,26.528 132.822,26.756C132.458,26.984 132.038,27.098 131.562,27.098C130.846,27.098 130.265,26.849 129.819,26.351C129.377,25.853 129.155,25.193 129.155,24.373L129.155,24.31ZM130.063,24.417C130.063,25.003 130.199,25.473 130.469,25.828C130.742,26.183 131.107,26.36 131.562,26.36C132.021,26.36 132.386,26.181 132.656,25.823C132.926,25.462 133.062,24.957 133.062,24.31C133.062,23.73 132.923,23.261 132.646,22.903C132.373,22.542 132.008,22.361 131.553,22.361C131.107,22.361 130.747,22.539 130.474,22.894C130.2,23.248 130.063,23.756 130.063,24.417ZM137.651,22.527C137.515,22.505 137.367,22.493 137.207,22.493C136.615,22.493 136.213,22.745 136.001,23.25L136.001,27L135.098,27L135.098,21.717L135.977,21.717L135.991,22.327C136.287,21.855 136.707,21.619 137.251,21.619C137.427,21.619 137.56,21.642 137.651,21.688L137.651,22.527ZM143.633,19.891L143.633,24.725C143.63,25.395 143.418,25.944 142.998,26.37C142.581,26.797 142.015,27.036 141.299,27.088L141.05,27.098C140.272,27.098 139.652,26.888 139.189,26.468C138.727,26.048 138.493,25.47 138.486,24.734L138.486,19.891L139.414,19.891L139.414,24.705C139.414,25.219 139.556,25.62 139.839,25.906C140.122,26.19 140.526,26.331 141.05,26.331C141.58,26.331 141.986,26.19 142.266,25.906C142.549,25.623 142.69,25.224 142.69,24.71L142.69,19.891L143.633,19.891ZM147.593,27L147.593,19.891L149.6,19.891C150.218,19.891 150.765,20.027 151.24,20.301C151.715,20.574 152.082,20.963 152.339,21.468C152.599,21.972 152.731,22.552 152.734,23.206L152.734,23.66C152.734,24.331 152.604,24.918 152.344,25.423C152.087,25.927 151.717,26.315 151.235,26.585C150.757,26.855 150.199,26.994 149.561,27L147.593,27ZM148.53,20.662L148.53,26.233L149.517,26.233C150.239,26.233 150.801,26.009 151.201,25.56C151.605,25.11 151.807,24.471 151.807,23.641L151.807,23.226C151.807,22.418 151.616,21.792 151.235,21.346C150.858,20.897 150.321,20.669 149.624,20.662L148.53,20.662ZM156.206,27.098C155.49,27.098 154.907,26.863 154.458,26.395C154.009,25.923 153.784,25.293 153.784,24.505L153.784,24.339C153.784,23.815 153.883,23.348 154.082,22.938C154.284,22.524 154.564,22.202 154.922,21.971C155.283,21.736 155.674,21.619 156.094,21.619C156.781,21.619 157.314,21.845 157.695,22.298C158.076,22.75 158.267,23.398 158.267,24.241L158.267,24.617L154.688,24.617C154.701,25.138 154.852,25.56 155.142,25.882C155.435,26.201 155.806,26.36 156.255,26.36C156.574,26.36 156.844,26.295 157.065,26.165C157.287,26.035 157.48,25.862 157.646,25.648L158.198,26.077C157.756,26.758 157.091,27.098 156.206,27.098ZM156.094,22.361C155.729,22.361 155.423,22.495 155.176,22.762C154.928,23.025 154.775,23.397 154.717,23.875L157.363,23.875L157.363,23.807C157.337,23.348 157.214,22.993 156.992,22.742C156.771,22.488 156.471,22.361 156.094,22.361ZM162.393,25.599C162.393,25.355 162.3,25.166 162.114,25.032C161.932,24.895 161.611,24.778 161.152,24.681C160.697,24.583 160.334,24.466 160.063,24.329C159.797,24.192 159.598,24.03 159.468,23.841C159.341,23.652 159.277,23.427 159.277,23.167C159.277,22.734 159.46,22.368 159.824,22.068C160.192,21.769 160.661,21.619 161.23,21.619C161.829,21.619 162.314,21.774 162.686,22.083C163.06,22.392 163.247,22.788 163.247,23.27L162.339,23.27C162.339,23.022 162.233,22.809 162.021,22.63C161.813,22.451 161.549,22.361 161.23,22.361C160.902,22.361 160.645,22.433 160.459,22.576C160.273,22.719 160.181,22.907 160.181,23.138C160.181,23.356 160.267,23.52 160.439,23.631C160.612,23.741 160.923,23.847 161.372,23.948C161.825,24.049 162.191,24.17 162.471,24.31C162.751,24.45 162.957,24.619 163.091,24.817C163.228,25.013 163.296,25.252 163.296,25.535C163.296,26.007 163.107,26.386 162.729,26.673C162.352,26.956 161.862,27.098 161.26,27.098C160.837,27.098 160.462,27.023 160.137,26.873C159.811,26.723 159.556,26.515 159.37,26.248C159.188,25.978 159.097,25.687 159.097,25.374L160,25.374C160.016,25.677 160.137,25.918 160.361,26.097C160.589,26.273 160.889,26.36 161.26,26.36C161.602,26.36 161.875,26.292 162.08,26.155C162.288,26.015 162.393,25.83 162.393,25.599ZM165.454,27L164.551,27L164.551,21.717L165.454,21.717L165.454,27ZM164.478,20.315C164.478,20.169 164.521,20.045 164.609,19.944C164.701,19.843 164.834,19.793 165.01,19.793C165.186,19.793 165.319,19.843 165.41,19.944C165.501,20.045 165.547,20.169 165.547,20.315C165.547,20.462 165.501,20.584 165.41,20.682C165.319,20.779 165.186,20.828 165.01,20.828C164.834,20.828 164.701,20.779 164.609,20.682C164.521,20.584 164.478,20.462 164.478,20.315ZM166.689,24.315C166.689,23.491 166.88,22.837 167.261,22.352C167.642,21.863 168.146,21.619 168.774,21.619C169.419,21.619 169.922,21.847 170.283,22.303L170.327,21.717L171.152,21.717L171.152,26.873C171.152,27.557 170.949,28.095 170.542,28.489C170.138,28.883 169.595,29.08 168.911,29.08C168.53,29.08 168.158,28.999 167.793,28.836C167.428,28.673 167.15,28.45 166.958,28.167L167.427,27.625C167.814,28.104 168.288,28.343 168.848,28.343C169.287,28.343 169.629,28.219 169.873,27.972C170.12,27.724 170.244,27.376 170.244,26.927L170.244,26.473C169.883,26.889 169.39,27.098 168.765,27.098C168.146,27.098 167.645,26.849 167.261,26.351C166.88,25.853 166.689,25.174 166.689,24.315ZM167.598,24.417C167.598,25.013 167.72,25.481 167.964,25.823C168.208,26.162 168.55,26.331 168.989,26.331C169.559,26.331 169.977,26.072 170.244,25.555L170.244,23.143C169.967,22.638 169.552,22.386 168.999,22.386C168.56,22.386 168.216,22.557 167.969,22.898C167.721,23.24 167.598,23.746 167.598,24.417ZM173.374,21.717L173.403,22.381C173.807,21.873 174.334,21.619 174.985,21.619C176.102,21.619 176.665,22.249 176.675,23.509L176.675,27L175.771,27L175.771,23.504C175.768,23.123 175.68,22.842 175.508,22.659C175.339,22.477 175.073,22.386 174.712,22.386C174.419,22.386 174.162,22.464 173.94,22.62C173.719,22.776 173.547,22.981 173.423,23.235L173.423,27L172.52,27L172.52,21.717L173.374,21.717ZM183.779,27C183.727,26.896 183.685,26.71 183.652,26.443C183.232,26.88 182.731,27.098 182.148,27.098C181.628,27.098 181.2,26.951 180.864,26.658C180.532,26.362 180.366,25.988 180.366,25.535C180.366,24.985 180.575,24.559 180.991,24.256C181.411,23.95 182,23.797 182.759,23.797L183.638,23.797L183.638,23.382C183.638,23.066 183.543,22.815 183.354,22.63C183.166,22.441 182.887,22.347 182.52,22.347C182.197,22.347 181.927,22.428 181.709,22.591C181.491,22.754 181.382,22.951 181.382,23.182L180.474,23.182C180.474,22.918 180.566,22.664 180.752,22.42C180.941,22.173 181.195,21.977 181.514,21.834C181.836,21.691 182.189,21.619 182.573,21.619C183.182,21.619 183.659,21.772 184.004,22.078C184.349,22.381 184.528,22.799 184.541,23.333L184.541,25.765C184.541,26.25 184.603,26.635 184.727,26.922L184.727,27L183.779,27ZM182.28,26.312C182.563,26.312 182.832,26.238 183.086,26.092C183.34,25.945 183.524,25.755 183.638,25.52L183.638,24.437L182.93,24.437C181.823,24.437 181.27,24.76 181.27,25.408C181.27,25.691 181.364,25.913 181.553,26.072C181.742,26.232 181.984,26.312 182.28,26.312ZM186.812,21.717L186.841,22.381C187.244,21.873 187.772,21.619 188.423,21.619C189.539,21.619 190.103,22.249 190.112,23.509L190.112,27L189.209,27L189.209,23.504C189.206,23.123 189.118,22.842 188.945,22.659C188.776,22.477 188.511,22.386 188.149,22.386C187.856,22.386 187.599,22.464 187.378,22.62C187.157,22.776 186.984,22.981 186.86,23.235L186.86,27L185.957,27L185.957,21.717L186.812,21.717ZM191.255,24.315C191.255,23.504 191.447,22.853 191.831,22.361C192.215,21.866 192.718,21.619 193.34,21.619C193.958,21.619 194.448,21.831 194.81,22.254L194.81,19.5L195.713,19.5L195.713,27L194.883,27L194.839,26.434C194.478,26.876 193.975,27.098 193.33,27.098C192.718,27.098 192.218,26.847 191.831,26.346C191.447,25.844 191.255,25.19 191.255,24.383L191.255,24.315ZM192.158,24.417C192.158,25.016 192.282,25.485 192.529,25.823C192.777,26.162 193.118,26.331 193.555,26.331C194.128,26.331 194.546,26.074 194.81,25.56L194.81,23.133C194.539,22.635 194.124,22.386 193.564,22.386C193.122,22.386 192.777,22.557 192.529,22.898C192.282,23.24 192.158,23.746 192.158,24.417ZM203.76,23.714L200.679,23.714L200.679,26.233L204.258,26.233L204.258,27L199.741,27L199.741,19.891L204.209,19.891L204.209,20.662L200.679,20.662L200.679,22.947L203.76,22.947L203.76,23.714ZM206.138,21.717L206.167,22.381C206.571,21.873 207.098,21.619 207.749,21.619C208.866,21.619 209.429,22.249 209.438,23.509L209.438,27L208.535,27L208.535,23.504C208.532,23.123 208.444,22.842 208.271,22.659C208.102,22.477 207.837,22.386 207.476,22.386C207.183,22.386 206.925,22.464 206.704,22.62C206.483,22.776 206.31,22.981 206.187,23.235L206.187,27L205.283,27L205.283,21.717L206.138,21.717ZM210.586,24.315C210.586,23.491 210.776,22.837 211.157,22.352C211.538,21.863 212.043,21.619 212.671,21.619C213.315,21.619 213.818,21.847 214.18,22.303L214.224,21.717L215.049,21.717L215.049,26.873C215.049,27.557 214.845,28.095 214.438,28.489C214.035,28.883 213.491,29.08 212.808,29.08C212.427,29.08 212.054,28.999 211.689,28.836C211.325,28.673 211.047,28.45 210.854,28.167L211.323,27.625C211.711,28.104 212.184,28.343 212.744,28.343C213.184,28.343 213.525,28.219 213.77,27.972C214.017,27.724 214.141,27.376 214.141,26.927L214.141,26.473C213.779,26.889 213.286,27.098 212.661,27.098C212.043,27.098 211.541,26.849 211.157,26.351C210.776,25.853 210.586,25.174 210.586,24.315ZM211.494,24.417C211.494,25.013 211.616,25.481 211.86,25.823C212.104,26.162 212.446,26.331 212.886,26.331C213.455,26.331 213.874,26.072 214.141,25.555L214.141,23.143C213.864,22.638 213.449,22.386 212.896,22.386C212.456,22.386 212.113,22.557 211.865,22.898C211.618,23.24 211.494,23.746 211.494,24.417ZM217.397,27L216.494,27L216.494,21.717L217.397,21.717L217.397,27ZM216.421,20.315C216.421,20.169 216.465,20.045 216.553,19.944C216.644,19.843 216.777,19.793 216.953,19.793C217.129,19.793 217.262,19.843 217.354,19.944C217.445,20.045 217.49,20.169 217.49,20.315C217.49,20.462 217.445,20.584 217.354,20.682C217.262,20.779 217.129,20.828 216.953,20.828C216.777,20.828 216.644,20.779 216.553,20.682C216.465,20.584 216.421,20.462 216.421,20.315ZM219.702,21.717L219.731,22.381C220.135,21.873 220.662,21.619 221.313,21.619C222.43,21.619 222.993,22.249 223.003,23.509L223.003,27L222.1,27L222.1,23.504C222.096,23.123 222.008,22.842 221.836,22.659C221.667,22.477 221.401,22.386 221.04,22.386C220.747,22.386 220.49,22.464 220.269,22.62C220.047,22.776 219.875,22.981 219.751,23.235L219.751,27L218.848,27L218.848,21.717L219.702,21.717ZM226.558,27.098C225.841,27.098 225.259,26.863 224.81,26.395C224.36,25.923 224.136,25.293 224.136,24.505L224.136,24.339C224.136,23.815 224.235,23.348 224.434,22.938C224.635,22.524 224.915,22.202 225.273,21.971C225.635,21.736 226.025,21.619 226.445,21.619C227.132,21.619 227.666,21.845 228.047,22.298C228.428,22.75 228.618,23.398 228.618,24.241L228.618,24.617L225.039,24.617C225.052,25.138 225.203,25.56 225.493,25.882C225.786,26.201 226.157,26.36 226.606,26.36C226.925,26.36 227.196,26.295 227.417,26.165C227.638,26.035 227.832,25.862 227.998,25.648L228.55,26.077C228.107,26.758 227.443,27.098 226.558,27.098ZM226.445,22.361C226.081,22.361 225.775,22.495 225.527,22.762C225.28,23.025 225.127,23.397 225.068,23.875L227.715,23.875L227.715,23.807C227.689,23.348 227.565,22.993 227.344,22.742C227.122,22.488 226.823,22.361 226.445,22.361ZM231.86,27.098C231.144,27.098 230.562,26.863 230.112,26.395C229.663,25.923 229.438,25.293 229.438,24.505L229.438,24.339C229.438,23.815 229.538,23.348 229.736,22.938C229.938,22.524 230.218,22.202 230.576,21.971C230.938,21.736 231.328,21.619 231.748,21.619C232.435,21.619 232.969,21.845 233.35,22.298C233.73,22.75 233.921,23.398 233.921,24.241L233.921,24.617L230.342,24.617C230.355,25.138 230.506,25.56 230.796,25.882C231.089,26.201 231.46,26.36 231.909,26.36C232.228,26.36 232.498,26.295 232.72,26.165C232.941,26.035 233.135,25.862 233.301,25.648L233.853,26.077C233.41,26.758 232.746,27.098 231.86,27.098ZM231.748,22.361C231.383,22.361 231.077,22.495 230.83,22.762C230.583,23.025 230.43,23.397 230.371,23.875L233.018,23.875L233.018,23.807C232.992,23.348 232.868,22.993 232.646,22.742C232.425,22.488 232.126,22.361 231.748,22.361ZM237.524,22.527C237.388,22.505 237.24,22.493 237.08,22.493C236.488,22.493 236.086,22.745 235.874,23.25L235.874,27L234.971,27L234.971,21.717L235.85,21.717L235.864,22.327C236.16,21.855 236.58,21.619 237.124,21.619C237.3,21.619 237.433,21.642 237.524,21.688L237.524,22.527ZM239.341,27L238.438,27L238.438,21.717L239.341,21.717L239.341,27ZM238.364,20.315C238.364,20.169 238.408,20.045 238.496,19.944C238.587,19.843 238.721,19.793 238.896,19.793C239.072,19.793 239.206,19.843 239.297,19.944C239.388,20.045 239.434,20.169 239.434,20.315C239.434,20.462 239.388,20.584 239.297,20.682C239.206,20.779 239.072,20.828 238.896,20.828C238.721,20.828 238.587,20.779 238.496,20.682C238.408,20.584 238.364,20.462 238.364,20.315ZM241.646,21.717L241.675,22.381C242.078,21.873 242.606,21.619 243.257,21.619C244.373,21.619 244.937,22.249 244.946,23.509L244.946,27L244.043,27L244.043,23.504C244.04,23.123 243.952,22.842 243.779,22.659C243.61,22.477 243.345,22.386 242.983,22.386C242.69,22.386 242.433,22.464 242.212,22.62C241.991,22.776 241.818,22.981 241.694,23.235L241.694,27L240.791,27L240.791,21.717L241.646,21.717ZM246.094,24.315C246.094,23.491 246.284,22.837 246.665,22.352C247.046,21.863 247.55,21.619 248.179,21.619C248.823,21.619 249.326,21.847 249.688,22.303L249.731,21.717L250.557,21.717L250.557,26.873C250.557,27.557 250.353,28.095 249.946,28.489C249.543,28.883 248.999,29.08 248.315,29.08C247.935,29.08 247.562,28.999 247.197,28.836C246.833,28.673 246.554,28.45 246.362,28.167L246.831,27.625C247.218,28.104 247.692,28.343 248.252,28.343C248.691,28.343 249.033,28.219 249.277,27.972C249.525,27.724 249.648,27.376 249.648,26.927L249.648,26.473C249.287,26.889 248.794,27.098 248.169,27.098C247.55,27.098 247.049,26.849 246.665,26.351C246.284,25.853 246.094,25.174 246.094,24.315ZM247.002,24.417C247.002,25.013 247.124,25.481 247.368,25.823C247.612,26.162 247.954,26.331 248.394,26.331C248.963,26.331 249.382,26.072 249.648,25.555L249.648,23.143C249.372,22.638 248.957,22.386 248.403,22.386C247.964,22.386 247.62,22.557 247.373,22.898C247.126,23.24 247.002,23.746 247.002,24.417Z" style="fill:rgb(50,50,50);fill-rule:nonzero;"/>
    </g>
    <g transform="matrix(1.4118,0,0,1.4118,23.3957,21.2523)">
        <path d="M259.528,20.417C259.742,20.187 260.06,20.154 260.238,20.344L262.366,22.625L264.493,20.344C264.671,20.154 264.989,20.187 265.204,20.417C265.418,20.647 265.448,20.988 265.271,21.178L263.143,23.458L265.271,25.739C265.448,25.929 265.418,26.27 265.203,26.5C264.989,26.73 264.671,26.763 264.493,26.572L262.366,24.292L260.238,26.572C260.06,26.763 259.743,26.73 259.528,26.5C259.313,26.27 259.283,25.929 259.46,25.739L261.588,23.458L259.46,21.178C259.283,20.988 259.313,20.647 259.528,20.417Z" style="fill:rgb(115,115,115);"/>
    </g>
    <g transform="matrix(1.4118,0,0,1.4118,23.3957,21.2523)">
        <circle cx="77.5" cy="24.5" r="4.5" style="fill:rgb(192,24,37);"/>
    </g>
    <g transform="matrix(1.4118,0,0,1.4118,23.3957,21.2523)">
        <path d="M49.421,80.088L46.066,76.719C44.645,75.292 44.645,72.985 46.066,71.574L75.431,42.07C76.851,40.643 79.149,40.643 80.554,42.07L109.935,71.574C111.355,73 111.355,75.307 109.935,76.719L106.579,80.088C105.144,81.53 102.801,81.5 101.396,80.027L84.045,61.739L84.045,105.357C84.045,107.376 82.428,109 80.418,109L75.582,109C73.572,109 71.955,107.376 71.955,105.357L71.955,61.739L54.605,80.027C53.199,81.515 50.856,81.545 49.421,80.088Z" style="fill:rgb(49,113,172);fill-rule:nonzero;"/>
    </g>
</svg>
