<svg style="background: white" data-name="Layer 1" xmlns="http://www.w3.org/2000/svg" width="42" height="42" viewBox="0 0 150 150"><title>Procki Avatar</title>
  <g fill="#00b3e3">
    <path d="M150 0v150H0V0zm-42.3 23c1-1.12 1-2.5 1-4 0-1.91-.23-3.14-1.7-2.55 0 0-22.6 9.7-33.38 9.7s-33.38-9.7-33.38-9.7c-1.46-.59-1.7.64-1.7 2.55 0 1.52.06 2.9 1 4l4.72 5.6a18.8 18.8 0 0 0 24.2 28.65l4.17 5.11a1.23 1.23 0 0 0 1 .41 1.22 1.22 0 0 0 1-.41L76 60.55l2.73-3.34a18.62 18.62 0 0 0 11.06 3.63A18.8 18.8 0 0 0 103 28.56zm3.75 106.47c-2.67-.46-5.09-2.62-5.23-8.81v-56.1H95.9v34.75c0 13.37-8.89 24.24-22.49 24.14-13.39-.1-21.93-11.51-21.93-24.89V71.89a7.33 7.33 0 0 0-7.32-7.33h-3v34.75c0 19.32 14 35 33.62 34.43 9.11-.25 15.2-4.16 21.17-10.23a9.63 9.63 0 0 0 2.48 6.54c3.57 3.95 10.65 3.34 13.03-.62z"/>
    <path d="M89.85 28.83A13.19 13.19 0 1 1 76.67 42a13.18 13.18 0 0 1 13.18-13.17zM98 42a8.12 8.12 0 1 0-8.12 8.12A8.11 8.11 0 0 0 98 42zM73.63 53.24v5.3a.13.13 0 0 1 0 .09l-2.33-2.78a18 18 0 0 0 2.33-2.61z"/>
    <path d="M73.63 51.55v1.69a18 18 0 0 1-2.34 2.59l2.33 2.78a.28.28 0 0 1-.5.1l-2.67-3.17-.13-.16a19.09 19.09 0 0 0 3.31-3.83zM57.41 28.83A13.19 13.19 0 1 1 44.23 42a13.19 13.19 0 0 1 13.18-13.17zM65.52 42a8.11 8.11 0 1 0-8.11 8.12A8.11 8.11 0 0 0 65.52 42z"/>
  </g></svg>