<svg width="42" height="42" viewBox="0 0 42 42" fill="none" xmlns="http://www.w3.org/2000/svg">
<path d="M21 42C32.598 42 42 32.598 42 21C42 9.40202 32.598 0 21 0C9.40202 0 0 9.40202 0 21C0 32.598 9.40202 42 21 42Z" fill="white"/>
<mask id="path-2-inside-1" fill="white">
<path fill-rule="evenodd" clip-rule="evenodd" d="M22.6384 14.1312C23.5393 13.0849 23.4214 11.5064 22.3751 10.6055C21.3287 9.70463 19.7502 9.82255 18.8493 10.8689L11.6055 19.2823C10.7982 20.22 10.7982 21.6071 11.6055 22.5447L18.8493 30.9582C19.7502 32.0045 21.3287 32.1224 22.3751 31.2215C23.4214 30.3207 23.5393 28.7421 22.6384 27.6958L18.9514 23.4135H29.1951C30.5758 23.4135 31.6951 22.2942 31.6951 20.9135C31.6951 19.5328 30.5758 18.4135 29.1951 18.4135H18.9514L22.6384 14.1312Z"/>
</mask>
<path fill-rule="evenodd" clip-rule="evenodd" d="M22.6384 14.1312C23.5393 13.0849 23.4214 11.5064 22.3751 10.6055C21.3287 9.70463 19.7502 9.82255 18.8493 10.8689L11.6055 19.2823C10.7982 20.22 10.7982 21.6071 11.6055 22.5447L18.8493 30.9582C19.7502 32.0045 21.3287 32.1224 22.3751 31.2215C23.4214 30.3207 23.5393 28.7421 22.6384 27.6958L18.9514 23.4135H29.1951C30.5758 23.4135 31.6951 22.2942 31.6951 20.9135C31.6951 19.5328 30.5758 18.4135 29.1951 18.4135H18.9514L22.6384 14.1312Z" fill="#0FB5DF"/>
<path d="M22.3751 10.6055L1.49605 34.8556L1.49606 34.8556L22.3751 10.6055ZM22.6384 14.1312L46.8885 35.0102L46.8885 35.0102L22.6384 14.1312ZM18.8493 10.8689L43.0994 31.7479L43.0995 31.7479L18.8493 10.8689ZM11.6055 19.2823L35.8556 40.1613L35.8556 40.1613L11.6055 19.2823ZM11.6055 22.5447L35.8556 1.66568L35.8556 1.66568L11.6055 22.5447ZM18.8493 30.9582L43.0995 10.0792L43.0994 10.0792L18.8493 30.9582ZM22.3751 31.2215L1.49607 6.97142L1.49605 6.97143L22.3751 31.2215ZM22.6384 27.6958L-1.61167 48.5748L-1.61167 48.5748L22.6384 27.6958ZM18.9514 23.4135V-8.58647C6.44168 -8.58647 -4.92103 -1.29679 -10.1357 10.0743C-15.3505 21.4453 -13.4609 34.8124 -5.29866 44.2925L18.9514 23.4135ZM18.9514 18.4135L-5.29868 -2.46548C-13.4609 7.01461 -15.3505 20.3817 -10.1358 31.7528C-4.92105 43.1238 6.44166 50.4135 18.9514 50.4135L18.9514 18.4135ZM1.49606 34.8556C-10.8506 24.2253 -12.2419 5.59883 -1.61167 -6.74779L46.8885 35.0102C59.3205 20.5709 57.6934 -1.21256 43.2541 -13.6446L1.49606 34.8556ZM43.0995 31.7479C32.4692 44.0945 13.8427 45.4859 1.49605 34.8556L43.2541 -13.6446C28.8148 -26.0766 7.03127 -24.4494 -5.40076 -10.0101L43.0995 31.7479ZM35.8556 40.1613L43.0994 31.7479L-5.40075 -10.0101L-12.6446 -1.59666L35.8556 40.1613ZM35.8556 1.66568C45.3815 12.7296 45.3815 29.0974 35.8556 40.1613L-12.6446 -1.59666C-23.7851 11.3425 -23.7851 30.4845 -12.6446 43.4237L35.8556 1.66568ZM43.0994 10.0792L35.8556 1.66568L-12.6446 43.4237L-5.40075 51.8372L43.0994 10.0792ZM1.49605 6.97143C13.8427 -3.65884 32.4692 -2.2675 43.0995 10.0792L-5.40077 51.8371C7.03128 66.2765 28.8148 67.9036 43.2541 55.4716L1.49605 6.97143ZM-1.61167 48.5748C-12.242 36.2282 -10.8506 17.6017 1.49607 6.97142L43.254 55.4716C57.6934 43.0396 59.3205 21.2561 46.8885 6.8168L-1.61167 48.5748ZM-5.29866 44.2925L-1.61167 48.5748L46.8885 6.81681L43.2015 2.53452L-5.29866 44.2925ZM29.1951 -8.58647H18.9514V55.4135H29.1951V-8.58647ZM-0.304932 20.9135C-0.304932 4.62113 12.9027 -8.58647 29.1951 -8.58647V55.4135C48.2489 55.4135 63.6951 39.9673 63.6951 20.9135H-0.304932ZM29.1951 50.4135C12.9027 50.4135 -0.304932 37.2059 -0.304932 20.9135H63.6951C63.6951 1.85971 48.2489 -13.5865 29.1951 -13.5865V50.4135ZM18.9514 50.4135H29.1951V-13.5865H18.9514V50.4135ZM-1.61167 -6.74779L-5.29868 -2.46548L43.2015 39.2925L46.8885 35.0102L-1.61167 -6.74779Z" fill="#0FB5DF" mask="url(#path-2-inside-1)"/>
</svg>
