<?xml version="1.0" encoding="utf-8"?>
<!-- Generator: Adobe Illustrator 21.1.0, SVG Export Plug-In . SVG Version: 6.00 Build 0)  -->
<svg version="1.1" id="Layer_1" xmlns="http://www.w3.org/2000/svg" xmlns:xlink="http://www.w3.org/1999/xlink" x="0px" y="0px"
	 viewBox="0 0 42 42" style="enable-background:new 0 0 42 42;" xml:space="preserve">
<style type="text/css">
	.st0{fill:#FFFFFF;}
	.st1{fill:#0FB5DF;}
</style>
<circle class="st0" cx="21" cy="21" r="21"/>
<g>
	<g>
		<path class="st1" d="M31,26.8c0,0.3-0.1,0.6-0.3,0.8l-2.8,2.8c-0.1,0.1-0.3,0.3-0.5,0.4c-0.2,0.1-0.4,0.2-0.6,0.2c0,0-0.1,0-0.1,0
			c-0.1,0-0.2,0-0.3,0c-0.3,0-0.7,0-1.3-0.1c-0.6-0.1-1.3-0.3-2.2-0.7c-0.9-0.4-1.9-0.9-3-1.6c-1.1-0.7-2.3-1.7-3.5-3
			c-1-1-1.8-1.9-2.5-2.8c-0.6-0.9-1.2-1.7-1.6-2.5c-0.4-0.8-0.7-1.4-0.9-2.1c-0.2-0.6-0.3-1.1-0.4-1.6c-0.1-0.4-0.1-0.8-0.1-1
			c0-0.3,0-0.4,0-0.4c0-0.2,0.1-0.4,0.2-0.6c0.1-0.2,0.2-0.4,0.4-0.5l2.8-2.8c0.2-0.2,0.4-0.3,0.7-0.3c0.2,0,0.3,0.1,0.5,0.2
			c0.1,0.1,0.3,0.2,0.4,0.4l2.3,4.3c0.1,0.2,0.2,0.5,0.1,0.7c-0.1,0.3-0.2,0.5-0.4,0.7l-1,1c0,0-0.1,0.1-0.1,0.1c0,0.1,0,0.1,0,0.2
			c0.1,0.3,0.2,0.6,0.4,1c0.2,0.3,0.4,0.8,0.8,1.2c0.4,0.5,0.9,1,1.5,1.7c0.6,0.6,1.2,1.2,1.7,1.5c0.5,0.4,0.9,0.6,1.2,0.8
			c0.3,0.2,0.6,0.3,0.8,0.3l0.3,0.1c0,0,0.1,0,0.1,0c0.1,0,0.1,0,0.1-0.1l1.2-1.2c0.3-0.2,0.6-0.3,0.9-0.3c0.2,0,0.4,0,0.6,0.1h0
			l4.1,2.4C30.8,26.3,31,26.5,31,26.8L31,26.8z M31,26.8"/>
	</g>
</g>
</svg>
