<svg id="Layer_1" data-name="Layer 1" xmlns="http://www.w3.org/2000/svg" xmlns:xlink="http://www.w3.org/1999/xlink" viewBox="0 0 362.08 204.13"><defs><style>.cls-1,.cls-8{fill:none;}.cls-2{clip-path:url(#clip-path);}.cls-3,.cls-5{fill:#fff;}.cls-4{fill:#d6eaf6;opacity:0.72;}.cls-4,.cls-7{isolation:isolate;}.cls-5,.cls-8{stroke:#0073b1;stroke-miterlimit:10;stroke-width:3px;}.cls-6{fill:#cce5f4;}.cls-7{fill:#66aad0;opacity:0.15;}.cls-9{fill:#0073b1;}</style><clipPath id="clip-path" transform="translate(0.12 0.07)"><rect class="cls-1" width="361.86" height="204.06"/></clipPath></defs><title>computer-overview</title><g class="cls-2"><rect class="cls-3" x="0.12" y="0.07" width="361.86" height="204.06"/><path class="cls-4" d="M339.87,203.69a164.23,164.23,0,1,0-318.79,0Z" transform="translate(0.12 0.07)"/><path class="cls-5" d="M345,8.26h-328A15.46,15.46,0,0,0,3.72,31.77l27.36,45a14.9,14.9,0,0,0,12.77,7.13H318a14.89,14.89,0,0,0,12.75-7.16l27.39-45A15.45,15.45,0,0,0,345,8.26Z" transform="translate(0.12 0.07)"/><path class="cls-3" d="M351.61,17.29H9.74A8.12,8.12,0,0,0,5.5,18.42,8.29,8.29,0,0,0,2.66,30L27.57,70.11H334l25.1-39.2a8.85,8.85,0,0,0-7.45-13.62Z" transform="translate(0.12 0.07)"/><path class="cls-6" d="M128.31,70.11,181,17.29l168.68-1.06a10.25,10.25,0,0,1,10.3,10.58A10.15,10.15,0,0,1,358.33,32L334,70.11Z" transform="translate(0.12 0.07)"/><path class="cls-7" d="M299.58,90.41c0-4.85-52.77-8.78-117.86-8.78S63.86,85.56,63.86,90.41c0,3.61,29.38,6.71,71.35,8.06l-.38,4.15a20.24,20.24,0,0,0,1,8.21,20.07,20.07,0,0,0,19,13.65h51.75a20.07,20.07,0,0,0,19-13.65,20.24,20.24,0,0,0,1-8.21l-.38-4.09C269.22,97.22,299.58,94,299.58,90.41Z" transform="translate(0.12 0.07)"/><path class="cls-7" d="M241.85,141.52H119.33a4,4,0,0,0-4,4V191.1a4,4,0,0,0,4,4H241.85a4,4,0,0,0,4-4V145.52A4,4,0,0,0,241.85,141.52Z" transform="translate(0.12 0.07)"/><path class="cls-5" d="M222.52,99.47l-1.37-15.58H140.26l-1.41,15.55a18.31,18.31,0,0,0,18.22,20H204.3A18.33,18.33,0,0,0,221.63,107,18.41,18.41,0,0,0,222.52,99.47Z" transform="translate(0.12 0.07)"/><path class="cls-5" d="M238.66,136.23H122.53a4,4,0,0,0-4,4v45.58a4,4,0,0,0,4,4H238.66a4,4,0,0,0,4-4V140.23A4,4,0,0,0,238.66,136.23Z" transform="translate(0.12 0.07)"/><path class="cls-8" d="M148.28,175.93h64.85" transform="translate(0.12 0.07)"/><path class="cls-8" d="M130.18,175.93h12.13" transform="translate(0.12 0.07)"/><path class="cls-8" d="M130.18,163h12.13" transform="translate(0.12 0.07)"/><path class="cls-8" d="M130.18,149.93h12.13" transform="translate(0.12 0.07)"/><path class="cls-8" d="M148.28,163H160.4" transform="translate(0.12 0.07)"/><path class="cls-8" d="M148.28,149.93H160.4" transform="translate(0.12 0.07)"/><path class="cls-8" d="M166.38,163h12.13" transform="translate(0.12 0.07)"/><path class="cls-8" d="M166.38,149.93h12.13" transform="translate(0.12 0.07)"/><path class="cls-8" d="M183.26,163h12.12" transform="translate(0.12 0.07)"/><path class="cls-8" d="M183.26,149.93h12.12" transform="translate(0.12 0.07)"/><path class="cls-8" d="M201.35,163h12.14" transform="translate(0.12 0.07)"/><path class="cls-8" d="M201.35,149.93h12.14" transform="translate(0.12 0.07)"/><path class="cls-8" d="M219.45,163h12.14" transform="translate(0.12 0.07)"/><path class="cls-8" d="M219.45,176.12h12.14" transform="translate(0.12 0.07)"/><path class="cls-7" d="M318.49,176.37a14.44,14.44,0,0,0-27.06-10.07l-6.81,18.29a14.44,14.44,0,0,0,27.07,10.07Z" transform="translate(0.12 0.07)"/><path class="cls-8" d="M219.45,149.93h12.14" transform="translate(0.12 0.07)"/><path class="cls-5" d="M316.53,171.83a14.44,14.44,0,0,0-27.07-10.07L282.66,180a14.44,14.44,0,0,0,27.07,10.07Z" transform="translate(0.12 0.07)"/><path class="cls-9" d="M303,168.09a2.82,2.82,0,1,0-2.81-2.81A2.81,2.81,0,0,0,303,168.09Z" transform="translate(0.12 0.07)"/><path class="cls-8" d="M351.61,17.29H9.74A8.12,8.12,0,0,0,5.5,18.42,8.29,8.29,0,0,0,2.66,30L27.57,70.11H334l25.1-39.2a8.85,8.85,0,0,0-7.45-13.62Z" transform="translate(0.12 0.07)"/></g></svg>