<svg xmlns="http://www.w3.org/2000/svg" width="78" height="59" viewBox="0 0 78 59"><desc>  Created with Sketch.</desc><g fill="none"><g fill="#485056"><path d="M39 38.2C39 39.8 38.5 41.2 37.6 42.3 36.7 43.3 35.5 43.9 34.1 43.9L14.6 43.9C13.3 43.9 12.1 43.3 11.2 42.3 10.2 41.2 9.8 39.8 9.8 38.2 9.8 36.6 9.9 35.1 10.1 33.7 10.3 32.4 10.7 31.1 11.2 29.8 11.7 28.5 12.5 27.6 13.5 26.8 14.5 26.1 15.8 25.7 17.2 25.7 17.4 25.8 17.7 26.1 18.4 26.4 19 26.8 19.4 27.1 19.8 27.3 20.1 27.4 20.6 27.7 21.1 27.9 21.7 28.2 22.2 28.4 22.8 28.5 23.3 28.6 23.8 28.6 24.4 28.6 24.9 28.6 25.4 28.6 26 28.5 26.5 28.4 27.1 28.2 27.6 27.9 28.2 27.7 28.6 27.4 29 27.3 29.3 27.1 29.8 26.8 30.4 26.4 31 26.1 31.4 25.8 31.5 25.7 33 25.7 34.2 26.1 35.2 26.8 36.2 27.6 37 28.5 37.5 29.8 38.1 31.1 38.4 32.4 38.7 33.7 38.9 35.1 39 36.6 39 38.2ZM33 18.4C33 20.8 32.2 22.8 30.5 24.5 28.8 26.2 26.8 27 24.4 27 22 27 20 26.2 18.3 24.5 16.6 22.8 15.7 20.8 15.7 18.4 15.7 16 16.6 14 18.3 12.3 20 10.6 22 9.8 24.4 9.8 26.8 9.8 28.8 10.6 30.5 12.3 32.2 14 33 16 33 18.4ZM68.3 35.3L68.3 37.8C68.3 38.1 68.1 38.4 67.9 38.7 67.7 38.9 67.4 39 67 39L45.1 39C44.7 39 44.4 38.9 44.2 38.7 44 38.4 43.9 38.1 43.9 37.8L43.9 35.3C43.9 35 44 34.7 44.2 34.5 44.4 34.2 44.7 34.1 45.1 34.1L67 34.1C67.4 34.1 67.7 34.2 67.9 34.5 68.1 34.7 68.3 35 68.3 35.3ZM68.3 25.7L68.3 27.9C68.3 28.3 68.1 28.6 67.9 28.9 67.6 29.1 67.3 29.3 66.9 29.3L45.2 29.3C44.9 29.3 44.5 29.1 44.3 28.9 44 28.6 43.9 28.3 43.9 27.9L43.9 25.7C43.9 25.4 44 25 44.3 24.8 44.5 24.5 44.9 24.4 45.2 24.4L66.9 24.4C67.3 24.4 67.6 24.5 67.9 24.8 68.1 25 68.3 25.4 68.3 25.7ZM68.3 15.8L68.3 18.3C68.3 18.6 68.1 18.9 67.9 19.2 67.7 19.4 67.4 19.5 67 19.5L45.1 19.5C44.7 19.5 44.4 19.4 44.2 19.2 44 18.9 43.9 18.6 43.9 18.3L43.9 15.8C43.9 15.5 44 15.2 44.2 15 44.4 14.7 44.7 14.6 45.1 14.6L67 14.6C67.4 14.6 67.7 14.7 67.9 15 68.1 15.2 68.3 15.5 68.3 15.8ZM73.1 52.4L73.1 6.1C73.1 5.8 73 5.5 72.8 5.2 72.5 5 72.2 4.9 71.9 4.9L6.1 4.9C5.8 4.9 5.5 5 5.2 5.2 5 5.5 4.9 5.8 4.9 6.1L4.9 52.4C4.9 52.7 5 53 5.2 53.3 5.5 53.5 5.8 53.6 6.1 53.6L19.5 53.6 19.5 50C19.5 49.6 19.6 49.3 19.8 49.1 20.1 48.9 20.4 48.8 20.7 48.8L23.2 48.8C23.5 48.8 23.8 48.9 24 49.1 24.3 49.3 24.4 49.6 24.4 50L24.4 53.6 53.6 53.6 53.6 50C53.6 49.6 53.7 49.3 54 49.1 54.2 48.9 54.5 48.8 54.8 48.8L57.3 48.8C57.6 48.8 57.9 48.9 58.2 49.1 58.4 49.3 58.5 49.6 58.5 50L58.5 53.6 71.9 53.6C72.2 53.6 72.5 53.5 72.8 53.3 73 53 73.1 52.7 73.1 52.4ZM78 6.1L78 52.4C78 54.1 77.4 55.5 76.2 56.7 75 57.9 73.6 58.5 71.9 58.5L6.1 58.5C4.4 58.5 3 57.9 1.8 56.7 0.6 55.5 0 54.1 0 52.4L0 6.1C0 4.4 0.6 3 1.8 1.8 3 0.6 4.4 0 6.1 0L71.9 0C73.6 0 75 0.6 76.2 1.8 77.4 3 78 4.4 78 6.1Z"/></g></g></svg>