<svg width="204" height="95" viewBox="0 0 204 95" xmlns="http://www.w3.org/2000/svg" xmlns:xlink="http://www.w3.org/1999/xlink">
  <g id="13.-ID-Check" fill="none" fill-rule="evenodd" transform="translate(-534 -356)">
    <g id="Group-3" transform="translate(242 242)">
      <g id="license-check-2" transform="translate(274 70)">
        <g id="id-check-right">
          <g id="Group-5" transform="translate(19 45)">
            <path id="-copy-2" fill="#00B4E0" d="M31.3333333,52.1692708 C31.3333333,53.4939302 30.9535628,54.6302036 30.1940104,55.578125 C29.434458,56.5260464 28.5199706,57 27.4505208,57 L11.8828125,57 C10.8133627,57 9.89887533,56.5260464 9.13932292,55.578125 C8.37977051,54.6302036 8,53.4939302 8,52.1692708 C8,51.1362796 8.05164879,50.1610289 8.15494792,49.2434896 C8.25824704,48.3259503 8.44965138,47.4023484 8.72916667,46.4726562 C9.00868195,45.5429641 9.36414715,44.7469651 9.79557292,44.0846354 C10.2269987,43.4223057 10.7981735,42.8815125 11.5091146,42.4622396 C12.2200556,42.0429667 13.0373218,41.8333333 13.9609375,41.8333333 C15.5529593,43.3888967 17.4548501,44.1666667 19.6666667,44.1666667 C21.8784833,44.1666667 23.780374,43.3888967 25.3723958,41.8333333 C26.2960116,41.8333333 27.1132777,42.0429667 27.8242187,42.4622396 C28.5351598,42.8815125 29.1063346,43.4223057 29.5377604,44.0846354 C29.9691862,44.7469651 30.3246514,45.5429641 30.6041667,46.4726562 C30.883682,47.4023484 31.0750863,48.3259503 31.1783854,49.2434896 C31.2816845,50.1610289 31.3333333,51.1362796 31.3333333,52.1692708 Z M26.6666667,36 C26.6666667,37.9323013 25.9830798,39.5820244 24.6158854,40.9492187 C23.2486911,42.3164131 21.598968,43 19.6666667,43 C17.7343653,43 16.0846423,42.3164131 14.7174479,40.9492187 C13.3502536,39.5820244 12.6666667,37.9323013 12.6666667,36 C12.6666667,34.0676987 13.3502536,32.4179756 14.7174479,31.0507812 C16.0846423,29.6835869 17.7343653,29 19.6666667,29 C21.598968,29 23.2486911,29.6835869 24.6158854,31.0507812 C25.9830798,32.4179756 26.6666667,34.0676987 26.6666667,36 Z"/>
            <g id="Group-2-Copy-2" stroke="#00B4E0" stroke-width="2">
              <g id="Group">
                <polyline id="Path-3-Copy" points="12.992 0 0 0 0 14.055"/>
              </g>
              <g id="Group-Copy" transform="matrix(-1 0 0 1 202 0)">
                <polyline id="Path-3-Copy" points="12.992 0 0 0 0 14.055"/>
              </g>
            </g>
            <g id="Group-2-Copy-3" stroke="#00B4E0" stroke-width="2" transform="rotate(180 101 46.5)">
              <g id="Group">
                <polyline id="Path-3-Copy" points="12.992 0 0 0 0 14.055"/>
              </g>
              <g id="Group-Copy" transform="matrix(-1 0 0 1 202 0)">
                <polyline id="Path-3-Copy" points="12.992 0 0 0 0 14.055"/>
              </g>
            </g>
          </g>
        </g>
      </g>
    </g>
  </g>
</svg>
