<svg width="204" height="139" viewBox="0 0 204 139" xmlns="http://www.w3.org/2000/svg" xmlns:xlink="http://www.w3.org/1999/xlink">
  <g id="13.-ID-Check" fill="none" fill-rule="evenodd" transform="translate(-295 -334)">
    <g id="Group-3" transform="translate(242 242)">
      <g id="license-check-1" transform="translate(30 70)">
        <g id="id-check-left">
          <g id="Group-4" transform="translate(24 23)">
            <path id="-copy" fill="#00B4E0" d="M39.3333333,92.1692708 C39.3333333,93.4939302 38.9535628,94.6302036 38.1940104,95.578125 C37.434458,96.5260464 36.5199706,97 35.4505208,97 L19.8828125,97 C18.8133627,97 17.8988753,96.5260464 17.1393229,95.578125 C16.3797705,94.6302036 16,93.4939302 16,92.1692708 C16,91.1362796 16.0516488,90.1610289 16.1549479,89.2434896 C16.258247,88.3259503 16.4496514,87.4023484 16.7291667,86.4726562 C17.008682,85.5429641 17.3641471,84.7469651 17.7955729,84.0846354 C18.2269987,83.4223057 18.7981735,82.8815125 19.5091146,82.4622396 C20.2200556,82.0429667 21.0373218,81.8333333 21.9609375,81.8333333 C23.5529593,83.3888967 25.4548501,84.1666667 27.6666667,84.1666667 C29.8784833,84.1666667 31.780374,83.3888967 33.3723958,81.8333333 C34.2960116,81.8333333 35.1132777,82.0429667 35.8242187,82.4622396 C36.5351598,82.8815125 37.1063346,83.4223057 37.5377604,84.0846354 C37.9691862,84.7469651 38.3246514,85.5429641 38.6041667,86.4726562 C38.883682,87.4023484 39.0750863,88.3259503 39.1783854,89.2434896 C39.2816845,90.1610289 39.3333333,91.1362796 39.3333333,92.1692708 Z M34.6666667,76 C34.6666667,77.9323013 33.9830798,79.5820244 32.6158854,80.9492187 C31.2486911,82.3164131 29.598968,83 27.6666667,83 C25.7343653,83 24.0846423,82.3164131 22.7174479,80.9492187 C21.3502536,79.5820244 20.6666667,77.9323013 20.6666667,76 C20.6666667,74.0676987 21.3502536,72.4179756 22.7174479,71.0507812 C24.0846423,69.6835869 25.7343653,69 27.6666667,69 C29.598968,69 31.2486911,69.6835869 32.6158854,71.0507812 C33.9830798,72.4179756 34.6666667,74.0676987 34.6666667,76 Z"/>
            <g id="Group-2" stroke="#00B4E0" stroke-width="2">
              <g id="Group">
                <polyline id="Path-3" points="31.992 0 19 0 19 14.055"/>
                <polyline id="Path-3-Copy" points="12.992 22 0 22 0 36.055"/>
              </g>
              <g id="Group-Copy" transform="matrix(-1 0 0 1 202 0)">
                <polyline id="Path-3" points="31.992 0 19 0 19 14.055"/>
                <polyline id="Path-3-Copy" points="12.992 22 0 22 0 36.055"/>
              </g>
            </g>
            <g id="Group-2-Copy" stroke="#00B4E0" stroke-width="2" transform="rotate(180 101 68.5)">
              <g id="Group">
                <polyline id="Path-3" points="31.992 0 19 0 19 14.055"/>
                <polyline id="Path-3-Copy" points="12.992 22 0 22 0 36.055"/>
              </g>
              <g id="Group-Copy" transform="matrix(-1 0 0 1 202 0)">
                <polyline id="Path-3" points="31.992 0 19 0 19 14.055"/>
                <polyline id="Path-3-Copy" points="12.992 22 0 22 0 36.055"/>
              </g>
            </g>
          </g>
        </g>
      </g>
    </g>
  </g>
</svg>
