<svg xmlns="http://www.w3.org/2000/svg" xmlns:xlink="http://www.w3.org/1999/xlink" width="97" height="102" viewBox="0 0 97 102">
  <g id="15.-During-Exam" fill="none" fill-rule="evenodd" transform="translate(-632 -348)">
    <g id="Exam-Instructions" transform="translate(242 242)">
      <g id="imagery" transform="translate(53 103)">
        <g id="Group-11" transform="translate(337 3)">
          <path id="Path-6" fill="#485056" d="M9.5697314,44.2657017 C7.05464984,40.1618216 7.05464984,34.2468382 9.5697314,26.5207515 C13.3423538,14.9316214 24.970235,1.70803659 51.5938791,0.176126596 C78.2175232,-1.3557834 91.1339989,14.0101181 92.6699784,17.8482779 C94.2059578,21.6864376 101.362119,41.819499 92.6699784,54.2798686 C83.9778377,66.7402382 74.8214585,83.4722649 84.4639963,101.911545 C72.8196749,101.883365 55.7300114,101.883365 33.1950058,101.911545 C34.2262989,96.4383135 31.6577216,93.5357472 25.489274,93.2038464 C16.2366025,92.7059952 7.46226111,89.9443302 8.51599626,83.7071003 C9.21848636,79.5489471 8.86724131,77.4698705 7.46226111,77.4698705 C8.86724131,74.578785 9.21848636,73.072185 8.51599626,72.9500706 C7.46226111,72.7668989 5.04634233,72.1203186 5.84094944,70.2956471 C6.63555656,68.4709756 8.98414902,64.0224091 6.63555656,63.8650694 C4.2869641,63.7077296 0.380471978,62.6306176 0.173012978,60.1437101 C0.0347069774,58.4857717 3.16694645,53.1931023 9.5697314,44.2657017 Z"/>
          <g id="Group-8" transform="translate(33.469 5.611)">
            <g id="Group-7" fill="#FFF">
              <path id="Combined-Shape" d="M17.8654073,13.306327 L24.335943,13.306327 C25.5944624,13.306327 26.614694,14.3265585 26.614694,15.5850779 C26.614694,16.8435973 25.5944624,17.8638289 24.335943,17.8638289 L17.8654073,17.8638289 L17.8654073,24.3343646 C17.8654073,25.592884 16.8451758,26.6131155 15.5866564,26.6131155 C14.328137,26.6131155 13.3079055,25.592884 13.3079055,24.3343646 L13.3079055,17.8638289 L6.83736972,17.8638289 C5.57885033,17.8638289 4.55861879,16.8435973 4.55861879,15.5850779 C4.55861879,14.3265585 5.57885033,13.306327 6.83736972,13.306327 L13.3079055,13.306327 L13.3079055,6.83579126 C13.3079055,5.57727187 14.328137,4.55704033 15.5866564,4.55704033 C16.8451758,4.55704033 17.8654073,5.57727187 17.8654073,6.83579126 L17.8654073,13.306327 Z"/>
              <path id="Combined-Shape" d="M17.8763308,13.3172494 L24.3468666,13.3172494 C25.605386,13.3172494 26.6256175,14.3374809 26.6256175,15.5960003 C26.6256175,16.8545197 25.605386,17.8747513 24.3468666,17.8747513 L17.8763308,17.8747513 L17.8763308,24.345287 C17.8763308,25.6038064 16.8560993,26.6240379 15.5975799,26.6240379 C14.3390605,26.6240379 13.318829,25.6038064 13.318829,24.345287 L13.318829,17.8747513 L6.84829324,17.8747513 C5.58977385,17.8747513 4.5695423,16.8545197 4.5695423,15.5960003 C4.5695423,14.3374809 5.58977385,13.3172494 6.84829324,13.3172494 L13.318829,13.3172494 L13.318829,6.84671367 C13.318829,5.58819428 14.3390605,4.56796274 15.5975799,4.56796274 C16.8560993,4.56796274 17.8763308,5.58819428 17.8763308,6.84671367 L17.8763308,13.3172494 Z" transform="rotate(45 15.598 15.596)"/>
            </g>
            <ellipse id="Oval-4" cx="15.632" cy="15.631" fill="#FFF" rx="8.217" ry="8.216"/>
            <ellipse id="Oval-4" cx="15.632" cy="15.631" fill="#485056" rx="3.207" ry="3.206"/>
          </g>
          <g id="Group-8-Copy" transform="translate(56.917 13.827)">
            <g id="Group-7" fill="#FFF">
              <path id="Combined-Shape" d="M17.8654073,13.306327 L24.335943,13.306327 C25.5944624,13.306327 26.614694,14.3265585 26.614694,15.5850779 C26.614694,16.8435973 25.5944624,17.8638289 24.335943,17.8638289 L17.8654073,17.8638289 L17.8654073,24.3343646 C17.8654073,25.592884 16.8451758,26.6131155 15.5866564,26.6131155 C14.328137,26.6131155 13.3079055,25.592884 13.3079055,24.3343646 L13.3079055,17.8638289 L6.83736972,17.8638289 C5.57885033,17.8638289 4.55861879,16.8435973 4.55861879,15.5850779 C4.55861879,14.3265585 5.57885033,13.306327 6.83736972,13.306327 L13.3079055,13.306327 L13.3079055,6.83579126 C13.3079055,5.57727187 14.328137,4.55704033 15.5866564,4.55704033 C16.8451758,4.55704033 17.8654073,5.57727187 17.8654073,6.83579126 L17.8654073,13.306327 Z"/>
              <path id="Combined-Shape" d="M17.8763308,13.3172494 L24.3468666,13.3172494 C25.605386,13.3172494 26.6256175,14.3374809 26.6256175,15.5960003 C26.6256175,16.8545197 25.605386,17.8747513 24.3468666,17.8747513 L17.8763308,17.8747513 L17.8763308,24.345287 C17.8763308,25.6038064 16.8560993,26.6240379 15.5975799,26.6240379 C14.3390605,26.6240379 13.318829,25.6038064 13.318829,24.345287 L13.318829,17.8747513 L6.84829324,17.8747513 C5.58977385,17.8747513 4.5695423,16.8545197 4.5695423,15.5960003 C4.5695423,14.3374809 5.58977385,13.3172494 6.84829324,13.3172494 L13.318829,13.3172494 L13.318829,6.84671367 C13.318829,5.58819428 14.3390605,4.56796274 15.5975799,4.56796274 C16.8560993,4.56796274 17.8763308,5.58819428 17.8763308,6.84671367 L17.8763308,13.3172494 Z" transform="rotate(45 15.598 15.596)"/>
            </g>
            <ellipse id="Oval-4" cx="15.632" cy="15.631" fill="#FFF" rx="8.217" ry="8.216"/>
            <ellipse id="Oval-4" cx="15.632" cy="15.631" fill="#485056" rx="3.207" ry="3.206"/>
          </g>
          <g id="Group-8-Copy-2" transform="translate(44.09 31.261)">
            <g id="Group-7" fill="#FFF">
              <path id="Combined-Shape" d="M14.6587957,10.9180119 L19.9679533,10.9180119 C21.0005846,10.9180119 21.8376976,11.755125 21.8376976,12.7877562 C21.8376976,13.8203875 21.0005846,14.6575006 19.9679533,14.6575006 L14.6587957,14.6575006 L14.6587957,19.9666581 C14.6587957,20.9992894 13.8216827,21.8364025 12.7890514,21.8364025 C11.7564201,21.8364025 10.919307,20.9992894 10.919307,19.9666581 L10.919307,14.6575006 L5.61014952,14.6575006 C4.57751822,14.6575006 3.74040516,13.8203875 3.74040516,12.7877562 C3.74040516,11.755125 4.57751822,10.9180119 5.61014952,10.9180119 L10.919307,10.9180119 L10.919307,5.60885437 C10.919307,4.57622308 11.7564201,3.73911001 12.7890514,3.73911001 C13.8216827,3.73911001 14.6587957,4.57622308 14.6587957,5.60885437 L14.6587957,10.9180119 Z"/>
              <path id="Combined-Shape" d="M14.6677586,10.9269739 L19.9769162,10.9269739 C21.0095475,10.9269739 21.8466605,11.7640869 21.8466605,12.7967182 C21.8466605,13.8293495 21.0095475,14.6664626 19.9769162,14.6664626 L14.6677586,14.6664626 L14.6677586,19.9756201 C14.6677586,21.0082514 13.8306456,21.8453645 12.7980143,21.8453645 C11.765383,21.8453645 10.9282699,21.0082514 10.9282699,19.9756201 L10.9282699,14.6664626 L5.6191124,14.6664626 C4.58648111,14.6664626 3.74936805,13.8293495 3.74936805,12.7967182 C3.74936805,11.7640869 4.58648111,10.9269739 5.6191124,10.9269739 L10.9282699,10.9269739 L10.9282699,5.61781635 C10.9282699,4.58518505 11.765383,3.74807199 12.7980143,3.74807199 C13.8306456,3.74807199 14.6677586,4.58518505 14.6677586,5.61781635 L14.6677586,10.9269739 Z" transform="rotate(45 12.798 12.797)"/>
            </g>
            <ellipse id="Oval-4" cx="12.726" cy="12.725" fill="#FFF" rx="6.714" ry="6.713"/>
            <ellipse id="Oval-4" cx="12.826" cy="12.825" fill="#485056" rx="2.605" ry="2.605"/>
          </g>
        </g>
      </g>
    </g>
  </g>
</svg>
