<svg xmlns="http://www.w3.org/2000/svg" xmlns:xlink="http://www.w3.org/1999/xlink" width="115" height="108" viewBox="0 0 115 108">
  <g id="15.-During-Exam" fill="none" fill-rule="evenodd" transform="translate(-469 -350)">
    <g id="Exam-Instructions" transform="translate(242 242)">
      <g id="imagery" transform="translate(53 103)">
        <g id="Group-9" transform="translate(178 5)">
          <path id="Path-7" stroke="#979797" stroke-width=".5"/>
          <path id="Path-8" stroke="#485056" stroke-width="8.5" d="M0.408088235,39.75 C1.18044754,61.1432292 3.679007,73.3486328 7.90376661,76.3662109 C12.1285262,79.3837891 19.9822628,80.4814453 31.4649763,79.6591797"/>
          <rect id="Rectangle-7" width="7.534" height="24" x="13.059" y="79" fill="#485056"/>
          <path id="Path-9" stroke="#485056" stroke-width="6" d="M3.52196824,106.839844 C4.14292942,102.478678 5.94384766,100.318766 8.92472294,100.360107 C11.9055982,100.401449 17.6094324,100.422119 26.0362256,100.422119 C28.6086857,100.672282 30.0330706,102.811523 30.3093803,106.839844"/>
          <path id="Path-10" stroke="#485056" stroke-linecap="round" stroke-linejoin="round" stroke-width="10.5" d="M55.3209709,101.134766 C51.0419303,80.2890625 46.6217919,69.2576497 42.0605557,68.0405273 C35.2187014,66.2148438 18.8235603,68.7055664 15.7937995,66.6728516"/>
          <path id="Path-11" fill="#485056" d="M10.7000539,67.8300781 C10.7000539,67.3828125 9.53775452,56.4554036 7.21315576,35.0478516 C7.52445383,31.3030599 9.24444111,28.815918 12.3731176,27.5864258 C17.0661323,25.7421875 20.4485559,26.7670898 23.1153537,27.5864258 C25.7821514,28.4057617 29.6217124,32.6552734 37.7520857,32.5395508 C45.882459,32.4238281 57.3415195,29.7180594 59.5609898,33.0085868 C61.7804601,36.2991141 62.0269593,40.2280273 56.3608111,41.5991211 C50.6946629,42.9702148 32.8795514,42.9702148 31.1275187,42.9702148 C29.959497,42.9702148 30.8056614,50.5091146 33.6660119,65.5869141 C18.3553733,67.5296224 10.7000539,68.2773437 10.7000539,67.8300781 Z"/>
          <ellipse id="Oval-5" cx="18.081" cy="13" fill="#485056" rx="13.059" ry="13"/>
          <rect id="Rectangle-8" width="57.76" height="6.5" x="52.738" y="44.5" fill="#485056"/>
          <rect id="Rectangle-10" width="24.611" height="4.5" x="63.285" y="37.5" fill="#485056"/>
          <rect id="Rectangle-9" width="40.683" height="58.5" x="64.29" y="48" fill="#485056"/>
          <rect id="Rectangle-11" width="4.515" height="30" x="87.441" y="12.038" fill="#485056" transform="rotate(16 89.699 27.038)"/>
        </g>
      </g>
    </g>
  </g>
</svg>
