<?xml version="1.0" encoding="utf-8"?>
<!-- Generator: Adobe Illustrator 25.2.0, SVG Export Plug-In . SVG Version: 6.00 Build 0)  -->
<svg version="1.1" id="Layer_1" xmlns="http://www.w3.org/2000/svg" xmlns:xlink="http://www.w3.org/1999/xlink" x="0px" y="0px"
	 viewBox="0 0 800.78 274.07" style="enable-background:new 0 0 800.78 274.07;" xml:space="preserve">
<style type="text/css">
	.st0{fill:#0072B1;}
	.st1{fill:#333333;}
	.st2{fill:#408B87;}
</style>
<g>
	<g>
		<path class="st0" d="M787.2,196.57c-4.3-0.74-6.57-4.79-6.74-12.04V96.54h-19.1v55.15c0,10.59-3.67,20.05-10.33,26.67
			c-5.97,5.93-13.85,9.04-22.74,8.96c-18.67-0.14-32.22-15.61-32.22-36.78v-41.11c0-7.11-5.78-12.89-12.89-12.89h-6.19v55.15
			c0,15.87,5.83,30.28,16.4,40.57c9.41,9.15,21.96,14.14,35.51,14.14c0.52,0,1.03-0.01,1.55-0.02c12.04-0.33,21.33-4.41,31.39-13.94
			c0.49,2.65,1.55,5.12,3.84,7.7c2.94,3.33,7.59,5.05,12.44,4.61c4.43-0.4,8.23-2.57,10.17-5.78l1.2-2L787.2,196.57z"/>
		<path class="st0" d="M703.61,73.32c6.91,0,12.5-5.6,12.5-12.51c0-6.91-5.59-12.5-12.5-12.5c-6.91,0-12.51,5.59-12.51,12.5
			C691.11,67.72,696.71,73.32,703.61,73.32"/>
		<path class="st0" d="M703.62,40.49c11.22,0,20.32,9.1,20.32,20.32s-9.09,20.32-20.32,20.32s-20.32-9.1-20.32-20.32
			S692.39,40.49,703.62,40.49 M728.62,75.52V86.3c0,0.43-0.54,0.63-0.81,0.29l-4.32-5.14C725.45,79.71,727.19,77.73,728.62,75.52
			 M753.63,40.49c11.22,0,20.32,9.1,20.32,20.32s-9.09,20.32-20.32,20.32c-11.22,0-20.32-9.1-20.32-20.32S742.41,40.49,753.63,40.49
			 M703.64,89.85c6.38,0,12.25-2.09,17.04-5.59l6.43,7.87c0.39,0.47,0.98,0.63,1.51,0.63c0.53,0,1.13-0.16,1.51-0.63l6.42-7.87
			c4.79,3.51,10.67,5.59,17.04,5.59c16.01,0,29.03-13.02,29.03-29.03c0-8.12-3.37-15.47-8.77-20.74l7.29-8.63
			c1.46-1.73,1.55-3.86,1.55-6.19c0-2.95-0.36-4.84-2.62-3.93c0,0-34.84,14.95-51.46,14.95c-16.61,0-51.46-14.95-51.46-14.95
			c-2.26-0.91-2.62,0.98-2.62,3.93c0,2.33,0.09,4.47,1.54,6.19l7.29,8.63c-5.39,5.27-8.76,12.62-8.76,20.74
			C674.61,76.83,687.64,89.85,703.64,89.85"/>
		<path class="st0" d="M753.63,73.32c6.91,0,12.5-5.6,12.5-12.51c0-6.91-5.59-12.5-12.5-12.5s-12.5,5.59-12.5,12.5
			C741.12,67.72,746.72,73.32,753.63,73.32"/>
	</g>
	<path class="st1" d="M243.71,188.28L243.71,188.28h-0.12c-9.62-0.02-18.61-3.75-25.31-10.49c-6.89-6.94-10.67-16.33-10.63-26.45
		c0.05-10.01,3.86-19.27,10.74-26.08c6.74-6.66,15.8-10.33,25.52-10.33h0.27c19.85,0.14,35.34,16.4,35.25,37.03
		C279.34,172.67,263.99,188.28,243.71,188.28 M244.29,96.62h-0.21c-30.39,0-55.27,24.38-55.47,54.34
		c-0.1,15.05,5.54,29.1,15.89,39.54c10.26,10.36,24.07,16.08,38.9,16.13h0.18c14.75,0,28.54-5.63,38.82-15.85
		c10.33-10.27,16.04-24.09,16.08-38.91C298.55,121.52,274.24,96.73,244.29,96.62"/>
	<path class="st1" d="M452.13,78.38h-18.89V96.6h-8.61v18.22h8.61v48.82v0.07c0.86,18.54,8.86,31.58,23.77,38.75
		c5.52,2.65,11.11,3.97,16.97,3.97c1.24,0,2.49-0.06,3.75-0.18l1.45-0.13v-18.26l-1.63,0.04c-3.4,0.09-6.08-0.17-8.21-0.75
		c-10.12-2.81-16.88-12.67-17.22-25.08v-47.25h27.71V96.6h-27.71V78.38z"/>
	<path class="st1" d="M160.03,100.5c-14.91,7.17-22.91,20.21-23.77,38.75v67.35h18.89v-65.65c0.33-12.45,7.09-22.31,17.21-25.12
		c2.62-0.73,6.02-0.96,10.38-0.68l3.26,0.2V97.42l-2.61-0.4C175.16,95.76,167.52,96.9,160.03,100.5"/>
	<path class="st1" d="M635.28,100.3c-14.91,7.17-22.91,20.21-23.77,38.75l-0.01,67.34h18.9v-65.66c0.33-12.44,7.09-22.3,17.21-25.12
		c2.62-0.73,6.02-0.96,10.38-0.68l3.26,0.2V97.22l-2.61-0.4C650.42,95.56,642.77,96.7,635.28,100.3"/>
	<path class="st1" d="M364.64,115.2c11.16,0,21.46,5.2,28.29,14.26l0.48,0.63h21.83l-1.11-2.29c-9.27-19.19-28.24-31.11-49.5-31.11
		c-30.32,0-54.99,24.64-54.99,54.93s24.67,54.93,54.99,54.93c21.15,0,40.08-11.84,49.39-30.89l1.12-2.3h-22.05l-0.48,0.62
		c-6.83,8.8-17.03,13.85-27.99,13.85c-19.67,0-35.67-16.3-35.67-36.32S344.97,115.2,364.64,115.2"/>
	<path class="st1" d="M103.19,151.75c0,20.29-16.51,36.8-36.8,36.8c-20.29,0-36.8-16.51-36.8-36.8s16.51-36.8,36.8-36.8
		C86.69,114.95,103.19,131.46,103.19,151.75 M66.4,96.63c-14.27,0-27.77,5.43-38.09,15.31H10.19v145.38h19.31v-64.66
		c10.15,9.19,23.1,14.21,36.89,14.21c30.39,0,55.12-24.73,55.12-55.12S96.79,96.63,66.4,96.63"/>
	<path class="st1" d="M578.98,151.53c0,20.22-16.45,36.67-36.67,36.67s-36.67-16.45-36.67-36.67s16.45-36.67,36.67-36.67
		S578.98,131.31,578.98,151.53 M542.31,96.52c-30.33,0-55,24.68-55,55s24.68,55,55,55c30.33,0,55-24.68,55-55
		S572.64,96.52,542.31,96.52"/>
</g>
<g>
	<path class="st1" d="M247.21,76.88V48.67h1.97v26.5h13.01v1.71H247.21z"/>
	<path class="st1" d="M266.64,76.9V48.67h17.46v1.71h-15.48v10.67h13.3v1.71h-13.3v12.42h15.91v1.71H266.64z"/>
	<path class="st1" d="M288.97,76.9l9.94-28.23h1.97l9.94,28.23h-2.06l-3.3-9.68h-11.18l-3.34,9.68H288.97z M296.69,60.28l-1.8,5.27
		h10.02l-1.8-5.27c-0.57-1.68-1.11-3.3-1.63-4.84c-0.51-1.54-1.01-3.18-1.5-4.93h-0.17c-0.49,1.74-0.99,3.38-1.5,4.93
		C297.8,56.98,297.26,58.6,296.69,60.28z"/>
	<path class="st1" d="M315.27,76.9V48.67h8.1c1.4,0,2.67,0.14,3.81,0.41c1.14,0.27,2.11,0.71,2.91,1.31c0.8,0.6,1.42,1.37,1.86,2.31
		c0.44,0.94,0.66,2.09,0.66,3.43c0,2.26-0.65,4.03-1.95,5.31c-1.3,1.28-3.06,2.07-5.29,2.36l7.8,13.11h-2.27l-7.67-12.98h-6V76.9
		H315.27z M317.24,62.29h5.61c2.51,0,4.43-0.51,5.76-1.52c1.33-1.01,1.99-2.56,1.99-4.65c0-2.11-0.67-3.6-2.01-4.48
		c-1.34-0.87-3.26-1.31-5.74-1.31h-5.61V62.29z"/>
	<path class="st1" d="M342.07,76.9V48.67h2.06l11.91,19.92l3.17,5.61h0.17c-0.06-1.37-0.11-2.74-0.17-4.11
		c-0.06-1.37-0.09-2.74-0.09-4.11V48.67h1.88V76.9h-2.06l-11.91-19.92l-3.17-5.61h-0.17c0.06,1.37,0.11,2.71,0.17,4.01
		c0.06,1.3,0.09,2.63,0.09,4.01V76.9H342.07z"/>
	<path class="st1" d="M369.91,76.9V48.67h1.97V76.9H369.91z"/>
	<path class="st1" d="M380.77,76.9V48.67h2.06l11.91,19.92l3.17,5.61h0.17c-0.06-1.37-0.11-2.74-0.17-4.11
		c-0.06-1.37-0.09-2.74-0.09-4.11V48.67h1.88V76.9h-2.06l-11.91-19.92l-3.17-5.61h-0.17c0.06,1.37,0.11,2.71,0.17,4.01
		c0.06,1.3,0.09,2.63,0.09,4.01V76.9H380.77z"/>
	<path class="st1" d="M416.28,77.41c-1.83,0-3.48-0.34-4.97-1.03c-1.49-0.69-2.76-1.66-3.81-2.93c-1.06-1.27-1.88-2.81-2.46-4.63
		c-0.59-1.81-0.88-3.85-0.88-6.1c0-2.23,0.3-4.24,0.9-6.04c0.6-1.8,1.44-3.33,2.53-4.6c1.08-1.27,2.4-2.24,3.94-2.91
		c1.54-0.67,3.24-1.01,5.1-1.01c0.94,0,1.81,0.1,2.59,0.3c0.79,0.2,1.49,0.46,2.12,0.79c0.63,0.33,1.19,0.69,1.69,1.09
		c0.5,0.4,0.93,0.8,1.31,1.2l-1.16,1.33c-0.74-0.8-1.63-1.48-2.66-2.06c-1.03-0.57-2.31-0.86-3.85-0.86c-1.63,0-3.08,0.3-4.37,0.9
		c-1.28,0.6-2.38,1.45-3.28,2.55c-0.9,1.1-1.59,2.44-2.08,4.01c-0.49,1.57-0.73,3.34-0.73,5.31c0,1.97,0.23,3.75,0.69,5.33
		c0.46,1.58,1.12,2.93,1.99,4.05c0.87,1.11,1.94,1.98,3.21,2.59c1.27,0.61,2.71,0.92,4.31,0.92c1.29,0,2.49-0.19,3.62-0.56
		c1.13-0.37,2.03-0.9,2.72-1.58v-8.78h-6.77v-1.67h8.65V74.2c-0.89,0.94-2.04,1.71-3.45,2.31
		C419.77,77.12,418.14,77.41,416.28,77.41z"/>
	<path class="st1" d="M10.15,76.88V44.26h9.23l4.92,13.35c0.3,0.9,0.59,1.84,0.85,2.81c0.27,0.97,0.55,1.94,0.85,2.91h0.2
		c0.3-0.97,0.59-1.94,0.85-2.91c0.27-0.97,0.55-1.91,0.85-2.81l4.72-13.35h9.23v32.62h-7.83v-9.64c0-0.84,0.04-1.76,0.13-2.76
		c0.08-1,0.18-2.03,0.28-3.09c0.1-1.05,0.22-2.08,0.35-3.09c0.13-1,0.25-1.91,0.35-2.71h-0.2l-2.71,7.83l-4.01,10.79H23.6
		l-4.02-10.79l-2.61-7.83h-0.2c0.1,0.8,0.22,1.71,0.35,2.71c0.13,1,0.25,2.03,0.35,3.09c0.1,1.05,0.19,2.08,0.28,3.09
		c0.08,1,0.13,1.92,0.13,2.76v9.64H10.15z"/>
	<path class="st1" d="M48.3,76.88V44.26h21.08v7.23H56.93v5.12h10.64v7.23H56.93v5.82h12.95v7.23H48.3z"/>
	<path class="st1" d="M73.08,76.88l9.94-32.62h10.44l9.94,32.62h-9.13l-1.61-6.93h-9.13l-1.61,6.93H73.08z M85.62,61.02l-0.55,2.26
		h6.02l-0.55-2.26c-0.4-1.57-0.8-3.28-1.2-5.12c-0.4-1.84-0.8-3.58-1.2-5.22h-0.2c-0.37,1.67-0.75,3.42-1.13,5.24
		C86.42,57.75,86.02,59.45,85.62,61.02z"/>
	<path class="st1" d="M153.85,77.48c-4.58,0-7.99-1.33-10.21-3.99c-2.23-2.66-3.34-6.78-3.34-12.37V44.26h8.63v17.87
		c0,2.91,0.39,4.96,1.18,6.15c0.79,1.19,2.03,1.78,3.74,1.78c1.71,0,2.97-0.59,3.79-1.78c0.82-1.19,1.23-3.24,1.23-6.15V44.26h8.33
		v16.86c0,5.59-1.09,9.71-3.26,12.37C161.76,76.15,158.4,77.48,153.85,77.48z"/>
	<path class="st1" d="M173.63,76.88V44.26h12.35c1.74,0,3.4,0.17,4.99,0.5c1.59,0.33,2.98,0.9,4.17,1.71
		c1.19,0.8,2.13,1.88,2.84,3.24c0.7,1.36,1.05,3.05,1.05,5.09c0,2.34-0.48,4.28-1.43,5.82c-0.95,1.54-2.23,2.74-3.84,3.61
		l7.08,12.65h-9.64l-5.62-10.94h-3.31v10.94H173.63z M182.26,59.11h3.11c3.48,0,5.22-1.44,5.22-4.32c0-1.41-0.44-2.38-1.33-2.91
		c-0.89-0.53-2.18-0.8-3.89-0.8h-3.11V59.11z"/>
	<path class="st1" d="M204.05,76.88V44.26h21.08v7.23h-12.45v5.12h10.64v7.23h-10.64v5.82h12.95v7.23H204.05z"/>
	<polygon class="st2" points="108.2,71.9 121.55,51.72 108.2,51.72 	"/>
	<polygon class="st2" points="133.1,69.89 119.65,69.89 133.1,49.71 	"/>
	<path class="st1" d="M83.01,44.26"/>
	<rect x="108.2" y="75.53" class="st1" width="24.9" height="0.9"/>
	<rect x="108.2" y="76.43" class="st1" width="24.9" height="0.9"/>
	<rect x="108.2" y="75.98" class="st1" width="24.9" height="0.9"/>
	<rect x="108.2" y="44.71" class="st1" width="24.9" height="0.9"/>
	<rect x="108.2" y="43.81" class="st1" width="24.9" height="0.9"/>
	<rect x="108.2" y="44.26" class="st1" width="24.9" height="0.9"/>
</g>
</svg>
