<svg width="83" height="24" viewBox="0 0 83 24" fill="none" xmlns="http://www.w3.org/2000/svg">
<g clip-path="url(#clip0)">
<path d="M73.3906 6.10881L73.8719 6.65669C73.8782 6.66375 73.8866 6.6688 73.8959 6.67117C73.9053 6.67353 73.9152 6.6731 73.9243 6.66992C73.9334 6.66675 73.9413 6.66098 73.9469 6.65339C73.9524 6.64581 73.9555 6.63676 73.9556 6.62747V5.42944C73.8048 5.68288 73.612 5.91109 73.3849 6.10516L73.3906 6.10881Z" fill="white"/>
<path d="M23.7698 7.43834H23.7489C22.6555 7.43117 21.5844 7.73556 20.6712 8.31299C19.7581 8.89042 19.0439 9.71493 18.619 10.6822C18.1942 11.6494 18.0778 12.7159 18.2845 13.7467C18.4913 14.7775 19.012 15.7262 19.7806 16.4728C20.291 16.9663 20.8983 17.3577 21.5674 17.6241C22.2365 17.8906 22.9541 18.0269 23.6785 18.0251H23.6975C24.422 18.0297 25.1403 17.8972 25.8115 17.6353C26.4826 17.3733 27.0934 16.987 27.6091 16.4985C28.1247 16.0099 28.5351 15.4286 28.8167 14.7878C29.0983 14.147 29.2457 13.4592 29.2505 12.7637C29.2552 12.0682 29.1172 11.3786 28.8444 10.7343C28.5715 10.09 28.1691 9.50361 27.6602 9.0086C27.1513 8.51358 26.5458 8.11965 25.8783 7.84928C25.2107 7.57892 24.4943 7.43742 23.7698 7.43286V7.43834ZM23.7013 16.5221C23.1936 16.5224 22.691 16.4256 22.2226 16.2375C21.7543 16.0494 21.3296 15.7736 20.9734 15.4264C20.6033 15.0653 20.3118 14.6371 20.1158 14.1668C19.9198 13.6965 19.8233 13.1935 19.832 12.687C19.8292 12.1864 19.9303 11.6903 20.1292 11.2275C20.3281 10.7647 20.6208 10.3446 20.9905 9.99144C21.3527 9.64809 21.782 9.3768 22.2537 9.19315C22.7255 9.00949 23.2303 8.9171 23.7394 8.92126H23.7679C25.91 8.93587 27.5726 10.616 27.5726 12.7564C27.5726 14.8968 25.8966 16.5221 23.7013 16.5221Z" fill="#373A36"/>
<path d="M55.09 7.43834H55.0691C53.9761 7.43204 52.9056 7.73695 51.9931 8.31453C51.0805 8.89211 50.3668 9.71643 49.9421 10.6833C49.5174 11.6502 49.4008 12.7163 49.607 13.7467C49.8133 14.7772 50.3331 15.7259 51.1008 16.4728C51.6112 16.9663 52.2185 17.3577 52.8877 17.6241C53.5568 17.8906 54.2743 18.0269 54.9987 18.0251H55.0177C56.4809 18.0343 57.8879 17.4852 58.9293 16.4985C59.9707 15.5117 60.5611 14.1683 60.5707 12.7637C60.5803 11.3591 60.0082 10.0083 58.9804 9.0086C57.9526 8.00887 56.5532 7.44206 55.09 7.43286V7.43834ZM55.0292 16.5221H55.0177C54.51 16.5224 54.0074 16.4256 53.539 16.2375C53.0707 16.0494 52.646 15.7736 52.2898 15.4264C51.553 14.6993 51.1419 13.7243 51.1444 12.71C51.1469 11.6956 51.5628 10.7225 52.3031 9.99875C52.6655 9.65556 53.0948 9.38437 53.5665 9.20073C54.0382 9.01709 54.543 8.9246 55.052 8.92856H55.09C57.2321 8.94317 58.8947 10.6233 58.8947 12.7637C58.8947 14.9041 57.2226 16.5221 55.0349 16.5221H55.0292Z" fill="#373A36"/>
<path d="M5.58339 7.43832H5.56246C4.10112 7.43672 2.69745 7.98556 1.65314 8.96689V8.93219H0V12.3108H0.0190235C0.0190235 12.382 0.00380469 12.4532 0 12.5263V23.04H1.67216V22.8866C1.67216 22.8318 1.65694 19.4167 1.65504 16.5166C2.67982 17.4814 4.05868 18.0206 5.49398 18.0178H5.513C6.97615 18.027 8.38318 17.4778 9.42456 16.4911C10.4659 15.5044 11.0564 14.161 11.0659 12.7564C11.0755 11.3517 10.5035 10.001 9.47567 9.00127C8.44785 8.00155 7.04844 7.43474 5.58529 7.42554L5.58339 7.43832ZM5.52251 16.5221H5.5111C5.0034 16.5224 4.50072 16.4256 4.03237 16.2375C3.56402 16.0494 3.13935 15.7736 2.78313 15.4263C2.1458 14.8076 1.75009 13.9969 1.66265 13.1307C1.64073 12.9795 1.63119 12.8269 1.63412 12.6742C1.63474 12.1786 1.73723 11.6879 1.93571 11.2304C2.13418 10.7729 2.42474 10.3574 2.79074 10.0079C3.15309 9.66467 3.58242 9.39348 4.05412 9.20984C4.52582 9.0262 5.03063 8.93371 5.53963 8.93767H5.56817C7.71021 8.95228 9.37286 10.6324 9.37286 12.7728C9.37286 14.9132 7.72162 16.5221 5.52251 16.5221Z" fill="#373A36"/>
<path d="M36.2283 8.93767H36.2682C36.8472 8.93816 37.418 9.06873 37.9349 9.31894C38.4519 9.56914 38.9007 9.93204 39.2454 10.3786L39.2892 10.4352H41.1554L41.0355 10.2215C40.5741 9.38731 39.8865 8.68828 39.0453 8.19836C38.2041 7.70844 37.2407 7.44584 36.2568 7.43832H36.2378C35.5048 7.43429 34.7782 7.56972 34.1 7.83679C33.4219 8.10385 32.8055 8.49726 32.2866 8.99429C31.5197 9.7353 30.9981 10.6775 30.7876 11.7023C30.577 12.7272 30.6869 13.7889 31.1033 14.754C31.5197 15.7191 32.2241 16.5444 33.1279 17.1261C34.0317 17.7078 35.0945 18.02 36.1826 18.0233H36.1921C37.1829 18.0284 38.1565 17.7755 39.0094 17.2915C39.8623 16.8075 40.5625 16.1105 41.0355 15.2748L41.1573 15.0593H39.2815L39.2359 15.1159C38.8804 15.5573 38.4235 15.9138 37.9008 16.1578C37.3781 16.4017 36.8037 16.5264 36.2226 16.5221C35.1899 16.5003 34.2072 16.0913 33.4849 15.3824C32.7626 14.6736 32.3581 13.7215 32.3581 12.7299C32.3581 11.7383 32.7626 10.7861 33.4849 10.0773C34.2072 9.36852 35.1899 8.95943 36.2226 8.93767H36.2283Z" fill="#373A36"/>
<path d="M46.8453 16.3761C45.7305 16.0784 44.9848 15.043 44.9429 13.739C44.9315 13.2934 44.9429 11.069 44.9429 9.74134V9.03641H47.9639V7.50236H44.9524V4.31372H43.3297C43.3297 4.44521 43.3297 5.82586 43.3164 7.50236H42.7704V9.03641H43.3145C43.3145 11.2279 43.3145 13.4559 43.3316 13.8942C43.4172 15.6694 44.2124 16.9167 45.6925 17.5997C46.2156 17.8472 46.791 17.9759 47.3741 17.9759C47.565 17.9757 47.7556 17.9635 47.9448 17.9394L48.0761 17.9211V16.4437H47.9163C47.5578 16.4763 47.1962 16.4535 46.8453 16.3761V16.3761Z" fill="#373A36"/>
<path d="M79.1909 15.947V7.38184H77.551V12.6908C77.551 14.7343 76.1338 16.3944 73.9708 16.378C71.8402 16.3633 70.4819 14.6211 70.4819 12.5757V8.50133C70.4814 8.20457 70.3584 7.9201 70.1398 7.71026C69.9212 7.50042 69.6249 7.38232 69.3158 7.38184H68.8421V12.6908C68.8421 15.642 71.0621 18.0344 74.1915 17.9504C75.6411 17.912 76.6113 17.3148 77.5605 16.3871C77.5569 16.7557 77.6974 17.1121 77.9543 17.386C78.5136 17.9924 79.6474 17.8956 80.026 17.2929C79.5999 17.2253 79.2137 16.893 79.1909 15.947Z" fill="#0072B1"/>
<path d="M69.3253 3.93734C69.3253 4.33466 69.448 4.72306 69.678 5.05342C69.9079 5.38377 70.2347 5.64126 70.6171 5.79331C70.9994 5.94535 71.4202 5.98513 71.8261 5.90762C72.232 5.83011 72.6049 5.63878 72.8975 5.35783C73.1902 5.07689 73.3895 4.71894 73.4702 4.32926C73.551 3.93957 73.5095 3.53565 73.3512 3.16858C73.1928 2.80151 72.9246 2.48776 72.5804 2.26702C72.2363 2.04629 71.8317 1.92847 71.4179 1.92847C71.1431 1.92847 70.871 1.98043 70.6171 2.08138C70.3632 2.18234 70.1325 2.33031 69.9382 2.51685C69.7439 2.7034 69.5897 2.92485 69.4846 3.16858C69.3794 3.41231 69.3253 3.67354 69.3253 3.93734V3.93734ZM70.1319 3.93734C70.1308 3.69186 70.2055 3.45158 70.3468 3.24694C70.488 3.0423 70.6894 2.88251 70.9253 2.78781C71.1612 2.69312 71.4211 2.66778 71.6721 2.715C71.923 2.76223 72.1537 2.8799 72.3349 3.0531C72.5161 3.2263 72.6397 3.44724 72.69 3.68793C72.7403 3.92862 72.7151 4.17822 72.6175 4.40513C72.5199 4.63203 72.3543 4.82602 72.1418 4.96252C71.9292 5.09902 71.6793 5.17189 71.4236 5.17189C71.082 5.17189 70.7543 5.042 70.5122 4.81063C70.2701 4.57927 70.1334 4.26527 70.1319 3.93734V3.93734Z" fill="white"/>
<path d="M71.4236 2.69727C71.6791 2.69727 71.9288 2.76999 72.1412 2.90625C72.3536 3.0425 72.5192 3.23617 72.617 3.46275C72.7147 3.68934 72.7403 3.93867 72.6905 4.17921C72.6406 4.41975 72.5176 4.6407 72.337 4.81412C72.1563 4.98754 71.9262 5.10564 71.6756 5.15349C71.425 5.20134 71.1653 5.17678 70.9293 5.08292C70.6933 4.98907 70.4915 4.83013 70.3496 4.62621C70.2077 4.42229 70.1319 4.18254 70.1319 3.93729C70.1319 3.60842 70.268 3.29301 70.5102 3.06046C70.7525 2.82791 71.081 2.69727 71.4236 2.69727V2.69727Z" fill="#0072B1"/>
<path d="M79.4268 1.0264C79.5565 0.847565 79.6134 0.629205 79.5866 0.412778C79.5866 0.120577 79.5504 -0.0657007 79.3164 0.0237856C79.3164 0.0237856 75.7191 1.50488 74.0051 1.50488C72.2911 1.50488 68.6918 0.0237856 68.6918 0.0237856C68.4597 -0.0657007 68.4217 0.120577 68.4217 0.412778C68.3948 0.629205 68.4517 0.847565 68.5815 1.0264L69.3329 1.88474C68.7814 2.3897 68.4515 3.07762 68.4103 3.80816C68.3691 4.5387 68.6198 5.2568 69.1112 5.81596C69.6027 6.37513 70.2978 6.73321 71.0549 6.81717C71.812 6.90112 72.5739 6.70462 73.1852 6.26774L73.8491 7.04755C73.8683 7.06873 73.8924 7.08536 73.9195 7.09613C73.9466 7.1069 73.9758 7.11152 74.0051 7.10965C74.0343 7.11152 74.0636 7.1069 74.0906 7.09613C74.1177 7.08536 74.1418 7.06873 74.1611 7.04755L74.8231 6.26774C75.4338 6.71123 76.1985 6.91305 76.9595 6.83166C77.7206 6.75026 78.4202 6.39185 78.9144 5.83021C79.4085 5.26856 79.6595 4.54643 79.6157 3.81247C79.572 3.07851 79.2368 2.38859 78.6791 1.88474L79.4268 1.0264ZM71.4236 5.95728C71.0097 5.95728 70.6051 5.83946 70.261 5.61872C69.9169 5.39798 69.6487 5.08424 69.4903 4.71717C69.3319 4.35009 69.2905 3.94617 69.3712 3.55649C69.4519 3.16681 69.6512 2.80886 69.9439 2.52791C70.2366 2.24696 70.6094 2.05564 71.0153 1.97812C71.4213 1.90061 71.842 1.94039 72.2244 2.09244C72.6067 2.24449 72.9336 2.50197 73.1635 2.83233C73.3934 3.16269 73.5162 3.55108 73.5162 3.9484C73.5147 4.48024 73.2935 4.9898 72.9012 5.36535C72.509 5.74091 71.9776 5.9518 71.4236 5.9518V5.95728ZM78.6829 3.9484C78.6829 4.34572 78.5602 4.73412 78.3303 5.06448C78.1003 5.39483 77.7735 5.65232 77.3912 5.80436C77.0088 5.95641 76.588 5.99619 76.1821 5.91868C75.7762 5.84117 75.4033 5.64984 75.1107 5.36889C74.818 5.08795 74.6187 4.73 74.538 4.34032C74.4572 3.95063 74.4987 3.54671 74.6571 3.17964C74.8154 2.81256 75.0837 2.49882 75.4278 2.27808C75.7719 2.05734 76.1765 1.93952 76.5904 1.93952C77.1427 1.94048 77.6723 2.15105 78.0636 2.52532C78.4548 2.89959 78.6761 3.40719 78.6791 3.93745L78.6829 3.9484Z" fill="#0072B1"/>
<path d="M76.5865 1.9231C76.1727 1.9231 75.7681 2.04091 75.424 2.26165C75.0798 2.48239 74.8116 2.79613 74.6532 3.16321C74.4949 3.53028 74.4534 3.9342 74.5342 4.32389C74.6149 4.71357 74.8142 5.07152 75.1069 5.35246C75.3995 5.63341 75.7724 5.82474 76.1783 5.90225C76.5842 5.97976 77.005 5.93998 77.3873 5.78793C77.7697 5.63589 78.0965 5.3784 78.3265 5.04805C78.5564 4.71769 78.6791 4.32929 78.6791 3.93197C78.6791 3.39919 78.4587 2.88822 78.0662 2.51148C77.6738 2.13474 77.1415 1.9231 76.5865 1.9231ZM76.5865 5.172C76.331 5.17236 76.0811 5.09994 75.8684 4.9639C75.6557 4.82787 75.4899 4.63433 75.3918 4.40778C75.2938 4.18122 75.2679 3.93184 75.3175 3.69118C75.3672 3.45052 75.49 3.22939 75.6706 3.05579C75.8512 2.88219 76.0813 2.7639 76.3319 2.71591C76.5826 2.66792 76.8424 2.69236 77.0785 2.78617C77.3146 2.87997 77.5165 3.0389 77.6585 3.24286C77.8005 3.44682 77.8763 3.68664 77.8763 3.93197C77.8763 4.26053 77.7405 4.57566 77.4987 4.80816C77.2569 5.04066 76.9288 5.17151 76.5865 5.172V5.172Z" fill="white"/>
<path d="M76.5866 2.69727C76.331 2.69691 76.0811 2.76932 75.8684 2.90536C75.6558 3.0414 75.4899 3.23494 75.3918 3.46149C75.2938 3.68804 75.2679 3.93743 75.3176 4.17809C75.3672 4.41875 75.4901 4.63987 75.6706 4.81347C75.8512 4.98708 76.0814 5.10536 76.332 5.15336C76.5826 5.20135 76.8424 5.1769 77.0785 5.0831C77.3147 4.9893 77.5165 4.83036 77.6585 4.6264C77.8006 4.42244 77.8764 4.18262 77.8764 3.93729C77.8764 3.60873 77.7405 3.2936 77.4987 3.06111C77.2569 2.82861 76.9288 2.69775 76.5866 2.69727V2.69727Z" fill="#0072B1"/>
<path d="M73.4743 5.98283L73.9233 6.49235C73.9296 6.49942 73.9379 6.50447 73.9473 6.50683C73.9567 6.5092 73.9666 6.50877 73.9757 6.50559C73.9848 6.50241 73.9926 6.49665 73.9982 6.48906C74.0038 6.48147 74.0069 6.47243 74.007 6.46313V5.39478C73.8578 5.61291 73.6786 5.81071 73.4743 5.98283V5.98283Z" fill="white"/>
<path d="M64.364 7.81813C62.884 8.50115 62.0812 9.74665 62.0032 11.5218V17.9557H63.624V11.6788C63.6601 10.3731 64.4058 9.33757 65.5263 9.03989C65.8951 8.95728 66.2755 8.93261 66.6525 8.96684H66.8142V7.50584L66.6849 7.48575C65.8941 7.36054 65.0823 7.4768 64.364 7.81813V7.81813Z" fill="#373A36"/>
<path d="M15.1408 7.81808C13.6608 8.5011 12.858 9.7466 12.78 11.5217V17.9556H14.4008V11.6788C14.4388 10.373 15.1826 9.33752 16.3031 9.03984C16.6713 8.95723 17.051 8.93256 17.4274 8.96679H17.5891V7.50579L17.4597 7.4857C16.6696 7.361 15.8586 7.47725 15.1408 7.81808V7.81808Z" fill="#373A36"/>
<path d="M81.196 17.0097C80.9371 17.0094 80.6842 16.9353 80.4691 16.797C80.2541 16.6586 80.0867 16.4622 79.9879 16.2324C79.8892 16.0027 79.8637 15.75 79.9146 15.5064C79.9654 15.2627 80.0904 15.039 80.2737 14.8635C80.457 14.6881 80.6904 14.5687 80.9444 14.5206C81.1983 14.4725 81.4615 14.4977 81.7005 14.5932C81.9395 14.6886 82.1437 14.8499 82.2872 15.0568C82.4307 15.2636 82.5071 15.5066 82.5067 15.7551C82.5064 15.9201 82.4723 16.0835 82.4063 16.2358C82.3403 16.3882 82.2437 16.5265 82.122 16.643C82.0003 16.7595 81.8559 16.8519 81.697 16.9148C81.5381 16.9777 81.3678 17.01 81.196 17.0097V17.0097ZM81.196 14.6484C80.9675 14.6466 80.7437 14.7101 80.553 14.8308C80.3623 14.9515 80.2133 15.124 80.125 15.3262C80.0367 15.5285 80.0131 15.7514 80.0572 15.9666C80.1013 16.1817 80.2111 16.3795 80.3727 16.5345C80.5342 16.6896 80.7401 16.795 80.9643 16.8373C81.1884 16.8797 81.4206 16.857 81.6313 16.7723C81.842 16.6875 82.0216 16.5445 82.1474 16.3614C82.2731 16.1783 82.3393 15.9634 82.3374 15.7442C82.3374 15.4539 82.2174 15.1754 82.0037 14.97C81.7901 14.7645 81.5003 14.6489 81.1979 14.6484H81.196Z" fill="black"/>
<path d="M81.3424 15.8319C81.4403 15.887 81.5221 15.9649 81.5802 16.0584L81.8104 16.4072H81.4756L81.3862 16.2793C81.312 16.1752 81.2397 16.0711 81.1636 15.9689C81.1458 15.9439 81.1247 15.9212 81.1008 15.9013C81.0735 15.8762 81.0378 15.8613 81 15.8593C80.9486 15.8593 80.8973 15.8593 80.844 15.8593V16.4072H80.5815V15.0886H81.2435C81.3074 15.09 81.3711 15.0967 81.4337 15.1087C81.4944 15.1178 81.5511 15.1435 81.597 15.1826C81.6428 15.2218 81.676 15.2729 81.6924 15.3297C81.7108 15.3801 81.7185 15.4336 81.7149 15.487C81.7113 15.5403 81.6965 15.5924 81.6715 15.6402C81.6482 15.6854 81.6149 15.7253 81.5738 15.7568C81.5327 15.7884 81.4849 15.8109 81.4337 15.8228L81.3424 15.8319ZM80.8497 15.6493H81.0533H81.2549C81.2893 15.6493 81.3228 15.6384 81.35 15.6182C81.3751 15.6001 81.3944 15.5756 81.4058 15.5476C81.4172 15.5195 81.4203 15.489 81.4147 15.4594C81.4132 15.4307 81.4026 15.4033 81.3842 15.3807C81.3658 15.3581 81.3406 15.3416 81.312 15.3333C81.285 15.3245 81.2567 15.3202 81.2283 15.3206H80.8478L80.8497 15.6493Z" fill="black"/>
</g>
<defs>
<clipPath id="clip0">
<rect width="82.5048" height="23.04" fill="white"/>
</clipPath>
</defs>
</svg>
