<?xml version="1.0" encoding="UTF-8"?>
<svg width="121px" height="199px" viewBox="0 0 121 199" version="1.1" xmlns="http://www.w3.org/2000/svg" xmlns:xlink="http://www.w3.org/1999/xlink">
    <!-- Generator: Sketch 48 (47235) - http://www.bohemiancoding.com/sketch -->
    <title>Procki</title>
    <desc>Created with Sketch.</desc>
    <defs></defs>
    <g id="1.-Landing-Page" stroke="none" stroke-width="1" fill="none" fill-rule="evenodd" transform="translate(-452.000000, -180.000000)">
        <g id="Procki" transform="translate(452.000000, 180.000000)">
            <path d="M112.178543,176.624574 L112.178543,82 L95.0000085,82 L95.0000085,140.610742 C95.0000085,163.207666 80.14285,181.567663 57.6249699,181.332264 C35.3392848,181.096885 21.1785629,162.030741 21.1785629,139.433798 L21.1785629,94.4753772 C21.1785629,87.6492164 15.8392792,82.2354083 9.10713657,82.2354083 L4,82.2354083 L4,140.84615 C4,173.329222 27.2142832,199.692263 59.9464413,198.986138 C75.0357182,198.515376 85.2499818,191.924604 95.2321269,181.803062 C95.4642932,186.039989 96.1606963,189.33536 99.4106893,192.866125 C105.214272,199.4569 117.053556,198.515341 121,191.924584 C116.357153,190.512265 112.410709,186.981495 112.178543,176.624574 Z" id="Fill-1" fill="#00B3E3"></path>
            <path d="M9,44 C9,56.1701861 18.829785,66 30.9999952,66 C43.1702054,66 53,56.1702343 53,44 C53,31.8297657 43.1702054,22 30.9999952,22 C18.829785,22 9,31.8297657 9,44 Z M17.4255279,44 C17.4255279,36.5106547 23.5106306,30.4255617 30.9999903,30.4255617 C38.4893549,30.4255617 44.5744576,36.5106547 44.5744576,44 C44.5744576,51.4893936 38.4893549,57.5744866 30.9999903,57.5744866 C23.5106306,57.5744383 17.4255279,51.4893453 17.4255279,44 Z" id="Fill-3" fill="#FFFFFF"></path>
            <path d="M45,43.499976 C45,50.9558267 38.9558433,57 31.5,57 C24.0441519,57 18,50.9558267 18,43.499976 C18,36.0441253 24.0441519,30 31.5,30 C38.9558433,30 45,36.0441253 45,43.499976 Z" id="Fill-4" fill="#00B3E3"></path>
            <path d="M114.38245,11.2491878 C116,9.37548557 116,7.03335775 116,4.45699298 C116,1.17801402 115.53785,-0.695688239 113.227097,0.241162891 C113.227097,0.241162891 75.7928171,16.401869 58.0000017,16.401869 C40.2071672,16.401869 2.77291027,0.241162891 2.77291027,0.241162891 C0.231076602,-0.695688239 0,1.41225097 0,4.45699298 C0,7.03335775 0,9.37548557 1.6175318,11.2491878 L9.4741063,20.6177475 C3.69721208,26.2388542 0,34.4363258 0,43.1022229 C0,60.4339688 13.8645402,74.721021 31.1952195,74.721021 C38.1274902,74.721021 44.3665354,72.3788449 49.4501949,68.6314404 L56.3824513,77.2973375 C56.8446495,77.7657631 57.5378513,78 58.0000017,78 C58.4621521,78 59.1554016,77.7657631 59.617552,77.2973375 L66.5498085,68.6314404 C71.6334633,72.3788449 78.103617,74.721021 84.8047744,74.721021 C101.904388,74.721021 116,60.6682058 116,43.1022229 C116,34.2020888 112.302797,26.2388542 106.525892,20.6177475 L114.38245,11.2491878 Z M31.1952242,65.3524614 C19.1792892,65.3524614 9.47411107,55.5155245 9.47411107,43.3364115 C9.47411107,31.1572985 19.1792892,21.3203616 31.1952242,21.3203616 C43.2111593,21.3203616 52.916347,31.1572985 52.916347,43.3364115 C52.916347,55.5155245 43.2111593,65.3524614 31.1952242,65.3524614 Z M106.756991,43.3364115 C106.756991,55.5154762 97.0517846,65.3524614 85.0358734,65.3524614 C73.0199145,65.3524614 63.3147555,55.5155245 63.3147555,43.3364115 C63.3147555,31.1572985 73.0199145,21.3203616 85.0358734,21.3203616 C97.0517846,21.3203616 106.756991,31.1572985 106.756991,43.3364115 Z" id="Fill-5" fill="#00B3E3"></path>
            <path d="M85,21 C72.8297657,21 63,30.8297657 63,43 C63,55.1701861 72.8297657,65 85,65 C97.1701861,65 107,55.1701861 107,43 C107,30.8297657 97.1701861,21 85,21 Z M85,56.8084562 C77.5106064,56.8084562 71.4255134,50.7233632 71.4255134,43.2340179 C71.4255134,35.7446726 77.5106064,29.6595313 85,29.6595313 C92.4893453,29.6595313 98.5744383,35.7446726 98.5744383,43.2340179 C98.5744383,50.7233632 92.4893453,56.8084562 85,56.8084562 Z" id="Fill-6" fill="#FFFFFF"></path>
            <path d="M99,43.499976 C99,50.9558267 92.9558747,57 85.500024,57 C78.0441733,57 72,50.9558267 72,43.499976 C72,36.0441253 78.0441733,30 85.500024,30 C92.9558747,30 99,36.0441253 99,43.499976 Z" id="Fill-7" fill="#00B3E3"></path>
            <path d="M53,66.219991 L57.4103605,71.7488507 C57.6308535,72.209589 58.2924235,71.9792436 58.2924235,71.5185053 L58.2924235,60 C56.7487905,62.0733462 54.9846645,64.3770377 53,66.219991 Z" id="Fill-8" fill="#FFFFFF"></path>
        </g>
    </g>
</svg>