<svg width="413" height="304" viewBox="0 0 413 304" fill="none" xmlns="http://www.w3.org/2000/svg">
<rect x="22.5" y="23.5" width="382" height="280" rx="5.5" fill="white" stroke="#393A36"/>
<path d="M28 23.5H399C402.038 23.5 404.5 25.9624 404.5 29V71.5H22.5V29C22.5 25.9624 24.9624 23.5 28 23.5Z" fill="#EBEBEB" stroke="black"/>
<path d="M22.5 37.5H328C333.247 37.5 337.5 41.7533 337.5 47C337.5 52.2467 333.247 56.5 328 56.5H22.5V37.5Z" fill="white" stroke="black"/>
<path d="M322 42L323.123 45.8004H326.755L323.816 48.1492L324.939 51.9496L322 49.6008L319.061 51.9496L320.184 48.1492L317.245 45.8004H320.877L322 42Z" fill="#393A36"/>
<path d="M355.39 44.3092L355.796 44.7841C355.801 44.7911 355.808 44.7962 355.816 44.7987C355.824 44.8013 355.833 44.801 355.841 44.7981C355.849 44.7951 355.856 44.7895 355.861 44.7823C355.865 44.775 355.868 44.7665 355.867 44.7579V43.7127C355.742 43.9344 355.582 44.1346 355.394 44.3054L355.39 44.3092Z" fill="white"/>
<path d="M360.07 52.9809V45.4759H358.688V50.1277C358.688 51.9189 357.497 53.3736 355.676 53.3605C353.885 53.3474 352.741 51.8198 352.741 50.0286V46.4575C352.741 46.1976 352.637 45.9484 352.454 45.7647C352.27 45.581 352.021 45.4777 351.761 45.4777H351.363V50.1277C351.363 52.7154 353.232 54.802 355.863 54.7366C357.082 54.703 357.899 54.1757 358.698 53.3661C358.694 53.689 358.812 54.0015 359.029 54.2411C359.498 54.7721 360.451 54.688 360.769 54.1589C360.412 54.099 360.089 53.8092 360.07 52.9809Z" fill="#00B3E3"/>
<path d="M351.77 42.4581C351.77 42.8072 351.874 43.1485 352.068 43.4387C352.262 43.729 352.537 43.9552 352.86 44.0888C353.182 44.2224 353.537 44.2573 353.88 44.1892C354.222 44.1211 354.536 43.953 354.783 43.7062C355.03 43.4594 355.198 43.1449 355.266 42.8025C355.334 42.4601 355.3 42.1052 355.166 41.7827C355.032 41.4602 354.806 41.1845 354.516 40.9906C354.226 40.7966 353.884 40.6931 353.535 40.6931C353.067 40.6931 352.618 40.8791 352.287 41.2101C351.956 41.5411 351.77 41.99 351.77 42.4581V42.4581ZM352.449 42.4581C352.449 42.2433 352.513 42.0333 352.632 41.8546C352.751 41.676 352.921 41.5367 353.12 41.4545C353.318 41.3723 353.536 41.3508 353.747 41.3927C353.958 41.4346 354.151 41.5381 354.303 41.69C354.455 41.8419 354.559 42.0355 354.601 42.2462C354.643 42.4569 354.621 42.6754 354.539 42.8739C354.457 43.0724 354.317 43.242 354.139 43.3614C353.96 43.4807 353.75 43.5444 353.535 43.5444C353.247 43.5444 352.971 43.43 352.767 43.2263C352.563 43.0226 352.449 42.7462 352.449 42.4581Z" fill="white"/>
<path d="M353.533 43.5445C354.133 43.5445 354.62 43.0581 354.62 42.4582C354.62 41.8582 354.133 41.3718 353.533 41.3718C352.933 41.3718 352.447 41.8582 352.447 42.4582C352.447 43.0581 352.933 43.5445 353.533 43.5445Z" fill="#00B3E3"/>
<path d="M360.268 39.9078C360.377 39.7479 360.422 39.5533 360.395 39.3619C360.395 39.1057 360.363 38.9412 360.167 39.0197C360.167 39.0197 357.142 40.3173 355.699 40.3173C354.255 40.3173 351.234 39.0272 351.234 39.0272C351.037 38.9487 351.006 39.1113 351.006 39.3694C350.983 39.5593 351.031 39.7509 351.14 39.9078L351.772 40.6557C351.313 41.0994 351.04 41.7007 351.008 42.338C350.976 42.9753 351.187 43.601 351.599 44.0885C352.011 44.576 352.592 44.8889 353.226 44.9639C353.86 45.0389 354.498 44.8704 355.012 44.4924L355.573 45.1767C355.608 45.211 355.655 45.2302 355.704 45.2302C355.753 45.2302 355.8 45.211 355.835 45.1767L356.396 44.4924C356.825 44.8083 357.344 44.9787 357.877 44.9785C358.378 44.979 358.868 44.8299 359.284 44.5504C359.7 44.2709 360.023 43.8736 360.212 43.4094C360.401 42.9453 360.447 42.4353 360.344 41.9447C360.242 41.4542 359.995 41.0054 359.636 40.6557L360.268 39.9078ZM353.533 44.2232C353.184 44.2232 352.843 44.1196 352.553 43.9257C352.263 43.7318 352.036 43.4561 351.903 43.1336C351.769 42.8111 351.734 42.4562 351.802 42.1138C351.87 41.7714 352.038 41.4569 352.285 41.2101C352.532 40.9632 352.847 40.7951 353.189 40.727C353.531 40.6589 353.886 40.6939 354.209 40.8275C354.531 40.9611 354.807 41.1873 355.001 41.4775C355.195 41.7678 355.298 42.1091 355.298 42.4581C355.298 42.9263 355.112 43.3752 354.781 43.7062C354.45 44.0372 354.001 44.2232 353.533 44.2232V44.2232ZM359.647 42.4581C359.647 42.8072 359.544 43.1485 359.35 43.4387C359.156 43.729 358.88 43.9552 358.558 44.0888C358.235 44.2224 357.88 44.2573 357.538 44.1892C357.196 44.1211 356.881 43.953 356.634 43.7062C356.387 43.4594 356.219 43.1449 356.151 42.8025C356.083 42.4601 356.118 42.1052 356.252 41.7827C356.385 41.4602 356.612 41.1845 356.902 40.9906C357.192 40.7966 357.533 40.6931 357.882 40.6931C358.35 40.6931 358.799 40.8791 359.13 41.2101C359.461 41.5411 359.647 41.99 359.647 42.4581V42.4581Z" fill="#00B3E3"/>
<path d="M357.877 40.6931C357.528 40.6942 357.187 40.7987 356.898 40.9933C356.608 41.1879 356.383 41.464 356.25 41.7866C356.117 42.1092 356.083 42.4639 356.152 42.8059C356.221 43.1479 356.389 43.4619 356.636 43.7082C356.883 43.9544 357.198 44.122 357.54 44.1896C357.882 44.2573 358.237 44.222 358.559 44.0883C358.881 43.9545 359.157 43.7283 359.35 43.4381C359.544 43.148 359.647 42.807 359.647 42.4581C359.647 42.2259 359.602 41.9959 359.512 41.7814C359.423 41.5669 359.293 41.3721 359.128 41.2081C358.964 41.0441 358.769 40.9142 358.554 40.8259C358.339 40.7375 358.109 40.6924 357.877 40.6931V40.6931ZM357.877 43.5445C357.662 43.5445 357.452 43.4807 357.273 43.3614C357.095 43.242 356.955 43.0724 356.873 42.8739C356.791 42.6754 356.769 42.4569 356.811 42.2462C356.853 42.0355 356.957 41.8419 357.109 41.69C357.261 41.5381 357.454 41.4346 357.665 41.3927C357.876 41.3508 358.094 41.3723 358.292 41.4545C358.491 41.5367 358.661 41.676 358.78 41.8546C358.899 42.0333 358.963 42.2433 358.963 42.4581C358.963 42.7462 358.849 43.0226 358.645 43.2263C358.441 43.43 358.165 43.5445 357.877 43.5445V43.5445Z" fill="white"/>
<path d="M357.877 43.5445C358.477 43.5445 358.963 43.0581 358.963 42.4582C358.963 41.8582 358.477 41.3718 357.877 41.3718C357.277 41.3718 356.79 41.8582 356.79 42.4582C356.79 43.0581 357.277 43.5445 357.877 43.5445Z" fill="#00B3E3"/>
<path d="M355.261 44.2493L355.635 44.6962C355.64 44.7032 355.647 44.7083 355.655 44.7109C355.664 44.7134 355.672 44.7132 355.68 44.7102C355.689 44.7072 355.695 44.7017 355.7 44.6944C355.705 44.6872 355.707 44.6786 355.706 44.67V43.7352C355.581 43.9257 355.432 44.0986 355.261 44.2493V44.2493Z" fill="white"/>
<rect x="200.5" y="62.5" width="161" height="226" rx="5.5" fill="#FBFBFB" stroke="black"/>
<rect x="217.5" y="237.5" width="128" height="36" rx="2.5" fill="white" stroke="#2D9CDB"/>
<path d="M270.5 260.188C272.992 260.188 274.664 258.945 275.18 256.719H273.758C273.352 258.094 272.164 258.891 270.508 258.891C268.281 258.891 266.867 257.125 266.867 254.359C266.867 251.617 268.297 249.836 270.5 249.836C272.109 249.836 273.398 250.805 273.758 252.281H275.18C274.82 250.031 272.953 248.539 270.5 248.539C267.414 248.539 265.422 250.82 265.422 254.359C265.422 257.93 267.391 260.188 270.5 260.188ZM276.703 260H278.062V255.266C278.062 253.859 278.898 252.938 280.25 252.938C281.523 252.938 282.172 253.711 282.172 255V260H283.531V254.75C283.531 252.938 282.453 251.734 280.672 251.734C279.438 251.734 278.547 252.266 278.094 253.172H278.062V248.727H276.703V260ZM287.938 258.984C286.961 258.984 286.312 258.477 286.312 257.703C286.312 256.938 286.938 256.453 288.031 256.383L290.203 256.25V256.914C290.203 258.086 289.219 258.984 287.938 258.984ZM287.633 260.141C288.727 260.141 289.758 259.531 290.242 258.602H290.273V260H291.562V254.383C291.562 252.766 290.359 251.734 288.453 251.734C286.531 251.734 285.328 252.812 285.234 254.219H286.547C286.719 253.422 287.375 252.93 288.422 252.93C289.547 252.93 290.203 253.523 290.203 254.516V255.195L287.875 255.328C286 255.438 284.93 256.312 284.93 257.703C284.93 259.164 286.016 260.141 287.633 260.141ZM293.727 249.914V251.875H292.516V252.992H293.727V257.891C293.727 259.453 294.305 260.062 295.797 260.062C296.117 260.062 296.492 260.039 296.656 260V258.859C296.562 258.875 296.25 258.898 296.094 258.898C295.398 258.898 295.086 258.562 295.086 257.82V252.992H296.664V251.875H295.086V249.914H293.727Z" fill="#2D9CDB"/>
<rect x="217" y="196" width="129" height="37" rx="3" fill="#2D9CDB"/>
<path d="M257.781 221.188C260.273 221.188 261.945 219.945 262.461 217.719H261.039C260.633 219.094 259.445 219.891 257.789 219.891C255.562 219.891 254.148 218.125 254.148 215.359C254.148 212.617 255.578 210.836 257.781 210.836C259.391 210.836 260.68 211.805 261.039 213.281H262.461C262.102 211.031 260.234 209.539 257.781 209.539C254.695 209.539 252.703 211.82 252.703 215.359C252.703 218.93 254.672 221.188 257.781 221.188ZM263.984 221H265.344V216.266C265.344 214.859 266.18 213.938 267.531 213.938C268.805 213.938 269.453 214.711 269.453 216V221H270.812V215.75C270.812 213.938 269.734 212.734 267.953 212.734C266.719 212.734 265.828 213.266 265.375 214.172H265.344V209.727H263.984V221ZM275.797 213.914C277.078 213.914 277.93 214.883 277.961 216.242H273.547C273.633 214.891 274.523 213.914 275.797 213.914ZM277.93 218.672C277.703 219.438 276.945 219.961 275.914 219.961C274.453 219.961 273.539 218.938 273.539 217.383V217.305H279.367V216.789C279.367 214.328 278.016 212.734 275.82 212.734C273.578 212.734 272.141 214.445 272.141 216.969C272.141 219.523 273.555 221.141 275.883 221.141C277.656 221.141 279.031 220.094 279.266 218.672H277.93ZM287.492 215.539C287.32 214.078 286.109 212.734 284.078 212.734C281.836 212.734 280.344 214.375 280.344 216.938C280.344 219.555 281.844 221.141 284.094 221.141C285.938 221.141 287.297 220 287.508 218.383H286.172C285.938 219.359 285.211 219.945 284.102 219.945C282.695 219.945 281.727 218.828 281.727 216.938C281.727 215.094 282.68 213.93 284.086 213.93C285.281 213.93 285.969 214.656 286.164 215.539H287.492ZM290.188 216.484V209.727H288.828V221H290.188V217.938L290.945 217.219L293.961 221H295.539L291.906 216.383L295.43 212.875H293.781L290.188 216.484ZM301.422 221V209.727H300.016V221H301.422ZM303.398 221H304.758V216.219C304.758 214.844 305.594 213.938 306.875 213.938C308.125 213.938 308.742 214.656 308.742 215.969V221H310.102V215.727C310.102 213.883 309.07 212.734 307.289 212.734C306.031 212.734 305.164 213.297 304.711 214.172H304.68V212.875H303.398V221Z" fill="white"/>
<rect x="233" y="168" width="111" height="10" rx="5" fill="#393A36"/>
<path d="M221.383 172.086C221.862 172.086 222.273 171.945 222.617 171.664C222.966 171.383 223.141 170.979 223.141 170.453C223.141 170.052 223.003 169.708 222.727 169.422C222.451 169.13 222.078 168.984 221.609 168.984C221.292 168.984 221.029 169.029 220.82 169.117C220.617 169.206 220.456 169.323 220.336 169.469C220.216 169.615 220.102 169.802 219.992 170.031C219.888 170.26 219.792 170.477 219.703 170.68C219.651 170.789 219.557 170.875 219.422 170.938C219.286 171 219.13 171.031 218.953 171.031C218.745 171.031 218.552 170.948 218.375 170.781C218.203 170.609 218.117 170.383 218.117 170.102C218.117 169.831 218.198 169.547 218.359 169.25C218.526 168.948 218.766 168.661 219.078 168.391C219.396 168.12 219.789 167.904 220.258 167.742C220.727 167.576 221.25 167.492 221.828 167.492C222.333 167.492 222.794 167.562 223.211 167.703C223.628 167.839 223.99 168.036 224.297 168.297C224.604 168.557 224.836 168.859 224.992 169.203C225.148 169.547 225.227 169.917 225.227 170.312C225.227 170.833 225.112 171.281 224.883 171.656C224.659 172.026 224.336 172.388 223.914 172.742C224.32 172.961 224.661 173.211 224.938 173.492C225.219 173.773 225.43 174.086 225.57 174.43C225.711 174.768 225.781 175.135 225.781 175.531C225.781 176.005 225.685 176.464 225.492 176.906C225.305 177.349 225.026 177.745 224.656 178.094C224.286 178.438 223.846 178.708 223.336 178.906C222.831 179.099 222.271 179.195 221.656 179.195C221.031 179.195 220.471 179.083 219.977 178.859C219.482 178.635 219.073 178.357 218.75 178.023C218.432 177.685 218.19 177.336 218.023 176.977C217.862 176.617 217.781 176.32 217.781 176.086C217.781 175.784 217.878 175.542 218.07 175.359C218.268 175.172 218.513 175.078 218.805 175.078C218.951 175.078 219.091 175.122 219.227 175.211C219.362 175.294 219.451 175.396 219.492 175.516C219.763 176.24 220.052 176.779 220.359 177.133C220.672 177.482 221.109 177.656 221.672 177.656C221.995 177.656 222.305 177.578 222.602 177.422C222.904 177.26 223.151 177.023 223.344 176.711C223.542 176.398 223.641 176.036 223.641 175.625C223.641 175.016 223.474 174.539 223.141 174.195C222.807 173.846 222.344 173.672 221.75 173.672C221.646 173.672 221.484 173.682 221.266 173.703C221.047 173.724 220.906 173.734 220.844 173.734C220.557 173.734 220.336 173.664 220.18 173.523C220.023 173.378 219.945 173.177 219.945 172.922C219.945 172.672 220.039 172.471 220.227 172.32C220.414 172.164 220.693 172.086 221.062 172.086H221.383Z" fill="#393A36"/>
<rect x="233" y="142" width="111" height="10" rx="5" fill="#393A36"/>
<path d="M220.57 151.156H224.648C225.055 151.156 225.365 151.24 225.578 151.406C225.792 151.573 225.898 151.799 225.898 152.086C225.898 152.341 225.812 152.557 225.641 152.734C225.474 152.911 225.219 153 224.875 153H219.125C218.734 153 218.43 152.893 218.211 152.68C217.992 152.461 217.883 152.206 217.883 151.914C217.883 151.727 217.953 151.479 218.094 151.172C218.234 150.859 218.388 150.615 218.555 150.438C219.247 149.719 219.872 149.104 220.43 148.594C220.987 148.078 221.385 147.74 221.625 147.578C222.052 147.276 222.406 146.974 222.688 146.672C222.974 146.365 223.19 146.052 223.336 145.734C223.487 145.411 223.562 145.096 223.562 144.789C223.562 144.456 223.482 144.159 223.32 143.898C223.164 143.633 222.948 143.427 222.672 143.281C222.401 143.135 222.104 143.062 221.781 143.062C221.099 143.062 220.562 143.362 220.172 143.961C220.12 144.039 220.031 144.253 219.906 144.602C219.786 144.951 219.648 145.219 219.492 145.406C219.341 145.594 219.117 145.688 218.82 145.688C218.56 145.688 218.344 145.602 218.172 145.43C218 145.258 217.914 145.023 217.914 144.727C217.914 144.367 217.995 143.992 218.156 143.602C218.318 143.211 218.557 142.857 218.875 142.539C219.198 142.221 219.604 141.966 220.094 141.773C220.589 141.576 221.167 141.477 221.828 141.477C222.625 141.477 223.305 141.602 223.867 141.852C224.232 142.018 224.552 142.247 224.828 142.539C225.104 142.831 225.318 143.169 225.469 143.555C225.625 143.935 225.703 144.331 225.703 144.742C225.703 145.388 225.542 145.977 225.219 146.508C224.901 147.034 224.576 147.448 224.242 147.75C223.909 148.047 223.349 148.516 222.562 149.156C221.781 149.797 221.245 150.294 220.953 150.648C220.828 150.789 220.701 150.958 220.57 151.156Z" fill="#393A36"/>
<rect x="233" y="116" width="111" height="10" rx="5" fill="#393A36"/>
<path d="M221.516 125.93V118.82C220.193 119.836 219.302 120.344 218.844 120.344C218.625 120.344 218.43 120.258 218.258 120.086C218.091 119.909 218.008 119.706 218.008 119.477C218.008 119.211 218.091 119.016 218.258 118.891C218.424 118.766 218.719 118.604 219.141 118.406C219.771 118.109 220.273 117.797 220.648 117.469C221.029 117.141 221.365 116.773 221.656 116.367C221.948 115.961 222.138 115.711 222.227 115.617C222.315 115.523 222.482 115.477 222.727 115.477C223.003 115.477 223.224 115.583 223.391 115.797C223.557 116.01 223.641 116.305 223.641 116.68V125.625C223.641 126.672 223.284 127.195 222.57 127.195C222.253 127.195 221.997 127.089 221.805 126.875C221.612 126.661 221.516 126.346 221.516 125.93Z" fill="#393A36"/>
<g clip-path="url(#clip0)">
<path d="M316.259 79.9382L316.767 80.5333C316.773 80.5421 316.782 80.5486 316.793 80.5517C316.803 80.5549 316.814 80.5546 316.824 80.5509C316.834 80.5471 316.843 80.5402 316.849 80.5311C316.855 80.522 316.857 80.5113 316.856 80.5005V79.1907C316.7 79.4685 316.5 79.7194 316.263 79.9335L316.259 79.9382Z" fill="white"/>
<path d="M322.124 90.8057V81.4003H320.392V87.2301C320.392 89.4748 318.899 91.2978 316.617 91.2814C314.372 91.265 312.938 89.3506 312.938 87.1059V82.6305C312.938 82.3048 312.809 81.9925 312.579 81.7623C312.349 81.532 312.036 81.4026 311.711 81.4026H311.212V87.2301C311.212 90.473 313.555 93.088 316.852 93.006C318.379 92.9638 319.403 92.303 320.404 91.2884C320.399 91.6931 320.547 92.0847 320.818 92.385C321.407 93.0505 322.602 92.945 323 92.2819C322.552 92.2069 322.147 91.8438 322.124 90.8057Z" fill="#00B3E3"/>
<path d="M311.722 77.6184C311.722 78.0559 311.852 78.4836 312.095 78.8473C312.338 79.2111 312.684 79.4946 313.088 79.662C313.492 79.8294 313.937 79.8732 314.366 79.7879C314.795 79.7025 315.189 79.4919 315.498 79.1825C315.808 78.8732 316.018 78.479 316.104 78.05C316.189 77.6209 316.145 77.1761 315.978 76.772C315.81 76.3678 315.527 76.0223 315.163 75.7793C314.799 75.5362 314.372 75.4065 313.934 75.4065C313.348 75.4065 312.785 75.6395 312.37 76.0544C311.955 76.4692 311.722 77.0318 311.722 77.6184V77.6184ZM312.573 77.6184C312.573 77.3492 312.653 77.086 312.802 76.8621C312.952 76.6382 313.165 76.4637 313.413 76.3607C313.662 76.2577 313.936 76.2307 314.2 76.2832C314.464 76.3358 314.707 76.4654 314.897 76.6558C315.087 76.8462 315.217 77.0888 315.27 77.3529C315.322 77.6169 315.295 77.8907 315.192 78.1394C315.089 78.3882 314.915 78.6008 314.691 78.7504C314.467 78.9 314.204 78.9798 313.934 78.9798C313.573 78.9798 313.227 78.8364 312.972 78.5811C312.716 78.3258 312.573 77.9795 312.573 77.6184Z" fill="white"/>
<path d="M313.932 78.9798C314.684 78.9798 315.293 78.3703 315.293 77.6184C315.293 76.8666 314.684 76.2571 313.932 76.2571C313.18 76.2571 312.571 76.8666 312.571 77.6184C312.571 78.3703 313.18 78.9798 313.932 78.9798Z" fill="#00B3E3"/>
<path d="M322.372 74.4224C322.508 74.2219 322.565 73.9781 322.531 73.7382C322.531 73.4172 322.492 73.211 322.245 73.3094C322.245 73.3094 318.454 74.9355 316.645 74.9355C314.836 74.9355 311.05 73.3187 311.05 73.3187C310.804 73.2203 310.764 73.4242 310.764 73.7475C310.736 73.9856 310.796 74.2257 310.933 74.4224L311.725 75.3596C311.15 75.9156 310.808 76.6692 310.767 77.4678C310.727 78.2665 310.992 79.0507 311.508 79.6616C312.024 80.2726 312.753 80.6647 313.547 80.7587C314.341 80.8527 315.141 80.6415 315.785 80.1678L316.488 81.0254C316.532 81.0683 316.591 81.0924 316.652 81.0924C316.714 81.0924 316.773 81.0683 316.816 81.0254L317.519 80.1678C318.057 80.5637 318.707 80.7772 319.375 80.777C320.003 80.7776 320.617 80.5908 321.138 80.2405C321.66 79.8902 322.065 79.3923 322.301 78.8106C322.538 78.2289 322.596 77.5898 322.467 76.975C322.339 76.3603 322.03 75.7978 321.58 75.3596L322.372 74.4224ZM313.932 79.8304C313.494 79.8304 313.067 79.7007 312.703 79.4576C312.339 79.2146 312.056 78.8691 311.888 78.4649C311.721 78.0607 311.677 77.616 311.763 77.1869C311.848 76.7578 312.059 76.3637 312.368 76.0544C312.677 75.745 313.071 75.5344 313.5 75.449C313.93 75.3637 314.374 75.4075 314.778 75.5749C315.183 75.7423 315.528 76.0258 315.771 76.3896C316.014 76.7533 316.144 77.181 316.144 77.6184C316.144 78.2051 315.911 78.7677 315.496 79.1825C315.081 79.5973 314.519 79.8304 313.932 79.8304V79.8304ZM321.594 77.6184C321.594 78.0559 321.464 78.4836 321.221 78.8473C320.978 79.2111 320.633 79.4946 320.229 79.662C319.824 79.8294 319.38 79.8732 318.951 79.7879C318.522 79.7025 318.127 79.4919 317.818 79.1825C317.509 78.8732 317.298 78.479 317.213 78.05C317.127 77.6209 317.171 77.1761 317.339 76.772C317.506 76.3678 317.79 76.0223 318.153 75.7793C318.517 75.5362 318.945 75.4065 319.382 75.4065C319.969 75.4065 320.531 75.6395 320.946 76.0544C321.361 76.4692 321.594 77.0318 321.594 77.6184V77.6184Z" fill="#00B3E3"/>
<path d="M319.375 75.4065C318.938 75.4079 318.511 75.5388 318.148 75.7827C317.785 76.0266 317.503 76.3725 317.337 76.7768C317.17 77.1811 317.127 77.6257 317.214 78.0543C317.3 78.4829 317.511 78.8763 317.821 79.185C318.13 79.4936 318.524 79.7036 318.953 79.7884C319.382 79.8732 319.826 79.829 320.23 79.6613C320.634 79.4937 320.979 79.2102 321.222 78.8466C321.465 78.483 321.594 78.0556 321.594 77.6184C321.594 77.3274 321.537 77.0392 321.425 76.7703C321.313 76.5015 321.15 76.2574 320.944 76.0519C320.738 75.8464 320.493 75.6836 320.224 75.5729C319.955 75.4621 319.666 75.4056 319.375 75.4065V75.4065ZM319.375 78.9798C319.106 78.9798 318.843 78.9 318.619 78.7504C318.395 78.6008 318.22 78.3882 318.117 78.1394C318.014 77.8907 317.987 77.6169 318.04 77.3529C318.092 77.0888 318.222 76.8462 318.413 76.6558C318.603 76.4654 318.845 76.3358 319.11 76.2832C319.374 76.2307 319.647 76.2577 319.896 76.3607C320.145 76.4637 320.357 76.6382 320.507 76.8621C320.657 77.086 320.737 77.3492 320.737 77.6184C320.737 77.9795 320.593 78.3258 320.338 78.5811C320.082 78.8364 319.736 78.9798 319.375 78.9798V78.9798Z" fill="white"/>
<path d="M319.375 78.9798C320.127 78.9798 320.736 78.3703 320.736 77.6184C320.736 76.8666 320.127 76.2571 319.375 76.2571C318.623 76.2571 318.014 76.8666 318.014 77.6184C318.014 78.3703 318.623 78.9798 319.375 78.9798Z" fill="#00B3E3"/>
<path d="M316.097 79.8632L316.566 80.4232C316.572 80.432 316.581 80.4384 316.591 80.4416C316.602 80.4448 316.613 80.4445 316.623 80.4407C316.633 80.437 316.641 80.4301 316.647 80.421C316.653 80.4119 316.656 80.4011 316.655 80.3904V79.2188C316.498 79.4576 316.311 79.6743 316.097 79.8632V79.8632Z" fill="white"/>
<path d="M263.952 81.4097H263.931C262.778 81.3999 261.647 81.7327 260.683 82.3659C259.719 82.9991 258.964 83.9043 258.515 84.9666C258.066 86.029 257.942 87.2009 258.159 88.3338C258.376 89.4667 258.924 90.5097 259.735 91.3306C260.273 91.8728 260.913 92.3026 261.619 92.595C262.324 92.8875 263.081 93.0367 263.845 93.0341H263.863C265.386 93.0175 266.842 92.4038 267.917 91.3251C268.993 90.2463 269.602 88.7887 269.613 87.2656C269.625 85.7425 269.038 84.2757 267.98 83.1806C266.921 82.0855 265.475 81.4496 263.952 81.4097V81.4097ZM263.889 91.3845H263.877C263.343 91.386 262.813 91.2814 262.319 91.0766C261.825 90.8719 261.377 90.5712 261 90.1918C260.61 89.7963 260.303 89.3273 260.096 88.8121C259.888 88.2968 259.786 87.7455 259.793 87.1902C259.79 86.6403 259.897 86.0953 260.106 85.5868C260.316 85.0784 260.625 84.6166 261.014 84.2285C261.787 83.4692 262.829 83.0478 263.913 83.0569H263.943C266.202 83.0733 267.962 84.9197 267.952 87.2605C267.943 89.6014 266.19 91.3845 263.884 91.3845H263.889Z" fill="#383A35"/>
<path d="M289.408 83.0452V81.405H286.393V78.4081H284.685V81.4073H283.747V83.0475H284.685V88.5329C284.776 90.4824 285.622 91.8508 287.173 92.6006C287.844 92.9314 288.594 93.0685 289.338 92.9966V91.3564C289.023 91.3717 288.707 91.3417 288.401 91.2673C287.229 90.9393 286.44 89.8029 286.4 88.3712V83.0452H289.408Z" fill="#383A35"/>
<path d="M254.854 81.815C253.293 82.5649 252.455 83.9239 252.365 85.8828V93.0294H254.074V86.0562C254.111 84.6245 254.898 83.4787 256.075 83.16C256.463 83.0692 256.863 83.0423 257.26 83.0803H257.431V81.4706L257.295 81.4495C256.463 81.3137 255.61 81.4416 254.854 81.815V81.815Z" fill="#383A35"/>
<path d="M306.572 81.794C305.012 82.5438 304.173 83.9028 304.084 85.8617V93.0083H305.792V86.0327C305.829 84.6011 306.617 83.4553 307.793 83.1366C308.181 83.0458 308.582 83.0189 308.979 83.0569H309.15V81.4401L309.014 81.419C308.181 81.2862 307.327 81.4173 306.572 81.794V81.794Z" fill="#383A35"/>
<path d="M277.046 91.3353C275.969 91.3096 274.945 90.8637 274.192 90.0929C273.439 89.3221 273.018 88.2875 273.018 87.2102C273.018 86.1328 273.439 85.0982 274.192 84.3274C274.945 83.5566 275.969 83.1107 277.046 83.085C277.671 83.0865 278.288 83.2338 278.846 83.5153C279.405 83.7968 279.89 84.2046 280.263 84.7065H282.276C281.704 83.5238 280.747 82.5703 279.562 82.0019C278.378 81.4335 277.035 81.2839 275.755 81.5775C274.474 81.8711 273.331 82.5906 272.512 83.6182C271.693 84.6458 271.247 85.9209 271.247 87.2348C271.247 88.5487 271.693 89.8237 272.512 90.8513C273.331 91.879 274.474 92.5984 275.755 92.892C277.035 93.1856 278.378 93.036 279.562 92.4676C280.747 91.8992 281.704 90.9457 282.276 89.763H280.24C279.864 90.2527 279.38 90.6492 278.826 90.9218C278.272 91.1945 277.663 91.336 277.046 91.3353V91.3353Z" fill="#383A35"/>
<path d="M244.589 81.4097C243.067 81.4102 241.606 82.0085 240.521 83.0757H238.646V98.5405H240.401V91.2767C241.069 91.9688 241.899 92.4845 242.815 92.7779C243.731 93.0712 244.706 93.133 245.651 92.9577C246.597 92.7824 247.485 92.3755 248.235 91.7734C248.985 91.1712 249.575 90.3926 249.95 89.5071C250.326 88.6215 250.477 87.6567 250.389 86.6988C250.3 85.7409 249.976 84.8197 249.445 84.0176C248.914 83.2156 248.193 82.5576 247.345 82.1025C246.498 81.6474 245.551 81.4094 244.589 81.4097ZM244.589 91.4126C243.762 91.4126 242.955 91.1676 242.267 90.7085C241.58 90.2495 241.045 89.597 240.729 88.8336C240.413 88.0702 240.33 87.2301 240.491 86.4197C240.652 85.6093 241.05 84.8649 241.634 84.2806C242.219 83.6963 242.963 83.2984 243.773 83.1372C244.584 82.976 245.424 83.0587 246.187 83.3749C246.951 83.6911 247.603 84.2266 248.062 84.9137C248.521 85.6007 248.766 86.4085 248.766 87.2348C248.767 87.7836 248.659 88.3271 248.449 88.8343C248.239 89.3414 247.932 89.8023 247.544 90.1905C247.156 90.5787 246.695 90.8866 246.188 91.0967C245.681 91.3068 245.137 91.415 244.589 91.415V91.4126Z" fill="#383A35"/>
<path d="M302.193 87.2113C302.193 88.3612 301.853 89.4854 301.214 90.4417C300.576 91.398 299.668 92.1435 298.606 92.5839C297.543 93.0242 296.374 93.1397 295.247 92.9156C294.119 92.6916 293.083 92.1381 292.27 91.3252C291.456 90.5123 290.902 89.4764 290.678 88.3487C290.453 87.2209 290.568 86.0519 291.008 84.9895C291.448 83.9271 292.193 83.0191 293.149 82.3802C294.105 81.7413 295.229 81.4003 296.379 81.4003C297.921 81.4003 299.399 82.0125 300.489 83.1022C301.579 84.1919 302.192 85.6699 302.193 87.2113V87.2113ZM296.379 83.0475C295.556 83.0475 294.751 83.2917 294.066 83.7493C293.381 84.2068 292.848 84.8571 292.533 85.6179C292.217 86.3788 292.135 87.216 292.296 88.0236C292.456 88.8313 292.853 89.5733 293.435 90.1556C294.017 90.7379 294.759 91.1345 295.567 91.2951C296.375 91.4558 297.212 91.3733 297.973 91.0582C298.734 90.743 299.384 90.2093 299.841 89.5246C300.299 88.8399 300.543 88.0349 300.543 87.2113C300.543 86.6645 300.435 86.1231 300.226 85.6179C300.017 85.1127 299.71 84.6537 299.324 84.2671C298.937 83.8804 298.478 83.5737 297.973 83.3645C297.468 83.1552 296.926 83.0475 296.379 83.0475V83.0475Z" fill="#383A35"/>
</g>
<path d="M193.235 119.257H162.232C161.552 119.257 161 119.813 161 120.499V126.296C161 126.982 161.552 127.538 162.232 127.538H193.235V132.306C193.235 134.52 195.889 135.628 197.442 134.063L206.278 125.155C207.241 124.184 207.241 122.611 206.278 121.641L197.442 112.733C195.889 111.168 193.235 112.276 193.235 114.489V119.257V119.257Z" fill="#FF0000"/>
<path d="M380.765 52.6406L411.768 52.6406C412.448 52.6406 413 52.0844 413 51.3984L413 45.6016C413 44.9156 412.448 44.3594 411.768 44.3594L380.765 44.3594L380.765 39.5915C380.765 37.3782 378.111 36.2697 376.558 37.8348L367.722 46.7432C366.759 47.7135 366.759 49.2865 367.722 50.2567L376.558 59.1651C378.111 60.7302 380.765 59.6217 380.765 57.4083L380.765 52.6406V52.6406Z" fill="#FF0000"/>
<circle cx="22.5" cy="22.5" r="21" fill="#393A36" stroke="white" stroke-width="3"/>
<path d="M18.167 20.0527H20.0303C20.0303 18.6992 21.1289 17.7061 22.5791 17.7061C23.9238 17.7061 24.8027 18.6201 24.8027 19.7891C24.8027 20.7822 24.416 21.4326 22.7461 23.1377L18.2725 27.6465V29H26.9473V27.3389H20.9092V27.2949L23.792 24.4033C26.0596 22.1357 26.7451 21.125 26.7451 19.666C26.7451 17.6709 25.0664 16.0801 22.5791 16.0801C20.0303 16.0801 18.167 17.75 18.167 20.0527Z" fill="white"/>
<defs>
<clipPath id="clip0">
<rect x="238.646" y="73.2953" width="84.3537" height="25.2546" fill="white"/>
</clipPath>
</defs>
</svg>
