<?xml version="1.0" encoding="utf-8"?>
<!-- Generator: Adobe Illustrator 21.1.0, SVG Export Plug-In . SVG Version: 6.00 Build 0)  -->
<svg version="1.1" id="Layer_1" xmlns="http://www.w3.org/2000/svg" xmlns:xlink="http://www.w3.org/1999/xlink" x="0px" y="0px"
	 viewBox="0 0 42 42" style="enable-background:new 0 0 42 42;" xml:space="preserve">
<style type="text/css">
	.st0{fill:#FFFFFF;}
	.st1{fill-rule:evenodd;clip-rule:evenodd;fill:#00B6E3;}
	.st2{fill:#02B2E1;}
</style>
<circle class="st0" cx="21" cy="21" r="21"/>
<g>
	<path class="st1" d="M12.8,25.5c0,6.6,2.3,10.8,8,10.8c4.4,0,4.8-1.4,6-2.3c0.8,3.4,4,1.5,4,1.5v-0.5c-0.8-0.2-1.3-0.7-1.3-1.8
		V18.7h-2.8c0,7,1.4,14.8-6,14.8c-6,0-5-7.8-5-11.3c0-3.5-0.9-3.5-3-3.5V25.5z"/>
	<g>
		<circle class="st0" cx="25.5" cy="13" r="3.8"/>
		<circle class="st0" cx="17.2" cy="13" r="3.8"/>
		<g>
			<path class="st2" d="M17.2,10.9c1.1,0,2.1,0.9,2.1,2.1c0,1.1-0.9,2.1-2.1,2.1c-1.1,0-2.1-0.9-2.1-2.1S16,10.9,17.2,10.9"/>
			<path class="st2" d="M28.9,13c0,1.9-1.5,3.4-3.4,3.4c-1.9,0-3.4-1.5-3.4-3.4s1.5-3.4,3.4-3.4C27.4,9.6,28.9,11.2,28.9,13
				 M17.2,16.5c-1.9,0-3.4-1.5-3.4-3.4s1.5-3.4,3.4-3.4s3.4,1.5,3.4,3.4S19,16.5,17.2,16.5 M30.1,8.1c0.2-0.3,0.2-0.7,0.2-1.1
				c0-0.5-0.1-0.8-0.5-0.7c0,0-5.8,2.5-8.6,2.5s-8.6-2.5-8.6-2.5c-0.4-0.2-0.5,0.2-0.5,0.7c0,0.4,0,0.8,0.2,1.1l1.2,1.4
				c-0.9,0.9-1.4,2.1-1.4,3.5c0,2.7,2.2,4.8,4.8,4.8c1.1,0,2-0.4,2.9-0.9l1.1,1.3c0.1,0.1,0.2,0.1,0.2,0.1c0.1,0,0.2,0,0.2-0.1
				l1.1-1.3c0.8,0.6,1.8,0.9,2.9,0.9c2.7,0,4.8-2.2,4.8-4.8c0-1.4-0.5-2.6-1.4-3.5L30.1,8.1z"/>
			<path class="st2" d="M25.5,10.9c-1.1,0-2.1,0.9-2.1,2.1c0,1.1,0.9,2.1,2.1,2.1c1.1,0,2.1-0.9,2.1-2.1S26.7,10.9,25.5,10.9"/>
			<path class="st0" d="M20.5,16.5l0.8,0.8c0.1,0.1,0.2,0,0.2-0.1v-1.8C21.1,15.8,20.8,16.1,20.5,16.5"/>
		</g>
	</g>
</g>
</svg>
