<svg id="Layer_1" data-name="Layer 1" xmlns="http://www.w3.org/2000/svg" viewBox="0 0 427.2 383.9"><title>girl-at-computer</title><rect width="427.2" height="383.9" style="fill:none"/><path d="M223.7,359H195.2l-4-71.1h36.4Z" style="fill:#333"/><path d="M182.8,266c9.94,0,18-7.34,18-16.4s-8.06-16.4-18-16.4-18,7.34-18,16.4S172.86,266,182.8,266Z" style="fill:#333"/><path d="M240.4,266c9.94,0,18-7.34,18-16.4s-8.06-16.4-18-16.4-18,7.34-18,16.4S230.46,266,240.4,266Z" style="fill:#333"/><path d="M233.4,233.1H190.8V266h42.6Z" style="fill:#333"/><path d="M209.4,361.9V280.2" style="fill:none;stroke:#606060;stroke-miterlimit:10"/><path d="M225.5,156.6H192.4v17.8h33.1Z" style="fill:#fff"/><path d="M225.8,174.9H192V156.3h33.9v18.6Zm-33-.9H225V157H192.8Z" style="fill:#0084ce"/><path d="M243.9,180.3a15.73,15.73,0,0,0-13.2-7.2H183.9a15.73,15.73,0,0,0-13.2,7.2l-2.8,4.3h78.8Z" style="fill:#fff"/><path d="M247.4,185.1H167.2l3.2-4.9a16.07,16.07,0,0,1,13.5-7.4h46.8a16.07,16.07,0,0,1,13.5,7.4Zm-78.7-.9h77.2l-2.4-3.7a15.1,15.1,0,0,0-12.8-7H183.9a15.1,15.1,0,0,0-12.8,7Z" style="fill:#0084ce"/><path d="M208.9,151.1a4.8,4.8,0,1,0-4.8-4.8A4.8,4.8,0,0,0,208.9,151.1Z" style="fill:#0084ce"/><path d="M415.8,207.4H11.4a11.4,11.4,0,1,1,0-22.8H415.8a11.4,11.4,0,0,1,0,22.8Z" style="fill:#6c757d"/><path d="M307.4,164h-197a12,12,0,0,1-12-12V38.5a12,12,0,0,1,12-12h197a12,12,0,0,1,12,12V152A12,12,0,0,1,307.4,164Z" style="fill:#fff"/><path d="M309.5,165.2H108.3a11.14,11.14,0,0,1-11.1-11.1V36.4a11.14,11.14,0,0,1,11.1-11.1H309.5a11.14,11.14,0,0,1,11.1,11.1V154A11.16,11.16,0,0,1,309.5,165.2ZM108.3,27.8a8.71,8.71,0,0,0-8.7,8.7V154.1a8.71,8.71,0,0,0,8.7,8.7H309.5a8.71,8.71,0,0,0,8.7-8.7V36.4a8.71,8.71,0,0,0-8.7-8.7H108.3Z" style="fill:#333"/><path d="M319.4,136.3H98.4v2.5h221Z" style="fill:#333"/><g style="opacity:0.11999999731779099"><path d="M121.5,137.6,258.6,26.5h50.3l1.8.1,1.4.3,1.1.3,1.4.7L316,29l1.3,1.3,1.2,2,.7,2.4V38l.2,15.7v82.1l-1.3,1.8Z" style="fill:#333;opacity:0.11999999731779099;isolation:isolate"/></g><path d="M306.1,164H111.7a13.36,13.36,0,0,1-13.3-13.3V137.6h221v13.1A13.36,13.36,0,0,1,306.1,164Z" style="fill:#eee"/><path d="M319.4,136.3H98.4v2.5h221Z" style="fill:#333"/><path d="M309.5,165.2H108.3a11.14,11.14,0,0,1-11.1-11.1V36.4a11.14,11.14,0,0,1,11.1-11.1H309.5a11.14,11.14,0,0,1,11.1,11.1V154A11.16,11.16,0,0,1,309.5,165.2ZM108.3,27.8a8.71,8.71,0,0,0-8.7,8.7V154.1a8.71,8.71,0,0,0,8.7,8.7H309.5a8.71,8.71,0,0,0,8.7-8.7V36.4a8.71,8.71,0,0,0-8.7-8.7H108.3Z" style="fill:#333"/><path d="M270.7,163.7l-23.1-53.1a11.14,11.14,0,0,0-8.2-9.2c-.1,0-.3-.1-.4-.1s-.3-.1-.4-.1a2.77,2.77,0,0,0-.9-.1H178.5c-.3,0-.6.1-.9.1-.1,0-.3.1-.4.1s-.3.1-.4.1a11.16,11.16,0,0,0-8.2,9.2l-23.1,53.1a11.7,11.7,0,0,0,5.1,15.1c5.3,2.7,11.5.2,14-5.5l8.3-19,2,19.5c1.9,18,.6,31.2-3.8,48.8a6.47,6.47,0,0,1-.4,1.3L170,226a10.73,10.73,0,0,0,9.1,14.6h58.4c7.1-.5,11.6-8,9.1-14.6l-.8-2.1a5,5,0,0,1-.4-1.3c-4.4-17.6-5.7-30.8-3.8-48.8l2-19.5,8.3,19c2.5,5.7,8.7,8.1,14,5.5S273.2,169.4,270.7,163.7Z" style="fill:#cce6f5"/><path d="M270.7,163.7l-23.1-53.1a11.14,11.14,0,0,0-8.2-9.2c-.1,0-.3-.1-.4-.1s-.3-.1-.4-.1a2.77,2.77,0,0,0-.9-.1H178.5c-.3,0-.6.1-.9.1-.1,0-.3.1-.4.1s-.3.1-.4.1a11.16,11.16,0,0,0-8.2,9.2l-23.1,53.1a11.7,11.7,0,0,0,5.1,15.1c5.3,2.7,11.5.2,14-5.5l8.3-19,2,19.5c1.9,18,.6,31.2-3.8,48.8a6.47,6.47,0,0,1-.4,1.3L170,226a10.73,10.73,0,0,0,9.1,14.6h58.4c7.1-.5,11.6-8,9.1-14.6l-.8-2.1a5,5,0,0,1-.4-1.3c-4.4-17.6-5.7-30.8-3.8-48.8l2-19.5,8.3,19c2.5,5.7,8.7,8.1,14,5.5S273.2,169.4,270.7,163.7Z" style="fill:none;stroke:#0084ce;stroke-miterlimit:10;stroke-width:2px"/><path d="M235.9,63.6a7.67,7.67,0,0,0,6.7-7.6,7.9,7.9,0,0,0-4.8-7.2V36.9a28.75,28.75,0,1,0-57.5,0V48.4a7.73,7.73,0,0,0,1.5,15.3h.4a29.18,29.18,0,0,0,15.6,16.2v15l-19.2,7.7c14.4,14.4,30.3,13.2,30.3,13.2s15.9,1.2,30.3-13.2L220,94.8h-1.1V80.4A29,29,0,0,0,235.9,63.6Z" style="fill:#fff;stroke:#0084ce;stroke-miterlimit:10;stroke-width:1.5px"/><path d="M237.7,34a28.82,28.82,0,0,0-57.3-.4l-.2,3.3V48.4h.1a28.76,28.76,0,0,0,57.2.4h.2V34Z" style="fill:#cce6f5"/><path d="M237.7,34a28.82,28.82,0,0,0-57.3-.4h-.2V48.4h.1a28.76,28.76,0,0,0,57.2.4h.2V34Z" style="fill:none;stroke:#0084ce;stroke-miterlimit:10;stroke-width:2px"/><path d="M255.2,286.1H162.5a7.81,7.81,0,0,1-7.8-7.8V272a7.81,7.81,0,0,1,7.8-7.8h92.7A7.81,7.81,0,0,1,263,272v6.3A7.81,7.81,0,0,1,255.2,286.1Z" style="fill:#eee"/><path d="M255.2,241.2H162.5c-4.3,0-7.8-2.6-7.8-5.8V188.5c0-3.2,3.5-5.8,7.8-5.8l46.4-3.7,46.4,3.7c4.3,0,7.8,2.6,7.8,5.8v46.9C263,238.6,259.5,241.2,255.2,241.2Z" style="fill:#fff"/><path d="M255.2,241.2H162.5c-4.3,0-7.8-2.6-7.8-5.9V188c0-3.2,3.5-5.9,7.8-5.9l34-2.8a145.52,145.52,0,0,1,24.7,0l34,2.8c4.3,0,7.8,2.6,7.8,5.9v47.3C263,238.6,259.5,241.2,255.2,241.2Z" style="fill:none;stroke:#aaa;stroke-miterlimit:10;stroke-width:3px"/><path d="M255.2,287.9H162.5c-5,0-9.1-5.7-9.1-12.7s4.1-12.7,9.1-12.7h92.7c5,0,9.1,5.7,9.1,12.7S260.1,287.9,255.2,287.9ZM162.4,266c-3.6,0-6.6,4.1-6.6,9.2s3,9.2,6.6,9.2h92.7c3.6,0,6.6-4.1,6.6-9.2s-3-9.2-6.6-9.2Z" style="fill:#aaa"/><path d="M409.4,383.9H21.3a1.41,1.41,0,0,1-1.4-1.2,1.34,1.34,0,0,1,1.4-1.2H409.4a1.21,1.21,0,1,1,0,2.4Z" style="fill:#aaa"/><path d="M202.7,56.6s-6.5,18.8-9.8,31.5,1,45.6,25.8,45.6c0,0,12,.1,14.8-2.6,0,0-8.4-2.4-8.4-8.9s3-10.1,3-25.6-12.9-40-12.9-40" style="fill:#cce6f5"/><path d="M202.7,56.6s-6.5,18.8-9.8,31.5,1,45.6,25.8,45.6c0,0,12,.1,14.8-2.6,0,0-8.4-2.4-8.4-8.9s3-10.1,3-25.6-12.9-40-12.9-40" style="fill:none;stroke:#0084ce;stroke-miterlimit:10;stroke-width:2px"/><path d="M208.8,58.7c4.09,0,7.4-1.52,7.4-3.4s-3.31-3.4-7.4-3.4-7.4,1.52-7.4,3.4S204.71,58.7,208.8,58.7Z" style="fill:#0084ce"/><path d="M241.9,233.1H176.7a10.93,10.93,0,0,1-10.9-10.9V198.6a10.93,10.93,0,0,1,10.9-10.9h65.2a10.93,10.93,0,0,1,10.9,10.9v23.6A10.86,10.86,0,0,1,241.9,233.1Z" style="fill:#eee"/><path d="M144.8,381.4h9.8V183.8a4.9,4.9,0,1,0-9.8,0Z" style="fill:#aaa"/><path d="M264.2,381.4H274V183.8a4.9,4.9,0,1,0-9.8,0Z" style="fill:#aaa"/><path d="M178.1,380.7a2.88,2.88,0,0,1-.6-5.7l14.7-3.1a5.44,5.44,0,0,0,4.3-5.7l-.4-6.6h12l-.7,12.6v5.5a2.9,2.9,0,0,1-2.9,2.9H178.1Z" style="fill:#fff"/><path d="M207.2,360.5l-.7,11.8v5.5a2.11,2.11,0,0,1-2.1,2.1H178.1a2.11,2.11,0,0,1-2.1-2.1,2.14,2.14,0,0,1,1.7-2.1l14.7-3.1a6.2,6.2,0,0,0,4.9-6.5l-.4-5.8h10.3Zm1.6-1.5H195.2l.5,7.4a4.66,4.66,0,0,1-3.7,4.9l-14.7,3.1a3.58,3.58,0,0,0,.7,7.1h26.3a3.59,3.59,0,0,0,3.6-3.6v-5.5Z" style="fill:#0084ce"/><path d="M178.1,381.4a3.59,3.59,0,0,1-3.6-3.6,3.54,3.54,0,0,1,2.9-3.5l9-1.9s-8.6,8.2,21.7-.1v5.5a3.59,3.59,0,0,1-3.6,3.6Z" style="fill:#333"/><path d="M214.6,380.7a2.9,2.9,0,0,1-2.9-2.9v-5.5l-.7-12.6h12l-.4,6.6a5.51,5.51,0,0,0,4.3,5.7l14.7,3.1a3,3,0,0,1,2.3,2.8,2.9,2.9,0,0,1-2.9,2.9H214.6Z" style="fill:#fff"/><path d="M222.1,360.5l-.4,5.8a6.27,6.27,0,0,0,4.9,6.5l14.7,3.1A2.14,2.14,0,0,1,243,378a2.11,2.11,0,0,1-2.1,2.1H214.6a2.11,2.11,0,0,1-2.1-2.1v-5.5l-.7-11.8h10.3Zm1.6-1.5H210.1l.8,13.4v5.5a3.59,3.59,0,0,0,3.6,3.6h26.3a3.59,3.59,0,0,0,3.6-3.6,3.54,3.54,0,0,0-2.9-3.5l-14.7-3.1a4.66,4.66,0,0,1-3.7-4.9Z" style="fill:#0084ce"/><path d="M240.8,381.4a3.59,3.59,0,0,0,3.6-3.6,3.54,3.54,0,0,0-2.9-3.5l-9-1.9s8.6,8.2-21.7-.1v5.5a3.59,3.59,0,0,0,3.6,3.6Z" style="fill:#333"/><path d="M130.5,207.4H25.8v174H130.5Z" style="fill:#333;opacity:0.05000000074505806;isolation:isolate"/><path d="M397.6,207.4H292.9v174H397.6Z" style="fill:#333;opacity:0.05000000074505806;isolation:isolate"/><path d="M125.2,210.4H29.7v45.1h95.5Z" style="fill:#fff;opacity:0.5;isolation:isolate"/><path d="M125.2,261.9H29.7V307h95.5Z" style="fill:#fff;opacity:0.5;isolation:isolate"/><path d="M125.2,313.3H29.7v45.1h95.5Z" style="fill:#fff;opacity:0.5;isolation:isolate"/><path d="M393,210.4H297.5v45.1H393Z" style="fill:#fff;opacity:0.5;isolation:isolate"/><path d="M393,261.9H297.5V307H393Z" style="fill:#fff;opacity:0.5;isolation:isolate"/><path d="M393,313.3H297.5v45.1H393Z" style="fill:#fff;opacity:0.5;isolation:isolate"/><path d="M77.4,238.9a5.9,5.9,0,1,0-5.9-5.9A5.9,5.9,0,0,0,77.4,238.9Z" style="fill:#cfd2e6"/><path d="M77.4,290.3a5.9,5.9,0,1,0-5.9-5.9A5.9,5.9,0,0,0,77.4,290.3Z" style="fill:#cfd2e6"/><path d="M77.4,343a5.9,5.9,0,1,0-5.9-5.9A5.9,5.9,0,0,0,77.4,343Z" style="fill:#cfd2e6"/><path d="M345.2,238.9a5.9,5.9,0,1,0-5.9-5.9A5.9,5.9,0,0,0,345.2,238.9Z" style="fill:#cfd2e6"/><path d="M345.2,290.3a5.9,5.9,0,1,0-5.9-5.9A5.9,5.9,0,0,0,345.2,290.3Z" style="fill:#cfd2e6"/><path d="M345.2,343a5.9,5.9,0,1,0-5.9-5.9A5.9,5.9,0,0,0,345.2,343Z" style="fill:#cfd2e6"/><path d="M15.5,382.7h-7" style="fill:none;stroke:#aaa;stroke-linecap:round;stroke-miterlimit:10;stroke-width:2px"/><path d="M187.8,31.2s.9-14.5,13.7-14.5" style="fill:none;stroke:#0084ce;stroke-miterlimit:10;stroke-width:1.5px"/><path d="M179.7,68.7l-4.6.6a3.55,3.55,0,0,1-3.9-3l-2.5-20.7a3.55,3.55,0,0,1,3-3.9l4.6-.6a3.55,3.55,0,0,1,3.9,3l2.5,20.7A3.48,3.48,0,0,1,179.7,68.7Z" style="fill:#6c757d"/><path d="M245.8,60.5s4.1,12.8,0,16.8S231.5,82,231.5,82" style="fill:none;stroke:#333;stroke-miterlimit:10;stroke-width:3px"/><path d="M174,41.2S169.1,1.6,208.2,1.6c0,0,33.8-3.1,33.8,39.5" style="fill:none;stroke:#333;stroke-miterlimit:10;stroke-width:3px"/><path d="M238.6,68.7l4.6.6a3.55,3.55,0,0,0,3.9-3l2.5-20.7a3.55,3.55,0,0,0-3-3.9L242,41a3.55,3.55,0,0,0-3.9,3l-2.5,20.7A3.59,3.59,0,0,0,238.6,68.7Z" style="fill:#6c757d"/></svg>