<svg xmlns="http://www.w3.org/2000/svg" width="64" height="67" viewBox="0 0 64 67"><desc>  Created with Sketch.</desc><g fill="none"><path d="M18.2 42.8C17.7 41.9 17 39.7 17.7 38.6 18.5 37.3 21.1 39.4 21.1 39.4 21.1 39.4 19.9 37 20.4 35.5 20.8 34 23.5 35.5 23.5 35.5 23.5 35.5 21.2 31 20 28.9 18.8 26.7 18.4 25.1 19.9 24.2 21.4 23.2 22.8 26.3 24.1 28.4 25.4 30.5 33.6 44.1 33.6 46.4 33.7 48.7 35.3 52.9 35.3 52.9L39 60.3C36.9 60.7 34.8 61 32.6 61 30.2 61 28 60.7 25.8 60.2L25.1 57.4C24.6 54.9 19.3 52.6 18.2 51.4 17.2 50.2 14.2 44.4 15.2 42.8 16 41.7 17.5 42.3 18.2 42.8 18.4 43.1 18.5 43.2 18.5 43.2 18.6 43.1 18.5 43 18.2 42.8Z" style="fill:#4A5056;stroke-linejoin:round;stroke-width:2;stroke:#4A5056"/><path d="M31.4 7.4C31.4 7.4 31.4 7.4 31.4 7.4L31.3 5 31.3 7.4C31.3 7.4 31.4 7.4 31.4 7.4ZM17.1 59.8L1.3 66 6.6 48.8C4 44.2 2.6 38.9 2.6 33.3 2.6 16.7 15.3 3 31.3 2.6L31.3 4.9 31.3 2.6C47.7 2.6 61.4 16.5 61.4 33.3 61.4 50.3 48.2 64.1 32 64.1 26.7 64.1 21.5 62.6 17.1 59.8ZM31.3 4.9L31.4 7.4C31.1 7.4 30.8 7.4 30.5 7.4L30.3 5.1 32.7 4.9C32.7 5.8 32.8 6.7 32.9 7.4 32.4 7.4 31.9 7.4 31.3 7.4L31.3 4.9ZM51.4 49.3C51.4 50.6 51.5 51.7 51.5 52.8 51.5 53.7 51.5 54.5 51.5 55.3L47.5 53.4C49 52.2 50.2 50.8 51.4 49.3Z" style="stroke-linejoin:round;stroke-width:5;stroke:#4A5056"/><path d="M30.5 5.3C30.5 5.3 30.6 8.6 31.1 10.2 31.7 11.8 33.4 15.3 30.5 18.1 27.6 20.9 26.8 22.5 27 23.2 27.3 23.9 29.5 23.8 30.5 24.4 31.1 24.9 31.3 25.4 31.1 26.2 29.7 27.4 29.1 28.3 29.3 28.9 29.5 29.5 30.1 29.7 31.1 29.7L31.1 32.2C31.9 32.8 32.5 33.3 33.1 33.5 34.1 33.8 34.4 33.8 34.5 34.2 34.6 34.6 34.5 37.9 36 39.1 37.4 40.4 39.8 40.7 41.8 40.4 43.9 40.1 47.9 38.8 48.1 40.7 48.3 42 48.5 46.4 48.9 54 50.9 52.8 52.2 51.8 52.9 51.2 53.5 50.5 54.9 47.8 57.2 42.9L59 31.8 56.2 20.8 48.5 10.8 40.7 6.7 33.1 5C31.4 5.2 30.5 5.3 30.5 5.3Z" fill="#4A5056"/></g></svg>