<svg id="Layer_1" data-name="Layer 1" xmlns="http://www.w3.org/2000/svg" viewBox="0 0 600 600"><title>stay-private</title><circle cx="300.5" cy="300.5" r="300" style="fill:#e0eef5"/><circle cx="294.5" cy="300.5" r="274" style="fill:none;stroke:#99c7e0;stroke-linecap:round;stroke-linejoin:round;stroke-width:5px;stroke-dasharray:1,11"/><rect x="105.42" y="316.75" width="395.38" height="28.11" style="fill:#338ec1"/><rect x="105.42" y="316.75" width="395.38" height="28.11" style="fill:none;stroke:#0072b1;stroke-linecap:round;stroke-linejoin:round;stroke-width:8px"/><rect x="139.15" y="344.86" width="20.61" height="166.77" style="fill:#99c7e0"/><rect x="450.21" y="344.86" width="20.61" height="166.77" style="fill:#99c7e0"/><rect x="139.15" y="344.86" width="20.61" height="166.77" style="fill:none;stroke:#0072b1;stroke-linecap:round;stroke-linejoin:round;stroke-width:4px"/><rect x="450.21" y="344.86" width="20.61" height="166.77" style="fill:none;stroke:#0072b1;stroke-linecap:round;stroke-linejoin:round;stroke-width:4px"/><rect x="159.76" y="344.86" width="290.45" height="33.73" style="fill:none;stroke:#0072b1;stroke-linecap:round;stroke-linejoin:round;stroke-width:4px"/><line x1="256.01" y1="344.86" x2="256.01" y2="378.59" style="fill:none;stroke:#0072b1;stroke-linecap:round;stroke-linejoin:round;stroke-width:4px"/><line x1="352.77" y1="344.86" x2="352.77" y2="378.59" style="fill:none;stroke:#0072b1;stroke-linecap:round;stroke-linejoin:round;stroke-width:4px"/><line x1="200.99" y1="361.72" x2="215.98" y2="361.72" style="fill:none;stroke:#0072b1;stroke-linecap:round;stroke-linejoin:round;stroke-width:8px"/><line x1="294.68" y1="361.72" x2="309.67" y2="361.72" style="fill:none;stroke:#0072b1;stroke-linecap:round;stroke-linejoin:round;stroke-width:8px"/><line x1="392.12" y1="361.72" x2="407.11" y2="361.72" style="fill:none;stroke:#0072b1;stroke-linecap:round;stroke-linejoin:round;stroke-width:8px"/><polyline points="425.85 168.72 453.96 196.82 453.96 307.38" style="fill:none;stroke:#0072b1;stroke-linecap:round;stroke-linejoin:round;stroke-width:6px"/><path d="M397.62,183.71h34a13,13,0,0,1,13,13v11.36a0,0,0,0,1,0,0h-60a0,0,0,0,1,0,0V196.71A13,13,0,0,1,397.62,183.71Z" transform="translate(259.95 -235.8) rotate(45)" style="fill:#99c7e0"/><path d="M397.62,183.71h34a13,13,0,0,1,13,13v11.36a0,0,0,0,1,0,0h-60a0,0,0,0,1,0,0V196.71A13,13,0,0,1,397.62,183.71Z" transform="translate(259.95 -235.8) rotate(45)" style="fill:none;stroke:#0072b1;stroke-linecap:round;stroke-linejoin:round;stroke-width:5px"/><path d="M131.38,123.37H336.14a11.13,11.13,0,0,1,11.13,11.13V251.25a0,0,0,0,1,0,0h-227a0,0,0,0,1,0,0V134.5A11.13,11.13,0,0,1,131.38,123.37Z" style="fill:#cce3ef"/><path d="M120.25,251.25h227a0,0,0,0,1,0,0v27.61a9.45,9.45,0,0,1-9.45,9.45H129.7a9.45,9.45,0,0,1-9.45-9.45V251.25A0,0,0,0,1,120.25,251.25Z" style="fill:#99c7e0"/><rect x="120.41" y="123.74" width="226.73" height="164.9" rx="8.35" style="fill:none;stroke:#0072b1;stroke-linecap:round;stroke-linejoin:round;stroke-width:6px"/><line x1="120.41" y1="250.87" x2="347.15" y2="250.87" style="fill:none;stroke:#0072b1;stroke-linecap:round;stroke-linejoin:round;stroke-width:6px"/><circle cx="234.72" cy="269.9" r="5.62" style="fill:#0072b1"/><polygon points="194.63 316.75 204.74 288.64 262.82 288.64 270.65 316.75 194.63 316.75" style="fill:none;stroke:#0072b1;stroke-linecap:round;stroke-linejoin:round;stroke-width:6px"/><line x1="137.28" y1="230.55" x2="137.28" y2="250.87" style="fill:none;stroke:#0072b1;stroke-linecap:round;stroke-linejoin:round;stroke-width:5px"/><line x1="137.28" y1="163.09" x2="137.28" y2="219.31" style="fill:none;stroke:#0072b1;stroke-linecap:round;stroke-linejoin:round;stroke-width:5px"/><line x1="221.6" y1="138.73" x2="244.09" y2="138.73" style="fill:none;stroke:#0072b1;stroke-linecap:round;stroke-linejoin:round;stroke-width:5px"/><line x1="266.57" y1="209.94" x2="279.69" y2="196.82" style="fill:none;stroke:#0072b1;stroke-linecap:round;stroke-linejoin:round;stroke-width:5px"/><line x1="289.06" y1="187.45" x2="323.72" y2="152.79" style="fill:none;stroke:#0072b1;stroke-linecap:round;stroke-linejoin:round;stroke-width:5px"/><line x1="289.06" y1="211.81" x2="312.48" y2="188.39" style="fill:none;stroke:#0072b1;stroke-linecap:round;stroke-linejoin:round;stroke-width:5px"/></svg>