<svg id="Layer_1" data-name="Layer 1" xmlns="http://www.w3.org/2000/svg" viewBox="0 0 600 600"><title>stay-seated</title><circle cx="300.5" cy="300.5" r="300" style="fill:#e0eef5"/><circle cx="301.5" cy="300.5" r="274" style="fill:none;stroke:#99c7e0;stroke-linecap:round;stroke-linejoin:round;stroke-width:5px;stroke-dasharray:1,11"/><path d="M272,92H326a61.53,61.53,0,0,1,61.53,61.53v98.26a34.4,34.4,0,0,1-34.4,34.4H244.84a34.4,34.4,0,0,1-34.4-34.4V153.53A61.53,61.53,0,0,1,272,92Z" style="fill:#99c7e0"/><g style="opacity:0.38"><path d="M293.53,115.64h10.94A61.53,61.53,0,0,1,366,177.17v51a34.4,34.4,0,0,1-34.4,34.4H266.4a34.4,34.4,0,0,1-34.4-34.4v-51a61.53,61.53,0,0,1,61.53-61.53Z" style="fill:#338ec1"/></g><path d="M337.57,101.75A40.28,40.28,0,0,1,377.81,142V258.24a18.22,18.22,0,0,1-18.2,18.2H238.39a18.22,18.22,0,0,1-18.2-18.2V142a40.28,40.28,0,0,1,40.24-40.24h77.14m0-9.75H260.43a50,50,0,0,0-50,50V258.24a28,28,0,0,0,27.95,27.95H359.61a28,28,0,0,0,27.95-27.95V142a50,50,0,0,0-50-50Z" style="fill:#0072b1"/><rect x="276.25" y="279.69" width="45.5" height="43.88" style="fill:#cce3ef"/><rect x="276.25" y="370.69" width="45.5" height="80.44" style="fill:#cce3ef"/><path d="M223.71,314.63H374.29a33.58,33.58,0,0,1,33.58,33.58v0a22.48,22.48,0,0,1-22.48,22.48H212.6a22.48,22.48,0,0,1-22.48-22.48v0A33.58,33.58,0,0,1,223.71,314.63Z" style="fill:#338ec1"/><path d="M315.25,286.19v30.87h-32.5V286.19h32.5m6.5-6.5h-45.5v43.87h45.5V279.69Z" style="fill:#0072b1"/><path d="M379,324.38a19.19,19.19,0,0,1,19.17,19.17v7.77a9.63,9.63,0,0,1-9.61,9.62h-179a9.63,9.63,0,0,1-9.61-9.62v-7.77a19.19,19.19,0,0,1,19.17-19.17H379m0-9.76H219.05a28.94,28.94,0,0,0-28.93,28.93v7.77a19.37,19.37,0,0,0,19.37,19.37h179a19.37,19.37,0,0,0,19.37-19.37v-7.77A28.94,28.94,0,0,0,379,314.62Z" style="fill:#0072b1"/><path d="M171.44,252.06h11.36a17.88,17.88,0,0,1,17.88,17.88v6.68a9.57,9.57,0,0,1-9.57,9.57h-28a9.57,9.57,0,0,1-9.57-9.57v-6.68a17.88,17.88,0,0,1,17.88-17.88Z" style="fill:#99c7e0"/><path d="M415.19,252.06h11.36a17.88,17.88,0,0,1,17.88,17.88v6.68a9.57,9.57,0,0,1-9.57,9.57h-28a9.57,9.57,0,0,1-9.57-9.57v-6.68A17.88,17.88,0,0,1,415.19,252.06Z" style="fill:#99c7e0"/><path d="M186.16,261.81a4.79,4.79,0,0,1,4.78,4.78v9.85H163.31v-9.85a4.79,4.79,0,0,1,4.78-4.78h18.07m0-9.75H168.09a14.54,14.54,0,0,0-14.53,14.53v11.82a7.78,7.78,0,0,0,7.78,7.78h31.57a7.78,7.78,0,0,0,7.78-7.78V266.59a14.54,14.54,0,0,0-14.53-14.53Z" style="fill:#0072b1"/><path d="M429.91,261.81a4.79,4.79,0,0,1,4.78,4.78v9.85H407.06v-9.85a4.79,4.79,0,0,1,4.78-4.78h18.07m0-9.75H411.84a14.54,14.54,0,0,0-14.53,14.53v11.82a7.78,7.78,0,0,0,7.78,7.78h31.57a7.78,7.78,0,0,0,7.78-7.78V266.59a14.54,14.54,0,0,0-14.53-14.53Z" style="fill:#0072b1"/><path d="M210.44,368.25h-8.31A28.29,28.29,0,0,1,173.88,340v-53.8a3.25,3.25,0,1,1,6.5,0V340a21.77,21.77,0,0,0,21.75,21.76h8.31a3.25,3.25,0,1,1,0,6.5Z" style="fill:#0072b1"/><path d="M395.87,368.25h-8.31a3.25,3.25,0,1,1,0-6.5h8.31A21.77,21.77,0,0,0,417.62,340v-53.8a3.25,3.25,0,1,1,6.5,0V340A28.29,28.29,0,0,1,395.87,368.25Z" style="fill:#0072b1"/><path d="M221.5,451.13H375.68a29.75,29.75,0,0,1,29.75,29.75v0a6.81,6.81,0,0,1-6.81,6.81H198.56a6.81,6.81,0,0,1-6.81-6.81v0a29.75,29.75,0,0,1,29.75-29.75Z" style="fill:#99c7e0"/><path d="M398.63,490.94H198.56a10.07,10.07,0,0,1-10.06-10.06,33,33,0,0,1,33-33H375.68a33,33,0,0,1,33,33A10.07,10.07,0,0,1,398.63,490.94ZM221.5,454.38a26.53,26.53,0,0,0-26.5,26.5,3.57,3.57,0,0,0,3.56,3.56H398.63a3.57,3.57,0,0,0,3.56-3.56,26.53,26.53,0,0,0-26.51-26.5Z" style="fill:#0072b1"/><path d="M315.25,377.19v67.43h-32.5V377.19h32.5m6.5-6.5h-45.5v80.43h45.5V370.69Z" style="fill:#0072b1"/><path d="M242.31,495a13,13,0,0,1-10.75,5.69h-5.68A13,13,0,0,1,215.13,495h27.18m9.57-7.31H205.56A20.31,20.31,0,0,0,225.88,508h5.68a20.31,20.31,0,0,0,20.32-20.31Z" style="fill:#0072b1"/><path d="M382.87,495a13,13,0,0,1-10.75,5.69h-5.68A13,13,0,0,1,355.69,495h27.18m9.57-7.31H346.12A20.31,20.31,0,0,0,366.44,508h5.68a20.31,20.31,0,0,0,20.32-20.31Z" style="fill:#0072b1"/></svg>