<svg id="Layer_1" data-name="Layer 1" xmlns="http://www.w3.org/2000/svg" xmlns:xlink="http://www.w3.org/1999/xlink" viewBox="0 0 600 600"><defs><clipPath id="clip-path"><rect x="162" y="78" width="276" height="444" style="fill:none"/></clipPath></defs><title>stay-in-frame</title><circle cx="300.5" cy="300.5" r="300" style="fill:#e0eef5"/><g style="clip-path:url(#clip-path)"><path d="M436.89,585.65H162.77V523c0-75.58,61.48-137.06,137.06-137.06S436.89,447.37,436.89,523Z" style="fill:#0072b1"/><path d="M169.42,579H430.23V523c0-71.9-58.5-130.4-130.4-130.4S169.42,451.05,169.42,523Z" style="fill:#338ec1"/><path d="M403.5,258.92V217a101.18,101.18,0,1,0-202.36,0v40.4a27.22,27.22,0,0,0,5.27,53.93c.52,0,1-.11,1.53-.13a101.55,101.55,0,0,0,54.9,56.88v59.52h74V370a101.48,101.48,0,0,0,60-59.05,27.13,27.13,0,0,0,6.71-52.07Z" style="fill:#cce3ef"/><path d="M340.14,431H259.51V370.28a105.33,105.33,0,0,1-53.78-55.61,30.55,30.55,0,0,1-7.92-59.86V217a104.51,104.51,0,1,1,209,0v39.75A30.45,30.45,0,0,1,399.19,314a104.47,104.47,0,0,1-59.05,58.38Zm-74-6.66h67.31V367.71l2.19-.8a97.9,97.9,0,0,0,58-57.11l.7-1.86,2-.25A23.8,23.8,0,0,0,402.24,262l-2.07-.85V217a97.85,97.85,0,1,0-195.7,0v43.14l-2.69.53A23.89,23.89,0,0,0,206.41,308a4.23,4.23,0,0,0,.5,0l.84-.08,2.42-.14L211,310a98.54,98.54,0,0,0,53.11,55l2,.86Z" style="fill:#0072b1"/><path d="M211.12,124.41a2.15,2.15,0,0,0-.32,1.46c1,7,9.81,58.59,62.05,58.59,56,0,46-43.35,87.95-43.35,31.77,0,39.91,71.58,42,106.18a2.16,2.16,0,0,0,4.29.21c7.41-46.33,14.66-165.66-107.19-165.69a.27.27,0,0,0-.09,0C298.23,81.87,236.06,84.51,211.12,124.41Z" style="fill:#99c7e0"/><path d="M405,252.65h-.29a5.42,5.42,0,0,1-5.21-5.15c-1.46-24.17-8.54-103-38.67-103-17.93,0-25.41,8.44-34.08,18.2-10.46,11.79-22.32,25.15-53.87,25.15-55.31,0-64.49-55.17-65.35-61.46a5.57,5.57,0,0,1,.79-3.69C234,81.46,297,78.58,299.67,78.48c38.23,0,67.3,11.51,86.62,34.17C419.79,152,415.75,214.33,410.36,248A5.41,5.41,0,0,1,405,252.65ZM360.8,137.78c30.82,0,41.11,57.27,44.53,98.28,4.11-33.83,4.38-85.68-24.11-119.09-18-21.11-45.36-31.82-81.33-31.84-2.48.1-61.7,2.8-85.74,40.7A81.4,81.4,0,0,0,225.39,156c10.74,16.68,26.7,25.14,47.46,25.14,28.56,0,38.89-11.64,48.89-22.91C330.66,148.17,339.88,137.78,360.8,137.78Z" style="fill:#0072b1"/><path d="M195.74,246.3c-8.35-28.71-20.05-88.23,15-117.88l10.16,29.86-16.57,87.59A4.4,4.4,0,0,1,195.74,246.3Z" style="fill:#99c7e0"/><path d="M199.93,252.8a7.6,7.6,0,0,1-7.39-5.57h0c-21.89-75.25.63-108.33,16-121.35l3.73-3.16,12,35.31-16.74,88.46a7.64,7.64,0,0,1-7.23,6.3Zm9.27-118.45c-29.56,30.07-17.2,87.19-10.26,111h0a1,1,0,0,0,1.07.76,1,1,0,0,0,1-.87l16.41-86.74Z" style="fill:#0072b1"/><line x1="210.8" y1="125.87" x2="192.43" y2="118.98" style="fill:#0072b1"/><path d="M210.8,129.2a3.4,3.4,0,0,1-1.17-.21l-18.37-6.89a3.33,3.33,0,1,1,2.34-6.23L212,122.75a3.33,3.33,0,0,1-1.17,6.45Z" style="fill:#0072b1"/><path d="M299.83,424.73l-44.65,21.09-18.27-40.9s11.33-15.79,25.93-5.71Z" style="fill:#fff"/><path d="M299.83,424.73l-44.65,21.09-18.27-40.9s11.33-15.79,25.93-5.71Z" style="fill:#338ec1"/><path d="M253.53,450.28l-20.44-45.75,1.12-1.55c4.58-6.38,16.85-16,30.52-6.51l41.74,28.81Zm-12.74-44.85,16,35.93,36.34-17.17L261,402C251.43,395.37,243.71,402.15,240.79,405.43Z" style="fill:#0072b1"/><path d="M299.83,424.73l44.64,21.09,18.27-40.9s-11.33-15.79-25.93-5.71Z" style="fill:#fff"/><path d="M299.83,424.73l44.64,21.09,18.27-40.9s-11.33-15.79-25.93-5.71Z" style="fill:#338ec1"/><path d="M346.12,450.28l-52.94-25,41.74-28.81c13.67-9.44,25.95.13,30.53,6.51l1.11,1.55Zm-39.65-26.09,36.35,17.17,16.05-35.93c-2.92-3.28-10.65-10.06-20.17-3.48Z" style="fill:#0072b1"/><rect x="298.16" y="424.73" width="3.33" height="49.39" style="fill:#0072b1"/></g><polyline points="23.5 139.5 23.5 77.5 85.5 77.5" style="fill:none;stroke:#0072b1;stroke-linecap:round;stroke-linejoin:round;stroke-width:13px"/><polyline points="513.5 78.5 575.5 78.5 575.5 140.5" style="fill:none;stroke:#0072b1;stroke-linecap:round;stroke-linejoin:round;stroke-width:13px"/><polyline points="576.5 444.5 576.5 506.5 514.5 506.5" style="fill:none;stroke:#0072b1;stroke-linecap:round;stroke-linejoin:round;stroke-width:13px"/><polyline points="85.5 506.5 23.5 506.5 23.5 444.5" style="fill:none;stroke:#0072b1;stroke-linecap:round;stroke-linejoin:round;stroke-width:13px"/><line x1="95.5" y1="77.5" x2="509.5" y2="77.5" style="fill:none;stroke:#99c7e0;stroke-linecap:round;stroke-linejoin:round;stroke-width:5px;stroke-dasharray:1,11"/><line x1="95.5" y1="506.5" x2="509.5" y2="506.5" style="fill:none;stroke:#99c7e0;stroke-linecap:round;stroke-linejoin:round;stroke-width:5px;stroke-dasharray:1,11"/><line x1="23.5" y1="151.5" x2="23.5" y2="434.5" style="fill:none;stroke:#99c7e0;stroke-linecap:round;stroke-linejoin:round;stroke-width:5px;stroke-dasharray:1,11"/><line x1="576.5" y1="151.5" x2="576.5" y2="434.5" style="fill:none;stroke:#99c7e0;stroke-linecap:round;stroke-linejoin:round;stroke-width:5px;stroke-dasharray:1,11"/></svg>