<?xml version="1.0" encoding="utf-8"?>
<!-- Generator: Adobe Illustrator 26.0.1, SVG Export Plug-In . SVG Version: 6.00 Build 0)  -->
<svg version="1.1" xmlns="http://www.w3.org/2000/svg" xmlns:xlink="http://www.w3.org/1999/xlink" x="0px" y="0px"
	 viewBox="0 0 447.79 382.64" style="enable-background:new 0 0 447.79 382.64;" xml:space="preserve">
<style type="text/css">
	.st0{display:none;}
	.st1{display:inline;}
	.st2{fill:#FFFFFF;}
	.st3{fill:none;stroke:#36B37E;stroke-width:3;stroke-linecap:round;stroke-linejoin:round;stroke-miterlimit:10;}
</style>
<g id="Layer_1" class="st0">
	<g class="st1">
		<g>
			<path class="st2" d="M1393.45,1431.79c-533.33,0-1066.67,0-1600,0c0-563,0-1126,0-1689c533.33,0,1066.67,0,1600,0
				C1393.45,305.79,1393.45,868.79,1393.45,1431.79z M727.45,586.38c-0.3,0.02-0.61,0.03-0.91,0.05c0.96,16.68,0.6,33.57,3.19,49.99
				c4.32,27.38,20.35,47.44,44.49,60.55c18.8,10.21,40.1,13.29,60.51,18.56c28.2,7.29,56.82,12.99,85.22,19.52
				c23.8,5.47,47.56,11.07,71.31,16.76c18.32,4.39,36.79,8.06,53.56,17.58c26.63,15.13,46.21,36.44,55.41,65.56
				c8.32,26.33,14.36,53.4,21.14,80.2c5.46,21.61,10.51,43.32,15.78,64.98c5.08,20.88,10.17,41.75,15.31,62.62
				c5.21,21.16,10.5,42.31,15.72,63.47c1.48,6,3.08,11.99,4.22,18.05c1.32,7.05,6.81,10.98,13.89,9.48
				c4.97-1.06,8.33-7.69,6.88-13.57c-4.65-18.96-9.3-37.92-13.94-56.88c-3.68-15.02-7.34-30.03-11.02-45.05
				c-8.02-32.72-15.98-65.46-24.1-98.15c-6.43-25.89-13.11-51.72-19.6-77.6c-7.46-29.74-22.21-54.95-45.71-74.95
				c-14.78-12.58-31.19-22.48-49.8-27.55c-27.31-7.44-54.96-13.66-82.51-20.18c-27.4-6.48-54.89-12.58-82.31-19.03
				c-19.33-4.54-38.64-9.18-57.86-14.14c-17.06-4.4-32.7-11.33-43.7-26.13c-8.33-11.2-13.62-23.65-14-37.48
				c-0.6-22.15-0.2-44.33-0.09-66.49c0.01-1.63,0.64-3.57,1.65-4.84c4.78-6.05,9.94-11.81,14.7-17.88
				c12.49-15.93,22.15-33.53,29.17-52.46c3.55-9.58,5.61-19.7,8.55-29.52c0.55-1.83,1.81-4.48,3.23-4.85
				c17.64-4.58,25.67-16.72,28.74-33.88c3.62-20.19,7.73-40.33,12.51-60.28c4.65-19.42,8.27-38.74,4.37-58.72
				c-2.13-10.93-6.3-20.31-17.82-24.51c-0.88-0.32-1.51-2.7-1.42-4.07c0.98-15.15,2.6-30.27,3.06-45.42
				c0.28-9.17-1.01-18.41-1.86-27.59c-0.83-8.98-1.43-18.04-3.16-26.86c-3.77-19.17-8.65-38.06-15.74-56.35
				c-7.34-18.95-16.55-36.93-27.92-53.69c-12.06-17.77-26.07-33.91-42.56-47.88C731-3.3,717.23-13.15,702.21-21.28
				c-15.57-8.43-31.91-14.93-48.97-19.5c-16.5-4.42-33.28-7.39-50.42-7.37c-10.77,0.01-21.56,0.25-32.29,1.05
				c-8.46,0.63-17.08,1.41-25.2,3.67c-14.7,4.1-29.27,8.84-43.53,14.25c-24.02,9.1-44.75,23.81-63.52,40.99
				c-10.55,9.66-20.4,20.43-28.87,31.94c-10.22,13.89-19.82,28.5-27.54,43.88c-9.92,19.76-16.93,40.78-21.82,62.56
				c-5.35,23.85-7.72,47.91-8.51,72.21c-0.23,7.08,0.4,14.21,0.96,21.3c0.58,7.35,1.67,14.67,2.27,22.02
				c0.11,1.3-0.74,3.58-1.7,3.93c-9.2,3.42-14.21,10.48-16.5,19.43c-4.39,17.18-3.38,34.46,0.33,51.63
				c5.43,25.15,11.58,50.16,16.29,75.43c2.86,15.37,10.93,25.29,25.32,29.96c4.1,1.33,4.96,3.46,6.05,6.91
				c4.35,13.79,8.26,27.8,13.85,41.09c8.3,19.73,20.07,37.48,34.89,53.08c3.72,3.91,5.48,8.27,5.33,14.08
				c-0.47,18.49-0.01,37-0.27,55.49c-0.09,6.2-0.49,12.59-2.07,18.53c-6.23,23.41-20.38,40.08-43.84,47.43
				c-15.82,4.96-31.92,9.08-48.03,13c-27.04,6.59-54.2,12.73-81.31,19.03c-13,3.02-26.03,5.94-39.02,9.02
				c-21.54,5.11-43.31,9.44-64.51,15.69c-26.26,7.74-48.65,22.11-66.66,43.2c-12.51,14.66-22.19,30.87-27.77,49.14
				C59.5,850.3,55.16,869.2,50.54,888c-6.73,27.34-13.19,54.74-19.77,82.12c-4.79,19.94-9.5,39.9-14.41,59.8
				c-7.42,30.02-14.98,60-22.5,89.99c-1.5,5.98,1.54,12.52,6.48,13.78c6.57,1.67,12.51-1.95,14.11-8.63
				c5.06-21.21,10.01-42.44,15.18-63.62c9-36.83,18.14-73.63,27.2-110.44c7.23-29.39,14.63-58.75,21.56-88.21
				c5.5-23.38,12.97-45.65,28.77-64.51c13.94-16.64,30.82-29.01,51.07-36.34c11.58-4.19,23.71-6.92,35.7-9.85
				c21.5-5.26,43.07-10.28,64.65-15.22c27.13-6.21,54.35-12.08,81.45-18.41c16.79-3.93,33.44-8.41,50.14-12.71
				c18.13-4.67,33.86-13.4,46.5-27.46c16.16-17.97,22.88-39.27,22.81-63.09c-0.06-20.67-0.19-41.33,0.1-62
				c0.08-5.53-1.7-9.88-5.1-13.83c-3.02-3.5-6.17-6.88-9.27-10.32c-10.58-11.75-19.14-24.92-25.98-39.08
				c-7.83-16.19-13.47-33.16-15.91-51.12c-1.12-8.26-4.13-10.24-12.26-11.13c-8.67-0.95-15.79-4.72-17.57-15.44
				c-1.68-10.15-3.01-20.37-5.17-30.41c-3.8-17.66-8.18-35.19-12.19-52.81c-2.6-11.41-2.03-22.87,0.45-34.21
				c1.17-5.36,2.7-6.09,7.51-3.73c4.5,2.21,8.48,2,12.2-1.32c3.62-3.22,3.56-7.4,2.86-11.75c-2.25-14.02-5.68-27.99-6.35-42.09
				c-0.75-15.8,0.11-31.83,1.96-47.56c1.81-15.49,5.2-30.86,8.86-46.05c5.25-21.81,14.43-42.2,25.57-61.59
				c11.37-19.8,25.89-37.21,42.58-52.86c12.76-11.97,27.02-21.7,42.18-30.25c25.3-14.27,52.67-22.45,81.39-24.49
				c17.56-1.25,35.55-0.3,53.01,2.1c14.18,1.96,28.16,6.75,41.7,11.72c22.6,8.29,43.07,20.8,60.78,37.03
				c11.65,10.68,22.19,22.74,32.16,35.05c13.83,17.07,23.55,36.64,31.62,57.05c6.44,16.27,11.57,32.91,14.03,50.22
				c2.35,16.54,4.36,33.16,5.67,49.82c0.68,8.69-0.12,17.56-0.92,26.28c-0.86,9.43-2.46,18.79-3.85,28.16
				c-0.38,2.57-1.24,5.06-1.76,7.61c-0.84,4.19-0.66,8.42,2.61,11.45c3.47,3.22,7.73,4.04,12.16,1.59c5.07-2.8,5.87-2.45,7.72,3.79
				c1.52,5.11,2.06,10.65,2.11,16.01c0.13,13.52-3.2,26.54-6.22,39.64c-4.58,19.83-9.06,39.73-12.45,59.79
				c-1.94,11.48-8.19,16.01-17.48,17.24c-8.93,1.18-11.5,3.27-12.73,11.81c-3.77,26.12-13.5,49.99-28.19,71.71
				c-6.41,9.47-14.21,18.03-21.64,26.78c-3.84,4.53-6.55,9.02-6.3,15.37C727.77,564.37,727.45,575.38,727.45,586.38z"/>
			<path d="M727.45,586.38c0-11,0.32-22.01-0.12-32.99c-0.25-6.35,2.46-10.85,6.3-15.37c7.43-8.75,15.23-17.3,21.64-26.78
				c14.7-21.72,24.42-45.6,28.19-71.71c1.23-8.54,3.8-10.63,12.73-11.81c9.29-1.23,15.54-5.76,17.48-17.24
				c3.39-20.06,7.87-39.95,12.45-59.79c3.03-13.1,6.35-26.12,6.22-39.64c-0.05-5.36-0.6-10.91-2.11-16.01
				c-1.85-6.24-2.65-6.58-7.72-3.79c-4.43,2.44-8.68,1.63-12.16-1.59c-3.27-3.03-3.45-7.26-2.61-11.45
				c0.51-2.55,1.38-5.04,1.76-7.61c1.39-9.37,2.98-18.74,3.85-28.16c0.8-8.73,1.6-17.59,0.92-26.28
				c-1.3-16.65-3.32-33.27-5.67-49.82c-2.46-17.31-7.59-33.95-14.03-50.22c-8.07-20.41-17.79-39.98-31.62-57.05
				c-9.97-12.31-20.51-24.36-32.16-35.05c-17.7-16.23-38.18-28.74-60.78-37.03c-13.54-4.97-27.52-9.77-41.7-11.72
				c-17.46-2.41-35.45-3.35-53.01-2.1c-28.72,2.04-56.09,10.22-81.39,24.49C478.76,6.2,464.5,15.93,451.74,27.9
				c-16.69,15.65-31.21,33.06-42.58,52.86c-11.13,19.38-20.32,39.77-25.57,61.59c-3.66,15.19-7.04,30.56-8.86,46.05
				c-1.84,15.73-2.7,31.76-1.96,47.56c0.67,14.1,4.09,28.07,6.35,42.09c0.7,4.35,0.76,8.52-2.86,11.75
				c-3.71,3.31-7.7,3.53-12.2,1.32c-4.81-2.37-6.33-1.64-7.51,3.73c-2.48,11.34-3.05,22.8-0.45,34.21
				c4.01,17.62,8.39,35.15,12.19,52.81c2.16,10.04,3.49,20.27,5.17,30.41c1.78,10.72,8.9,14.49,17.57,15.44
				c8.14,0.89,11.14,2.86,12.26,11.13c2.45,17.97,8.08,34.93,15.91,51.12c6.85,14.15,15.4,27.33,25.98,39.08
				c3.09,3.43,6.25,6.82,9.27,10.32c3.4,3.95,5.18,8.3,5.1,13.83c-0.3,20.66-0.17,41.33-0.1,62c0.07,23.82-6.65,45.12-22.81,63.09
				c-12.64,14.06-28.37,22.79-46.5,27.46c-16.7,4.3-33.35,8.79-50.14,12.71c-27.1,6.34-54.32,12.2-81.45,18.41
				c-21.58,4.94-43.15,9.96-64.65,15.22c-11.99,2.93-24.13,5.67-35.7,9.85c-20.25,7.33-37.12,19.7-51.07,36.34
				c-15.8,18.86-23.27,41.12-28.77,64.51c-6.93,29.46-14.33,58.82-21.56,88.21c-9.06,36.82-18.2,73.61-27.2,110.44
				c-5.17,21.18-10.12,42.41-15.18,63.62c-1.59,6.68-7.54,10.31-14.11,8.63c-4.94-1.26-7.98-7.8-6.48-13.78
				c7.52-29.99,15.08-59.97,22.5-89.99c4.92-19.91,9.62-39.87,14.41-59.8c6.58-27.38,13.05-54.78,19.77-82.12
				c4.62-18.8,8.96-37.7,14.61-56.19c5.58-18.27,15.26-34.49,27.77-49.14c18.01-21.09,40.4-35.46,66.66-43.2
				c21.2-6.25,42.97-10.58,64.51-15.69c12.99-3.08,26.02-5.99,39.02-9.02c27.11-6.31,54.26-12.45,81.31-19.03
				c16.11-3.92,32.22-8.04,48.03-13c23.46-7.36,37.62-24.03,43.84-47.43c1.58-5.95,1.98-12.34,2.07-18.53
				c0.26-18.5-0.2-37.01,0.27-55.49c0.15-5.81-1.61-10.17-5.33-14.08c-14.81-15.61-26.59-33.35-34.89-53.08
				c-5.59-13.29-9.5-27.3-13.85-41.09c-1.09-3.45-1.95-5.58-6.05-6.91c-14.39-4.67-22.45-14.59-25.32-29.96
				c-4.71-25.28-10.86-50.29-16.29-75.43c-3.71-17.17-4.72-34.45-0.33-51.63c2.29-8.94,7.3-16.01,16.5-19.43
				c0.96-0.36,1.81-2.63,1.7-3.93c-0.6-7.35-1.69-14.67-2.27-22.02c-0.56-7.08-1.19-14.21-0.96-21.3
				c0.79-24.29,3.16-48.36,8.51-72.21c4.89-21.78,11.9-42.79,21.82-62.56c7.72-15.38,17.32-29.99,27.54-43.88
				c8.47-11.51,18.32-22.28,28.87-31.94c18.76-17.18,39.5-31.89,63.52-40.99c14.27-5.41,28.84-10.15,43.53-14.25
				c8.12-2.26,16.74-3.04,25.2-3.67c10.73-0.8,21.52-1.04,32.29-1.05c17.14-0.02,33.93,2.96,50.42,7.37
				c17.06,4.57,33.4,11.07,48.97,19.5C717.23-13.15,731-3.3,744.03,7.74c16.49,13.97,30.5,30.11,42.56,47.88
				c11.37,16.76,20.58,34.74,27.92,53.69c7.09,18.29,11.97,37.18,15.74,56.35c1.73,8.82,2.33,17.88,3.16,26.86
				c0.85,9.18,2.14,18.42,1.86,27.59c-0.46,15.16-2.08,30.28-3.06,45.42c-0.09,1.37,0.54,3.75,1.42,4.07
				c11.52,4.2,15.69,13.58,17.82,24.51c3.9,19.98,0.28,39.3-4.37,58.72c-4.78,19.95-8.89,40.08-12.51,60.28
				c-3.08,17.16-11.1,29.31-28.74,33.88c-1.43,0.37-2.69,3.02-3.23,4.85c-2.94,9.81-5,19.94-8.55,29.52
				c-7.01,18.92-16.67,36.53-29.17,52.46c-4.76,6.07-9.92,11.83-14.7,17.88c-1.01,1.27-1.64,3.21-1.65,4.84
				c-0.11,22.17-0.51,44.34,0.09,66.49c0.38,13.83,5.67,26.28,14,37.48c11,14.81,26.64,21.73,43.7,26.13
				c19.22,4.96,38.53,9.6,57.86,14.14c27.41,6.44,54.9,12.55,82.31,19.03c27.56,6.51,55.2,12.73,82.51,20.18
				c18.62,5.07,35.03,14.97,49.8,27.55c23.5,20,38.26,45.2,45.71,74.95c6.49,25.88,13.17,51.71,19.6,77.6
				c8.12,32.7,16.08,65.43,24.1,98.15c3.68,15.01,7.34,30.03,11.02,45.05c4.64,18.96,9.29,37.92,13.94,56.88
				c1.44,5.88-1.92,12.52-6.88,13.57c-7.08,1.5-12.56-2.43-13.89-9.48c-1.14-6.07-2.74-12.05-4.22-18.05
				c-5.22-21.16-10.51-42.31-15.72-63.47c-5.14-20.86-10.23-41.74-15.31-62.62c-5.27-21.66-10.31-43.37-15.78-64.98
				c-6.78-26.81-12.82-53.87-21.14-80.2c-9.2-29.12-28.78-50.43-55.41-65.56c-16.77-9.53-35.24-13.2-53.56-17.58
				c-23.75-5.68-47.51-11.29-71.31-16.76c-28.4-6.53-57.02-12.23-85.22-19.52c-20.41-5.28-41.71-8.35-60.51-18.56
				c-24.13-13.1-40.16-33.17-44.49-60.55c-2.59-16.42-2.23-33.31-3.19-49.99C726.85,586.41,727.15,586.4,727.45,586.38z"/>
		</g>
	</g>
</g>
<g id="Layer_2">
	<g>
		<g>
			<g>
				<path class="st3" d="M444.69,439.59l-24.33-98.9c0,0-6-36.97-39.5-43.6S304.4,279.7,304.4,279.7s-32.55,0-26.86-54.35
					c0,0,19.59-18.64,22.12-41.71c0,0,9.48,3.79,15.17-33.81s-1.58-22.43-6.32-27.17c0,0,15.94-118.81-84.61-118.81"/>
				<path class="st3" d="M3.1,439.59l24.33-98.9c0,0,6-36.97,39.5-43.6s76.47-17.38,76.47-17.38s32.55,0,26.86-54.35
					c0,0-19.59-18.64-22.12-41.71c0,0-9.48,3.79-15.17-33.81s1.58-22.43,6.32-27.17c0,0-15.94-118.81,84.61-118.81"/>
			</g>
		</g>
	</g>
</g>
</svg>
