<?xml version="1.0" encoding="utf-8"?>
<!-- Generator: Adobe Illustrator 21.1.0, SVG Export Plug-In . SVG Version: 6.00 Build 0)  -->
<svg version="1.1" id="Layer_1" xmlns="http://www.w3.org/2000/svg" xmlns:xlink="http://www.w3.org/1999/xlink" x="0px" y="0px"
	 viewBox="0 0 42 42" style="enable-background:new 0 0 42 42;" xml:space="preserve">
<style type="text/css">
	.st0{fill:#FFFFFF;}
	.st1{fill:#0FB5DF;}
</style>
<circle class="st0" cx="21" cy="21" r="21"/>
<g>
	<path class="st1" d="M33,23.9c0-2.1-1.5-4-3.7-5c0.1,0.5,0.2,0.9,0.2,1.4c0.2,0.1,0.4,0.3,0.6,0.4c1.1,0.9,1.8,2,1.8,3.2
		c0,1.2-0.6,2.3-1.8,3.2c-1.2,1-2.9,1.5-4.7,1.5c-1.2,0-2.3-0.2-3.3-0.7c-0.6,0.1-1.3,0.2-1.9,0.2c1.4,1,3.2,1.7,5.3,1.7
		c1.3,0,2.6-0.3,3.6-0.7l2.8,1.4l-0.6-2.8C32.4,26.6,33,25.3,33,23.9L33,23.9z M33,23.9"/>
	<path class="st1" d="M28.7,19.5c0-0.5-0.1-1-0.2-1.4c-1-3.4-4.9-6-9.6-6c-5.4,0-9.9,3.4-9.9,7.6c0,1.8,0.8,3.5,2.3,4.8l-0.7,3.7
		l3.6-1.8c1.4,0.6,3,0.9,4.7,0.9c0.2,0,0.3,0,0.5,0c0.7,0,1.3-0.1,1.9-0.2c4.3-0.8,7.4-3.8,7.4-7.4C28.7,19.6,28.7,19.6,28.7,19.5
		L28.7,19.5z M14.2,20.9c-0.8,0-1.4-0.6-1.4-1.4c0-0.8,0.6-1.4,1.4-1.4c0.8,0,1.4,0.6,1.4,1.4C15.6,20.3,15,20.9,14.2,20.9
		L14.2,20.9z M18.9,20.9c-0.8,0-1.4-0.6-1.4-1.4c0-0.8,0.6-1.4,1.4-1.4c0.8,0,1.4,0.6,1.4,1.4C20.3,20.3,19.6,20.9,18.9,20.9
		L18.9,20.9z M23.5,20.9c-0.8,0-1.4-0.6-1.4-1.4c0-0.8,0.6-1.4,1.4-1.4c0.8,0,1.4,0.6,1.4,1.4C24.9,20.3,24.3,20.9,23.5,20.9
		L23.5,20.9z M23.5,20.9"/>
</g>
</svg>
