<svg id="Layer_1" data-name="Layer 1" xmlns="http://www.w3.org/2000/svg" xmlns:xlink="http://www.w3.org/1999/xlink" viewBox="0 0 378.28 294.15"><defs><linearGradient id="linear-gradient" x1="200.34" y1="335.5" x2="200.34" y2="67.91" gradientUnits="userSpaceOnUse"><stop offset="0" stop-color="#fff"/><stop offset="1" stop-color="#0073b1"/></linearGradient></defs><title>girl-at-computer</title><path d="M343.55,211.13a143.11,143.11,0,0,1-66.58,121c-37,0-119-.45-154-.45A143.22,143.22,0,1,1,343.55,211.13Z" transform="translate(-11.18 -42.35)" style="fill:#fff"/><path d="M129.29,335.5H271.38a143.22,143.22,0,1,0-142.09,0Z" transform="translate(-11.18 -42.35)" style="stroke:#fff;stroke-miterlimit:10;stroke-width:2px;opacity:0.2;fill:url(#linear-gradient)"/><path d="M200.34,65.91c-80.07,0-145.22,65.14-145.22,145.22A145.08,145.08,0,0,0,123,334v-4.77A141,141,0,0,1,59.12,211.13c0-77.87,63.35-141.22,141.22-141.22s141.21,63.35,141.21,141.22A141,141,0,0,1,286.5,323h6.4a144.92,144.92,0,0,0,52.65-111.87C345.55,131.05,280.41,65.91,200.34,65.91Z" transform="translate(-11.18 -42.35)" style="fill:#0073b1"/><path d="M245.58,166.24s-.15-38.45-8.73-50.5c-8.22-11.55-18.21-16.88-35.56-16.88-9,0-24.09,4.89-31.21,14.13-15.13,19.67-10.41,48.51-10.41,62.73v39.61c0,9.46,8.09,17.14,18.06,17.14h49.79c10,0,18.06-7.68,18.06-17.14V166.24Z" transform="translate(-11.18 -42.35)" style="fill:#99c6df"/><path d="M227.52,233.93H177.73c-10.77,0-19.53-8.34-19.53-18.6V175.72c0-2.4-.13-5.19-.29-8.41-.74-15.32-1.86-38.48,11-55.21,7.81-10.15,23.63-14.71,32.37-14.71,17.26,0,27.91,5.07,36.76,17.5,8.74,12.28,9,49.76,9,51.35v49.09C247.05,225.59,238.29,233.93,227.52,233.93ZM201.29,100.32c-7.9,0-22.92,4.31-30,13.57-12.21,15.87-11.12,38.38-10.4,53.28.15,3.13.29,6.08.29,8.55v39.61c0,8.64,7.45,15.67,16.6,15.67h49.79c9.15,0,16.6-7,16.6-15.67V166.25c0-.38-.25-38.13-8.46-49.66S217.48,100.32,201.29,100.32Z" transform="translate(-11.18 -42.35)" style="fill:#0073b1"/><rect x="153.86" y="116.49" width="1.95" height="69.46" style="fill:#0073b1"/><rect x="157.77" y="151.68" width="1.95" height="36.12" style="fill:#878787"/><rect x="222.2" y="143.35" width="1.95" height="44" style="fill:#878787"/><rect x="228.06" y="140.57" width="1.95" height="44" style="fill:#0073b1"/><path d="M227.26,212.85l-24.15-13.17L179,212.85a15.69,15.69,0,0,0-8.06,13.8v15h64.43v-15A15.68,15.68,0,0,0,227.26,212.85Z" transform="translate(-11.18 -42.35)" style="fill:#65a9cf"/><path d="M237.28,241.66h-3.9v-15a13.62,13.62,0,0,0-7.28-12.07L210,206.05a1.94,1.94,0,0,1-1-1.72V185H195.3v19.59a2,2,0,0,1-1,1.7l-14.49,8.15a13.68,13.68,0,0,0-7,11.91v15.28h-3.91V226.38a17.61,17.61,0,0,1,9-15.31l13.5-7.59v-20.4a2,2,0,0,1,1.95-2h17.57a2,2,0,0,1,2,2v20.07l15.05,8a17.54,17.54,0,0,1,9.35,15.53Z" transform="translate(-11.18 -42.35)" style="fill:#0073b1"/><path d="M218.73,211.39c0,4.85-9.58,19.53-16.59,19.53s-16.6-14.68-16.6-19.53,9.59-5.86,16.6-5.86S218.73,206.54,218.73,211.39Z" transform="translate(-11.18 -42.35)" style="fill:#fff"/><path d="M202.14,231.89c-7.61,0-17.58-15-17.58-20.5,0-5.65,9.56-6.83,17.58-6.83s17.57,1.18,17.57,6.83C219.71,216.88,209.75,231.89,202.14,231.89Zm0-25.38c-9.79,0-15.62,1.83-15.62,4.88,0,4.44,9.29,18.55,15.62,18.55s15.62-14.11,15.62-18.55C217.76,208.34,211.92,206.51,202.14,206.51Z" transform="translate(-11.18 -42.35)" style="fill:#0073b1"/><polyline points="199.75 170.02 199.75 168.07 199.75 140.74 182.17 140.74 182.17 170.02 182.17 168.07" style="fill:#fff"/><path d="M193.35,213.34a1,1,0,0,1-1-1V183.08a1,1,0,0,1,1-1h17.57a1,1,0,0,1,1,1v29.29h-2V184.06H194.33v28.31A1,1,0,0,1,193.35,213.34Z" transform="translate(-11.18 -42.35)" style="fill:#0073b1"/><rect x="189.98" y="182.71" width="1.95" height="5.86" style="fill:#0073b1"/><path d="M219.32,193.62l-7.81,5.86a15.62,15.62,0,0,1-18.75,0L185,193.62a35.12,35.12,0,0,1-14-28.11V136.22A31.24,31.24,0,0,1,202.14,105h0a31.24,31.24,0,0,1,31.24,31.24v29.29A35.13,35.13,0,0,1,219.32,193.62Z" transform="translate(-11.18 -42.35)" style="fill:#fff"/><path d="M202.14,204.54a17.58,17.58,0,0,1-10.55-3.5l-7.81-5.85a37.29,37.29,0,0,1-14.84-29.68V136.22a33.2,33.2,0,0,1,66.39,0v29.29a37.29,37.29,0,0,1-14.84,29.68L212.68,201A17.53,17.53,0,0,1,202.14,204.54Zm0-97.61a29.32,29.32,0,0,0-29.29,29.29v29.29a33.32,33.32,0,0,0,13.28,26.55l7.81,5.86a13.74,13.74,0,0,0,16.4,0l7.81-5.86a33.34,33.34,0,0,0,13.27-26.55V136.22A29.32,29.32,0,0,0,202.14,106.93Z" transform="translate(-11.18 -42.35)" style="fill:#0073b1"/><path d="M186.52,155.74h0a2.93,2.93,0,0,1-2.93-2.92v-3.91a2.93,2.93,0,0,1,2.93-2.93h0a2.93,2.93,0,0,1,2.93,2.93v3.91A2.93,2.93,0,0,1,186.52,155.74Z" transform="translate(-11.18 -42.35)" style="fill:#888"/><path d="M215.8,155.74h0a2.92,2.92,0,0,1-2.92-2.92v-3.91A2.93,2.93,0,0,1,215.8,146h0a2.93,2.93,0,0,1,2.93,2.93v3.91A2.93,2.93,0,0,1,215.8,155.74Z" transform="translate(-11.18 -42.35)" style="fill:#888"/><path d="M186.52,155.74h0a2.93,2.93,0,0,1-2.93-2.92v-3.91a2.93,2.93,0,0,1,2.93-2.93h0a2.93,2.93,0,0,1,2.93,2.93v3.91A2.93,2.93,0,0,1,186.52,155.74Z" transform="translate(-11.18 -42.35)" style="fill:#888"/><path d="M215.8,155.74h0a2.92,2.92,0,0,1-2.92-2.92v-3.91A2.93,2.93,0,0,1,215.8,146h0a2.93,2.93,0,0,1,2.93,2.93v3.91A2.93,2.93,0,0,1,215.8,155.74Z" transform="translate(-11.18 -42.35)" style="fill:#888"/><path d="M186.52,146a2.93,2.93,0,0,0-2.93,2.93,2,2,0,0,1-3.91,0h-2a3.92,3.92,0,0,0,3.91,3.91,3.84,3.84,0,0,0,2-.55v.55a2.93,2.93,0,0,0,5.86,0v-3.91A2.93,2.93,0,0,0,186.52,146Z" transform="translate(-11.18 -42.35)" style="fill:#0073b1"/><path d="M222.64,148.91a2,2,0,0,1-3.91,0,2.93,2.93,0,1,0-5.85,0v3.91a2.93,2.93,0,0,0,5.85,0v-.55a3.85,3.85,0,0,0,2,.55,3.91,3.91,0,0,0,3.9-3.91Z" transform="translate(-11.18 -42.35)" style="fill:#0073b1"/><path d="M202.09,171.36c-2,0-3.65-1.9-4.7-3.33l1.58-1.15c.46.63,1.85,2.53,3.12,2.53s2.66-1.9,3.11-2.53l1.58,1.15C205.74,169.46,204.11,171.36,202.09,171.36Z" transform="translate(-11.18 -42.35)" style="fill:#0073b1"/><path d="M195.13,168.92a5.87,5.87,0,0,1-.85-2.49c0-2,2-4.25,2.2-4.5l1.46,1.29c-.66.75-1.71,2.27-1.71,3.21a4.7,4.7,0,0,0,.58,1.51Z" transform="translate(-11.18 -42.35)" style="fill:#0073b1"/><path d="M209.05,168.92l-1.69-1a4.45,4.45,0,0,0,.59-1.51c0-.94-1-2.46-1.71-3.21l1.46-1.29c.22.25,2.2,2.52,2.2,4.5A6,6,0,0,1,209.05,168.92Z" transform="translate(-11.18 -42.35)" style="fill:#0073b1"/><path d="M229.87,143.72a4.93,4.93,0,0,0-1-.36c-1.1-.29-2.24-.59-3.39-.87l-.62-.14a50.31,50.31,0,0,0-5.36-1.06,24.23,24.23,0,0,0-3.1-.19,22,22,0,0,0-8,1.41,9.75,9.75,0,0,0-3.41,2.15,4.12,4.12,0,0,0-.28.31l0-.05c-.44-.41-1-.27-1.57-.27h-3.86c-.6,0-1.13-.14-1.57.28l0,0a4.12,4.12,0,0,0-.28-.31,9.65,9.65,0,0,0-3.41-2.15,22,22,0,0,0-8-1.41,24.23,24.23,0,0,0-3.1.19,50.31,50.31,0,0,0-5.36,1.06l-.62.15c-1.16.27-2.34.58-3.39.86a4.93,4.93,0,0,0-1,.36,1,1,0,0,0-.57.77c0,.66,0,1.33,0,2a1,1,0,0,0,1,.89l.31,0,.19,0c.15,0,.16.09.16.13.09.84.13,1.57.17,2.28a15.56,15.56,0,0,0,.9,5.18A9.23,9.23,0,0,0,177,158.6a11.48,11.48,0,0,0,7,2.93,13.36,13.36,0,0,0,1.44.07,16.32,16.32,0,0,0,7.32-1.67,12.31,12.31,0,0,0,6-9.49c.08-.66.12-1.33.15-2l0-.69a11.32,11.32,0,0,1,4.34,0l0,.69c0,.65.07,1.32.15,2a12.31,12.31,0,0,0,6,9.49,16.32,16.32,0,0,0,7.32,1.67,13.36,13.36,0,0,0,1.44-.07,11.48,11.48,0,0,0,7-2.93,9.23,9.23,0,0,0,2.33-3.55,15.86,15.86,0,0,0,.91-5.18c0-.71.07-1.44.16-2.28,0,0,0-.1.16-.13l.19,0,.31,0a1,1,0,0,0,1-.89c0-.66.06-1.33,0-2A1,1,0,0,0,229.87,143.72Zm-6.82,14.06a9.67,9.67,0,0,1-4.31,1.67,16,16,0,0,1-5.29-.19,9.68,9.68,0,0,1-4.46-2.18c-2.33-2-3.41-5.76-3.27-8.43a4.37,4.37,0,0,1,2-3.47,11,11,0,0,1,3.91-1.68,20.82,20.82,0,0,1,4.64-.5,18.41,18.41,0,0,1,6.32,1,5.83,5.83,0,0,1,3.27,2.6C227.52,149.75,226,155.69,223.05,157.78Zm-39.47,1.67a9.67,9.67,0,0,1-4.31-1.67c-3-2.09-4.47-8-2.82-11.16a5.82,5.82,0,0,1,3.26-2.59,18.26,18.26,0,0,1,6.33-1,20.82,20.82,0,0,1,4.64.5,11,11,0,0,1,3.91,1.68,4.41,4.41,0,0,1,2,3.47c.13,2.67-1,6.43-3.28,8.43a9.68,9.68,0,0,1-4.46,2.18A16,16,0,0,1,183.58,159.45Z" transform="translate(-11.18 -42.35)" style="fill:#0073b1"/><path d="M215.9,95.82c-1.55-.19-8.33,2.59-12.54,3.08-3.41-1.17-13.27-3.81-15-3.58-22,2.86-27.4,34.43-29.18,40.07a116.75,116.75,0,0,0-3.27,57.24c.23,8.27,1.38,12.8,3.68,14.49.54,4.74,1.51,7.46,3,8.53a1.3,1.3,0,0,0,1.29.1c.35-.18.58-.3.74-1.11a9.3,9.3,0,0,0,2.15,4.44c.49,3,1.22,4.89,2.24,5.95.43,2.14,1,3.48,1.8,4.2a1.25,1.25,0,0,0,1.31.21c1-.46,1-.46,1-17.1v-1.87a1,1,0,0,0,.35-.16c.93-.62,1.06-1.39,1.11-19.25,0-12.08.08-28.61,1-43,3.31-17.11,13.19-20.62,20.4-23.18,2.76-1,5.07-1.8,6.52-3.2,1.41,1.37,3.59,2.22,6.19,3.24,6.47,2.53,15.33,6,19.05,20.72,1.41,12.91,2.25,25.2,2.91,42.36.12,9.31.12,17.86.12,24.73,0,16.72,0,16.72,1,17.18a1.15,1.15,0,0,0,.48.1,1.26,1.26,0,0,0,.83-.31c.79-.72,1.37-2,1.8-4.19,1-1,1.71-2.85,2.2-5.67,1.06-.76,1.87-2.35,2.49-4.71.16.8.39.92.74,1.1a1.3,1.3,0,0,0,1.28-.09c1.55-1.1,2.5-3.75,3-8.55,2.3-1.7,3.44-6.22,3.67-14.46a116.66,116.66,0,0,0-3.27-57.27C243.29,130.26,237.89,98.7,215.9,95.82Z" transform="translate(-11.18 -42.35)" style="fill:#99c6df"/><path d="M232.28,231a2.17,2.17,0,0,1-.88-.19c-1.61-.72-1.61-.72-1.61-18.07v-.47c0-6.75,0-15.15-.11-24.25-.66-17.09-1.5-29.33-2.9-42.19-3.61-14.2-12.18-17.55-18.44-20A23.2,23.2,0,0,1,202.5,123a23.33,23.33,0,0,1-6.19,2.84c-7,2.48-16.54,5.87-19.76,22.38-.88,14.33-.92,30.81-1,42.85-.05,18.69-.16,19.13-1.45,20v1.27c0,17.28,0,17.28-1.61,18a2.22,2.22,0,0,1-2.36-.38c-.93-.83-1.58-2.25-2-4.46-1-1.19-1.75-3.1-2.25-5.94a8.2,8.2,0,0,1-1.63-2.88,2.27,2.27,0,0,1-2.21-.23c-1.74-1.22-2.79-3.95-3.39-8.81-2.33-2-3.49-6.68-3.72-14.89a118.53,118.53,0,0,1,3.31-57.65c.19-.6.43-1.54.74-2.73,2.48-9.67,9.06-35.38,29.24-38,2-.26,12,2.48,15.25,3.55a51.23,51.23,0,0,0,7.19-1.82c2.83-.86,4.47-1.34,5.37-1.23h0c20.2,2.65,26.77,28.35,29.25,38,.3,1.19.54,2.13.73,2.73a118.15,118.15,0,0,1,3.31,57.67c-.23,8.18-1.39,12.8-3.72,14.85-.6,4.93-1.63,7.59-3.41,8.84a2.21,2.21,0,0,1-2.18.21,7.85,7.85,0,0,1-2,3.23c-.5,2.66-1.2,4.46-2.2,5.61-.47,2.19-1.12,3.61-2,4.44A2.25,2.25,0,0,1,232.28,231Zm-.17-2,.09,0a.32.32,0,0,0,.26,0c.62-.57,1.11-1.76,1.49-3.66l.06-.28.2-.21c.85-.87,1.49-2.56,1.94-5.16l.07-.39.32-.23c.84-.6,1.55-2,2.11-4.17l1.08-4.15.83,4.21a1.58,1.58,0,0,0,.1.37l.13,0a.33.33,0,0,0,.26,0c1.28-.9,2.15-3.47,2.65-7.86l.05-.43.34-.25c2-1.47,3.06-6,3.27-13.7l0-.16a116.25,116.25,0,0,0-3.24-56.78c-.21-.66-.46-1.62-.77-2.83-2.38-9.33-8.71-34.1-27.6-36.57h0a26.84,26.84,0,0,0-4.55,1.15,50,50,0,0,1-7.74,1.93l-.22,0-.21-.07c-3.8-1.3-13.22-3.72-14.59-3.53-18.87,2.46-25.21,27.23-27.6,36.56-.31,1.21-.56,2.18-.77,2.83a116.49,116.49,0,0,0-3.24,56.76l0,.16c.21,7.78,1.28,12.27,3.27,13.73l.35.25,0,.43c.49,4.32,1.38,7,2.63,7.84a.27.27,0,0,0,.27,0l.15-.07s0-.1.08-.36l.83-4.23,1.08,4.18a8.5,8.5,0,0,0,1.86,4l.25.23.05.32c.46,2.75,1.11,4.53,2,5.43l.2.21.06.28c.38,1.9.87,3.1,1.5,3.66a.27.27,0,0,0,.26.05l.14-.07c.31-.55.31-4.8.3-16.14v-2.61l.72-.2c.61-.39.7-4.29.74-18.47,0-12.08.08-28.63,1-43l0-.13c3.42-17.66,13.6-21.27,21-23.91,2.61-.93,4.87-1.73,6.17-3l.69-.66.67.67c1.27,1.24,3.4,2.07,5.87,3,6.66,2.6,15.8,6.17,19.64,21.39l0,.14c1.41,12.94,2.26,25.23,2.92,42.42.12,9.13.12,17.54.12,24.3v.47c0,11.4,0,15.67.35,16.27Z" transform="translate(-11.18 -42.35)" style="fill:#0073b1"/><path d="M202.5,121.71" transform="translate(-11.18 -42.35)" style="fill:#adadad;stroke:#878787;stroke-miterlimit:10;stroke-width:2px"/><path d="M229.52,110.31c-4.34-5.38-9-8.26-13.92-8.58-6.62-.42-11.43,4.08-11.48,4.12l-.49.47L203,106c-3.57-1.69-13.58-5.47-17-2.7l-1.23-1.51c4.55-3.71,15.55.86,18.46,2.18a18.38,18.38,0,0,1,12.45-4.22c5.46.35,10.62,3.48,15.31,9.3Z" transform="translate(-11.18 -42.35)" style="fill:#0073b1"/><path d="M229.64,236.78c0-3-4-9.28-11.37-9.28-2.37,0-5.28,1.36-7.94,3a13.61,13.61,0,0,1-14.43,0c-2.66-1.66-5.57-3-8-3-7.32,0-11.37,6.31-11.37,9.28v4.88h53.06Z" transform="translate(-11.18 -42.35)" style="fill:#348dc0"/><rect x="122.09" y="174.39" width="137.77" height="86.98" rx="5.92" style="fill:#fff"/><path d="M262.21,305.21H142.08a10.31,10.31,0,0,1-10.31-10.3V225.55a10.31,10.31,0,0,1,10.31-10.3H262.21a10.31,10.31,0,0,1,10.31,10.3v69.36A10.31,10.31,0,0,1,262.21,305.21Zm-120.13-87a7.33,7.33,0,0,0-7.33,7.32v69.36a7.34,7.34,0,0,0,7.33,7.32H262.21a7.34,7.34,0,0,0,7.33-7.32V225.55a7.33,7.33,0,0,0-7.33-7.32Z" transform="translate(-11.18 -42.35)" style="fill:#0073b1"/><circle cx="190.55" cy="214.05" r="6.93" style="fill:#65a9cf"/><path d="M122.09,261.37H259.85a0,0,0,0,1,0,0v9a6.52,6.52,0,0,1-6.52,6.52H128.61a6.52,6.52,0,0,1-6.52-6.52v-9A0,0,0,0,1,122.09,261.37Z" style="fill:#99c6df"/><path d="M261.32,320.71H143a11.21,11.21,0,0,1-11.2-11.19v-7.29H272.52v7.29A11.21,11.21,0,0,1,261.32,320.71Zm-126.57-15.5v4.31a8.22,8.22,0,0,0,8.22,8.21H261.32a8.22,8.22,0,0,0,8.22-8.21v-4.31Z" transform="translate(-11.18 -42.35)" style="fill:#0073b1"/><path d="M286.55,251.42H312a0,0,0,0,1,0,0v20.07a5.38,5.38,0,0,1-5.38,5.38H291.93a5.38,5.38,0,0,1-5.38-5.38V251.42A0,0,0,0,1,286.55,251.42Z" style="fill:#fff"/><path d="M315.17,320.71h-9.43a9.51,9.51,0,0,1-9.5-9.5V292.27h28.43v18.94A9.51,9.51,0,0,1,315.17,320.71Zm-16-25.46v16a6.53,6.53,0,0,0,6.53,6.52h9.43a6.52,6.52,0,0,0,6.52-6.52v-16Z" transform="translate(-11.18 -42.35)" style="fill:#0073b1"/><path d="M323.18,297.24a7.13,7.13,0,0,1,0,14.26" transform="translate(-11.18 -42.35)" style="fill:#fff"/><path d="M323.18,313v-3a5.65,5.65,0,1,0,0-11.29v-3a8.62,8.62,0,0,1,0,17.24Z" transform="translate(-11.18 -42.35)" style="fill:#0073b1"/><rect x="7.82" y="276.87" width="356.07" height="16.54" style="fill:#0073b1"/><path d="M159,292.14h-9.3a1.49,1.49,0,1,1,0-3H159a1.49,1.49,0,0,1,0,3Z" transform="translate(-11.18 -42.35)" style="fill:#1782c5"/><rect x="21.77" y="255.75" width="88.39" height="19.54" rx="2" style="fill:#fff"/><path d="M118.36,319.12H35.92a4.46,4.46,0,0,1-4.46-4.46V301.07a4.47,4.47,0,0,1,4.46-4.47h82.44a4.47,4.47,0,0,1,4.46,4.47v13.59A4.46,4.46,0,0,1,118.36,319.12ZM35.92,299.58a1.49,1.49,0,0,0-1.48,1.49v13.59a1.49,1.49,0,0,0,1.48,1.49h82.44a1.49,1.49,0,0,0,1.49-1.49V301.07a1.49,1.49,0,0,0-1.49-1.49Z" transform="translate(-11.18 -42.35)" style="fill:#0073b1"/><rect x="77.53" y="255.75" width="14.1" height="19.54" style="fill:#99c6df"/><path d="M44,231.41h59.35a0,0,0,0,1,0,0v24.34a0,0,0,0,1,0,0H44a8.18,8.18,0,0,1-8.18-8.18v-8A8.18,8.18,0,0,1,44,231.41Z" style="fill:#99cce9"/><path d="M116,299.58H59.13a13.66,13.66,0,0,1,0-27.31H116ZM59.13,275.24a10.68,10.68,0,1,0,0,21.36H113V275.24Z" transform="translate(-11.18 -42.35)" style="fill:#0073b1"/><path d="M113.22,278.74H60.67a7.19,7.19,0,0,0,0,14.37h52.55Z" transform="translate(-11.18 -42.35)" style="fill:#fff"/><path d="M114,293.85H60.67a7.93,7.93,0,0,1,0-15.85H114ZM60.67,279.49a6.44,6.44,0,0,0,0,12.87h51.8V279.49Z" transform="translate(-11.18 -42.35)" style="fill:#0073b1"/><line x1="65.49" y1="241.88" x2="73.33" y2="241.88" style="fill:#fff"/><path d="M84.51,285.72H76.67a1.49,1.49,0,1,1,0-3h7.84a1.49,1.49,0,0,1,0,3Z" transform="translate(-11.18 -42.35)" style="fill:#1782c5"/><line x1="78.25" y1="241.88" x2="86.08" y2="241.88" style="fill:#fff"/><path d="M97.26,285.72H89.42a1.49,1.49,0,1,1,0-3h7.84a1.49,1.49,0,0,1,0,3Z" transform="translate(-11.18 -42.35)" style="fill:#1782c5"/><path d="M92.63,268.63V261.5h4.63v-4.39H55.52a8.32,8.32,0,0,0,0,16.64H97.26v-5.12Z" transform="translate(-11.18 -42.35)" style="fill:#99cce9"/><path d="M98,274.5H55.52a9.07,9.07,0,0,1,0-18.13H98v5.88H93.37v5.63H98ZM55.52,257.86a7.58,7.58,0,1,0,0,15.15h41v-3.64H91.88v-8.61h4.63v-2.9Z" transform="translate(-11.18 -42.35)" style="fill:#1782c5"/><path d="M56.36,261.5a3.57,3.57,0,1,0,0,7.13H94.12V261.5Z" transform="translate(-11.18 -42.35)" style="fill:#fff"/><path d="M94.87,269.37H56.36a4.31,4.31,0,1,1,0-8.61H94.87Zm-38.51-7.12a2.82,2.82,0,1,0,0,5.63h37v-5.63Z" transform="translate(-11.18 -42.35)" style="fill:#1782c5"/><path d="M204.15,178.19s8,1,8,3.5-4.48,5.5-10,5.5-10-3-10-5.5,8-3.5,8-3.5h0a2.19,2.19,0,0,0,4,0Z" transform="translate(-11.18 -42.35)" style="fill:#99c6df"/><path d="M202.14,184.23a33.63,33.63,0,0,1-12.89-2.55l.76-1.85a31.88,31.88,0,0,0,24.27,0l.76,1.85A33.68,33.68,0,0,1,202.14,184.23Z" transform="translate(-11.18 -42.35)" style="fill:#0073b1"/><rect x="278.06" y="88.05" width="31.81" height="5.83" style="fill:#99c6df"/><polyline points="239.3 72.4 258.36 72.4 258.36 122.53 258.36 128.43 269.17 128.43" style="fill:none;stroke:#99c6df;stroke-miterlimit:10;stroke-dasharray:6,3"/><polyline points="245.47 140.8 275.32 140.8 275.32 190.94 275.32 196.83 286.12 196.83" style="fill:none;stroke:#99c6df;stroke-miterlimit:10;stroke-dasharray:6,3"/><rect x="262.32" y="86.53" width="8.87" height="8.87" rx="1.47" style="fill:none;stroke:#99c6df;stroke-miterlimit:10;stroke-width:0.5px"/><polyline points="263.98 89.08 267.03 92.13 274.35 84.81" style="fill:none;stroke:#99c6df;stroke-miterlimit:10;stroke-width:2px"/><rect x="278.06" y="87.7" width="27.93" height="6.82" style="fill:#99c6df"/><rect x="262.32" y="100.06" width="8.87" height="8.87" rx="1.47" style="fill:none;stroke:#99c6df;stroke-miterlimit:10;stroke-width:0.5px"/><polyline points="263.98 102.61 267.03 105.66 274.35 98.34" style="fill:none;stroke:#99c6df;stroke-miterlimit:10;stroke-width:2px"/><rect x="278.06" y="101.23" width="27.93" height="6.82" style="fill:#99c6df"/><rect x="262.32" y="113.67" width="8.87" height="8.87" rx="1.47" style="fill:none;stroke:#99c6df;stroke-miterlimit:10;stroke-width:0.5px"/><polyline points="263.98 116.22 267.03 119.26 274.35 111.95" style="fill:none;stroke:#99c6df;stroke-miterlimit:10;stroke-width:2px"/><rect x="278.06" y="114.83" width="27.93" height="6.82" style="fill:#99c6df"/><polyline points="137.01 137.48 116.45 137.48 116.45 97.47 106.14 97.47" style="fill:none;stroke:#99c6df;stroke-miterlimit:10;stroke-dasharray:6,3"/><polyline points="96.05 188.79 107.91 188.79 107.91 148.77 118.22 148.77" style="fill:none;stroke:#99c6df;stroke-miterlimit:10;stroke-dasharray:6,3"/><rect x="72.25" y="103.64" width="37.91" height="6" style="fill:none;stroke:#99c6df;stroke-miterlimit:10"/><rect x="72.25" y="111.27" width="37.91" height="6" style="fill:none;stroke:#99c6df;stroke-miterlimit:10"/><rect x="72.25" y="118.91" width="37.91" height="6" style="fill:none;stroke:#99c6df;stroke-miterlimit:10"/><rect x="72.25" y="126.54" width="37.91" height="6" style="fill:none;stroke:#99c6df;stroke-miterlimit:10"/><rect x="290.7" y="143.35" width="37.24" height="9.69" style="fill:#99c6df"/><rect x="290.7" y="157.34" width="37.24" height="41.97" style="fill:none;stroke:#99c6df;stroke-miterlimit:10"/><path d="M306.44,208.32c.36-.93.69-2.2,1.67-2.5s2.07.64,2.81,1.23a29.4,29.4,0,0,0,3.12,2.44,10.12,10.12,0,0,0,11.15-.77c1.54-1.19,2.54-3.75,4.79-2.39,1.17.7,1.85,1.86,3.19,2.37a3.85,3.85,0,0,0,3.42-.22c1.72-.88.2-3.46-1.52-2.59-1.33.67-3.41-2.27-4.59-2.81a4.11,4.11,0,0,0-3.78.14c-1.27.7-2,2-3.08,2.94a7.33,7.33,0,0,1-5.8,1.57c-3.39-.55-5.15-4-8.4-4.91-3.51-.94-4.8,1.93-5.87,4.7-.7,1.8,2.2,2.58,2.89.8Z" transform="translate(-11.18 -42.35)" style="fill:#cbe1ed"/><path d="M306.44,215.74c.36-.93.69-2.2,1.67-2.5s2.07.65,2.81,1.23a29.4,29.4,0,0,0,3.12,2.44,10.12,10.12,0,0,0,11.15-.77c1.54-1.19,2.54-3.75,4.79-2.39,1.17.71,1.85,1.86,3.19,2.37a3.85,3.85,0,0,0,3.42-.22c1.72-.87.2-3.46-1.52-2.59-1.33.67-3.41-2.27-4.59-2.81a4.11,4.11,0,0,0-3.78.14c-1.27.7-2,2-3.08,2.94a7.33,7.33,0,0,1-5.8,1.57c-3.39-.55-5.15-4-8.4-4.91-3.51-.94-4.8,1.93-5.87,4.7-.7,1.8,2.2,2.58,2.89.8Z" transform="translate(-11.18 -42.35)" style="fill:#cbe1ed"/><path d="M306.34,223.94c.36-.93.68-2.2,1.67-2.5s2.07.65,2.81,1.24a30.67,30.67,0,0,0,3.12,2.43,10,10,0,0,0,8,.88,10.23,10.23,0,0,0,3.18-1.64c1.55-1.2,2.55-3.76,4.8-2.4,1.17.71,1.85,1.86,3.19,2.37a3.83,3.83,0,0,0,3.41-.22c1.72-.87.21-3.46-1.51-2.59-1.33.67-3.42-2.27-4.6-2.8a4.09,4.09,0,0,0-3.77.14c-1.27.69-2,2-3.09,2.93a7.35,7.35,0,0,1-5.8,1.58c-3.38-.56-5.14-4.05-8.4-4.92-3.5-.94-4.79,1.93-5.87,4.71-.69,1.8,2.21,2.58,2.9.79Z" transform="translate(-11.18 -42.35)" style="fill:#cbe1ed"/><path d="M306.34,232.15c.36-.94.68-2.2,1.67-2.51s2.07.65,2.81,1.24a30.67,30.67,0,0,0,3.12,2.43,10,10,0,0,0,8,.88,10.23,10.23,0,0,0,3.18-1.64c1.55-1.2,2.55-3.76,4.8-2.39,1.17.7,1.85,1.85,3.19,2.37a3.83,3.83,0,0,0,3.41-.23c1.72-.87.21-3.46-1.51-2.59-1.33.68-3.42-2.26-4.6-2.8a4.09,4.09,0,0,0-3.77.14c-1.27.69-2,2-3.09,2.94a7.35,7.35,0,0,1-5.8,1.57c-3.38-.56-5.14-4-8.4-4.92-3.5-.94-4.79,1.93-5.87,4.71-.69,1.8,2.21,2.58,2.9.8Z" transform="translate(-11.18 -42.35)" style="fill:#cbe1ed"/><path d="M85.5,214.64v17h-17a17,17,0,1,0,17-17Z" transform="translate(-11.18 -42.35)" style="fill:none;stroke:#99c6df;stroke-miterlimit:10"/><path d="M81.35,211.35a16.94,16.94,0,0,0-16.94,17H81.35Z" transform="translate(-11.18 -42.35)" style="fill:#99c6df"/><rect width="378.28" height="293.42" style="fill:none"/></svg>