<svg id="Layer_1" data-name="Layer 1" xmlns="http://www.w3.org/2000/svg" viewBox="0 0 360 107.78"><defs><style>.cls-1{fill:#fff;}.cls-2{fill:none;}.cls-3{fill:#0F73AF;}.cls-4{fill:#383a35;}</style></defs><title>ProctorU-Logo-2color</title><path class="cls-1" d="M367.23,66.46,369.4,69a.21.21,0,0,0,.38-.14V63.27a12.66,12.66,0,0,1-2.53,3.17Z" transform="translate(-36 -38.11)"/><line class="cls-2" x1="203.76" y1="19.94" x2="203.76" y2="19.94"/><path class="cls-3" d="M392.26,112.84V72.7h-7.39V97.58c0,9.58-6.37,17.36-16.11,17.29-9.58-.07-15.7-8.24-15.7-17.82V77.95a5.24,5.24,0,0,0-5.24-5.24h-2.13V97.58c0,13.84,10,25,24.07,24.65,6.52-.18,10.89-3,15.16-7.33a6.86,6.86,0,0,0,1.77,4.68c2.51,2.84,7.61,2.39,9.31-.44C394.09,118.82,392.36,117.27,392.26,112.84Z" transform="translate(-36 -38.11)"/><path class="cls-1" d="M347.87,56.56a9.44,9.44,0,1,0,9.44-9.44A9.44,9.44,0,0,0,347.87,56.56Zm3.63,0a5.81,5.81,0,1,1,5.81,5.81A5.81,5.81,0,0,1,351.5,56.56Z" transform="translate(-36 -38.11)"/><circle class="cls-3" cx="321.3" cy="18.45" r="5.81"/><path class="cls-3" d="M393.32,42.92A4.17,4.17,0,0,0,394,40c0-1.37-.17-2.25-1.22-1.83,0,0-16.18,6.94-23.9,6.94S345,38.21,345,38.21c-1.05-.42-1.22.45-1.22,1.83a4.17,4.17,0,0,0,.72,2.88l3.38,4a13.46,13.46,0,0,0,17.33,20.52l3,3.66a1,1,0,0,0,1.4,0l3-3.66a13.35,13.35,0,0,0,7.92,2.6,13.47,13.47,0,0,0,9.41-23.12ZM357.3,66a9.44,9.44,0,1,1,9.44-9.44A9.44,9.44,0,0,1,357.3,66ZM390,56.56a9.44,9.44,0,1,1-9.44-9.44A9.44,9.44,0,0,1,390,56.56Z" transform="translate(-36 -38.11)"/><path class="cls-1" d="M380.53,47.12A9.44,9.44,0,1,0,390,56.56,9.44,9.44,0,0,0,380.53,47.12Zm0,15.25a5.81,5.81,0,1,1,5.81-5.81A5.81,5.81,0,0,1,380.53,62.37Z" transform="translate(-36 -38.11)"/><circle class="cls-3" cx="344.53" cy="18.45" r="5.81"/><path class="cls-1" d="M366.54,66.14l2,2.39a.21.21,0,0,0,.38-.14v-5A13.62,13.62,0,0,1,366.54,66.14Z" transform="translate(-36 -38.11)"/><path class="cls-4" d="M144,72.74h-.09A24.87,24.87,0,0,0,126,115.08a24.59,24.59,0,0,0,17.54,7.27h.08A24.81,24.81,0,0,0,144,72.74Zm-.27,42.57h-.05a17.24,17.24,0,0,1-12.28-5.09,17.9,17.9,0,0,1-5.15-12.81,17.71,17.71,0,0,1,5.21-12.64,17.44,17.44,0,0,1,12.37-5h.13c9.64.07,17.15,7.95,17.11,17.94S153.55,115.31,143.71,115.31Z" transform="translate(-36 -38.11)"/><path class="cls-4" d="M252.64,79.72v-7H239.77V59.93h-7.29v12.8h-4v7h4v23.41c.39,8.32,4,14.16,10.62,17.36a17.16,17.16,0,0,0,9.24,1.69v-7a14.08,14.08,0,0,1-4-.38c-5-1.4-8.37-6.25-8.54-12.36V79.72Z" transform="translate(-36 -38.11)"/><path class="cls-4" d="M105.17,74.47c-6.66,3.2-10.24,9-10.62,17.36v30.5h7.29V92.57c.16-6.11,3.52-11,8.54-12.36a15.66,15.66,0,0,1,5.06-.34l.73,0V73l-.58-.09A17.25,17.25,0,0,0,105.17,74.47Z" transform="translate(-36 -38.11)"/><path class="cls-4" d="M325.89,74.38c-6.66,3.2-10.24,9-10.62,17.36v30.5h7.29V92.47c.16-6.11,3.52-11,8.54-12.36a15.66,15.66,0,0,1,5.06-.34l.73,0v-6.9l-.58-.09A17.25,17.25,0,0,0,325.89,74.38Z" transform="translate(-36 -38.11)"/><path class="cls-4" d="M199.88,115.1a17.61,17.61,0,0,1,0-35.21,17.16,17.16,0,0,1,13.73,6.92h8.59a24.77,24.77,0,1,0,0,21.58h-8.69A17.16,17.16,0,0,1,199.88,115.1Z" transform="translate(-36 -38.11)"/><path class="cls-4" d="M61.36,72.74A24.77,24.77,0,0,0,44,79.85H36v66h7.49v-31A24.85,24.85,0,1,0,61.36,72.74Zm0,42.69A17.83,17.83,0,1,1,79.19,97.6,17.83,17.83,0,0,1,61.36,115.44Z" transform="translate(-36 -38.11)"/><path class="cls-4" d="M307.2,97.5A24.81,24.81,0,1,1,282.39,72.7,24.81,24.81,0,0,1,307.2,97.5ZM282.39,79.73A17.77,17.77,0,1,0,300.16,97.5,17.77,17.77,0,0,0,282.39,79.73Z" transform="translate(-36 -38.11)"/></svg>