<?xml version="1.0" encoding="UTF-8" standalone="no"?>
<svg
   xmlns:dc="http://purl.org/dc/elements/1.1/"
   xmlns:cc="http://creativecommons.org/ns#"
   xmlns:rdf="http://www.w3.org/1999/02/22-rdf-syntax-ns#"
   xmlns:svg="http://www.w3.org/2000/svg"
   xmlns="http://www.w3.org/2000/svg"
   xmlns:sodipodi="http://sodipodi.sourceforge.net/DTD/sodipodi-0.dtd"
   xmlns:inkscape="http://www.inkscape.org/namespaces/inkscape"
   viewBox="0 0 33.220002 33.220002"
   version="1.1"
   id="svg4078"
   sodipodi:docname="begin-exam-step.svg"
   width="33.220001"
   height="33.220001"
   inkscape:version="0.92.2 (5c3e80d, 2017-08-06)">
  <metadata
     id="metadata4082">
    <rdf:RDF>
      <cc:Work
         rdf:about="">
        <dc:format>image/svg+xml</dc:format>
        <dc:type
           rdf:resource="http://purl.org/dc/dcmitype/StillImage" />
        <dc:title>timeline5</dc:title>
      </cc:Work>
    </rdf:RDF>
  </metadata>
  <sodipodi:namedview
     pagecolor="#ffffff"
     bordercolor="#666666"
     borderopacity="1"
     objecttolerance="10"
     gridtolerance="10"
     guidetolerance="10"
     inkscape:pageopacity="0"
     inkscape:pageshadow="2"
     inkscape:window-width="1920"
     inkscape:window-height="1017"
     id="namedview4080"
     showgrid="false"
     inkscape:zoom="9.5372314"
     inkscape:cx="12.42825"
     inkscape:cy="24.183244"
     inkscape:window-x="-8"
     inkscape:window-y="-8"
     inkscape:window-maximized="1"
     inkscape:current-layer="svg4078" />
  <defs
     id="defs4044">
    <style
       id="style4042">.cls-1{fill:#47a141;}.cls-2,.cls-3{fill:#fff;}.cls-3{stroke:#0da0c5;stroke-miterlimit:10;}.cls-4{fill:#0da0c5;}</style>
  </defs>
  <title
     id="title4046">timeline5</title>
  <g
     id="Layer_1"
     data-name="Layer 1"
     transform="translate(-135.23)">
    <circle
       class="cls-3"
       cx="151.84"
       cy="16.610001"
       r="16.110001"
       id="circle4065"
       style="fill:#ffffff;stroke:#0da0c5;stroke-miterlimit:10" />
    <path
       class="cls-4"
       d="m 170,17.6 a 2.08,2.08 0 0 0 -1.55,-3.48 H 164.4 A 13.46,13.46 0 0 0 165,10.6 V 9.9 a 2.79,2.79 0 0 0 -2.79,-2.78 h -0.69 a 0.71,0.71 0 0 0 -0.68,0.53 l -0.38,1.51 c -0.53,2.13 -2.21,4.47 -4,4.9 a 2.08,2.08 0 0 0 -1.94,-1.33 h -4.18 a 0.69,0.69 0 0 0 -0.69,0.7 V 26 a 0.69,0.69 0 0 0 0.69,0.69 h 4.18 a 2.06,2.06 0 0 0 1.88,-1.19 l 2.39,0.8 a 7.72,7.72 0 0 0 2.43,0.39 H 167 a 2.08,2.08 0 0 0 2.08,-2.09 2.19,2.19 0 0 0 -0.14,-0.77 2.07,2.07 0 0 0 1,-3.4 2.07,2.07 0 0 0 0,-2.79 z m -14.78,7 a 0.69,0.69 0 0 1 -0.69,0.7 H 151 V 14.12 h 3.48 a 0.7,0.7 0 0 1 0.69,0.7 z M 167,18.3 h 1.39 a 0.7,0.7 0 0 1 0,1.39 H 167 a 0.7,0.7 0 1 0 0,1.39 h 1.39 a 0.7,0.7 0 0 1 0,1.4 H 167 a 0.7,0.7 0 1 0 0,1.39 0.7,0.7 0 0 1 0,1.39 h -5.83 a 6.38,6.38 0 0 1 -2,-0.32 l -2.62,-0.88 v -8.61 a 5.61,5.61 0 0 0 3.12,-2 10.11,10.11 0 0 0 2,-3.92 l 0.25,-1 h 0.15 a 1.4,1.4 0 0 1 1.4,1.39 v 0.7 a 11.11,11.11 0 0 1 -0.67,3.52 h -1.42 a 0.7,0.7 0 0 0 0,1.4 h 7 a 0.7,0.7 0 0 1 0,1.39 H 167 a 0.7,0.7 0 1 0 0,1.39 z"
       transform="translate(-8.34)"
       id="path4067"
       inkscape:connector-curvature="0"
       style="fill:#0da0c5" />
    <circle
       class="cls-4"
       cx="144.77"
       cy="23.17"
       r="0.69999999"
       id="circle4069"
       style="fill:#0da0c5" />
    <path
       class="cls-4"
       d="m 162.86,2.9 a 0.7,0.7 0 0 0 -0.7,0.69 V 5 a 0.7,0.7 0 0 0 1.4,0 V 3.59 a 0.7,0.7 0 0 0 -0.7,-0.69 z"
       transform="translate(-8.34)"
       id="path4071"
       inkscape:connector-curvature="0"
       style="fill:#0da0c5" />
    <path
       class="cls-4"
       d="m 159.91,6 -1,-1 a 0.69,0.69 0 0 0 -1,0 0.71,0.71 0 0 0 0,1 l 1,1 a 0.71,0.71 0 0 0 1,0 0.69,0.69 0 0 0 0,-1 z"
       transform="translate(-8.34)"
       id="path4073"
       inkscape:connector-curvature="0"
       style="fill:#0da0c5" />
    <path
       class="cls-4"
       d="m 167.78,5 a 0.69,0.69 0 0 0 -1,0 l -1,1 a 0.69,0.69 0 0 0 0,1 0.71,0.71 0 0 0 1,0 l 1,-1 a 0.71,0.71 0 0 0 0,-1 z"
       transform="translate(-8.34)"
       id="path4075"
       inkscape:connector-curvature="0"
       style="fill:#0da0c5" />
  </g>
</svg>
