<?xml version="1.0" encoding="UTF-8" standalone="no"?>
<svg
   xmlns:dc="http://purl.org/dc/elements/1.1/"
   xmlns:cc="http://creativecommons.org/ns#"
   xmlns:rdf="http://www.w3.org/1999/02/22-rdf-syntax-ns#"
   xmlns:svg="http://www.w3.org/2000/svg"
   xmlns="http://www.w3.org/2000/svg"
   xmlns:sodipodi="http://sodipodi.sourceforge.net/DTD/sodipodi-0.dtd"
   xmlns:inkscape="http://www.inkscape.org/namespaces/inkscape"
   viewBox="0 0 33.220002 33.220002"
   version="1.1"
   id="svg3745"
   sodipodi:docname="exam-prep-step.svg"
   width="33.220001"
   height="33.220001"
   inkscape:version="0.92.2 (5c3e80d, 2017-08-06)">
  <metadata
     id="metadata3749">
    <rdf:RDF>
      <cc:Work
         rdf:about="">
        <dc:format>image/svg+xml</dc:format>
        <dc:type
           rdf:resource="http://purl.org/dc/dcmitype/StillImage" />
        <dc:title>timeline1</dc:title>
      </cc:Work>
    </rdf:RDF>
  </metadata>
  <sodipodi:namedview
     pagecolor="#ffffff"
     bordercolor="#666666"
     borderopacity="1"
     objecttolerance="10"
     gridtolerance="10"
     guidetolerance="10"
     inkscape:pageopacity="0"
     inkscape:pageshadow="2"
     inkscape:window-width="1920"
     inkscape:window-height="1017"
     id="namedview3747"
     showgrid="false"
     inkscape:zoom="10.446878"
     inkscape:cx="43.811012"
     inkscape:cy="16.615002"
     inkscape:window-x="-8"
     inkscape:window-y="-8"
     inkscape:window-maximized="1"
     inkscape:current-layer="svg3745" />
  <defs
     id="defs3727">
    <style
       id="style3725">.cls-1{fill:#d8d8d8;}.cls-2{fill:#fff;stroke:#069fc4;stroke-miterlimit:10;}.cls-3{fill:#0da0c5;}</style>
  </defs>
  <title
     id="title3729">timeline1</title>
  <g
     id="Layer_1"
     data-name="Layer 1">
    <circle
       class="cls-2"
       cx="16.610001"
       cy="16.610001"
       r="16.110001"
       id="circle3740"
       style="fill:#ffffff;stroke:#069fc4;stroke-miterlimit:10" />
    <path
       class="cls-3"
       d="M 13.17,24.57 27,10.73 A 2,2 0 0 0 27,8 L 25.13,6.17 a 2,2 0 0 0 -2.74,0 L 8.6,20 a 0.53,0.53 0 0 0 -0.13,0.19 l -2.9,6.51 a 0.64,0.64 0 0 0 0.59,0.9 h 15.55 a 0.65,0.65 0 1 0 0,-1.29 H 9.27 L 13,24.72 a 0.8,0.8 0 0 0 0.17,-0.15 z M 23.3,7.08 a 0.65,0.65 0 0 1 0.91,0 L 26,8.91 a 0.65,0.65 0 0 1 0,0.91 L 24.63,11.19 21.94,8.45 Z M 21,9.37 23.73,12.1 22,13.93 19.26,11.19 Z M 7.43,25.71 9.26,21.6 11.58,23.91 Z M 10,20.48 18.33,12.11 21,14.84 12.7,23.21 Z"
       transform="translate(0,-0.64)"
       id="path3742"
       inkscape:connector-curvature="0"
       style="fill:#0da0c5" />
  </g>
</svg>
