<?xml version="1.0" encoding="UTF-8" standalone="no"?>
<svg
   xmlns:dc="http://purl.org/dc/elements/1.1/"
   xmlns:cc="http://creativecommons.org/ns#"
   xmlns:rdf="http://www.w3.org/1999/02/22-rdf-syntax-ns#"
   xmlns:svg="http://www.w3.org/2000/svg"
   xmlns="http://www.w3.org/2000/svg"
   xmlns:sodipodi="http://sodipodi.sourceforge.net/DTD/sodipodi-0.dtd"
   xmlns:inkscape="http://www.inkscape.org/namespaces/inkscape"
   viewBox="0 0 33.220001 33.220002"
   version="1.1"
   id="svg3994"
   sodipodi:docname="exam-rules-step.svg"
   width="33.220001"
   height="33.220001"
   inkscape:version="0.92.2 (5c3e80d, 2017-08-06)">
  <metadata
     id="metadata3998">
    <rdf:RDF>
      <cc:Work
         rdf:about="">
        <dc:format>image/svg+xml</dc:format>
        <dc:type
           rdf:resource="http://purl.org/dc/dcmitype/StillImage" />
        <dc:title>timeline4</dc:title>
      </cc:Work>
    </rdf:RDF>
  </metadata>
  <sodipodi:namedview
     pagecolor="#ffffff"
     bordercolor="#666666"
     borderopacity="1"
     objecttolerance="10"
     gridtolerance="10"
     guidetolerance="10"
     inkscape:pageopacity="0"
     inkscape:pageshadow="2"
     inkscape:window-width="1920"
     inkscape:window-height="1017"
     id="namedview3996"
     showgrid="false"
     inkscape:zoom="7.073034"
     inkscape:cx="5.7850445"
     inkscape:cy="12.832622"
     inkscape:window-x="-8"
     inkscape:window-y="-8"
     inkscape:window-maximized="1"
     inkscape:current-layer="svg3994" />
  <defs
     id="defs3964">
    <style
       id="style3962">.cls-1{fill:#d8d8d8;}.cls-2{fill:#47a141;}.cls-3,.cls-4{fill:#fff;}.cls-4{stroke:#0da0c5;stroke-miterlimit:10;}.cls-5{fill:#0da0c5;}</style>
  </defs>
  <title
     id="title3966">timeline4</title>
  <g
     id="Layer_1"
     data-name="Layer 1"
     transform="translate(-99.229996)">
    <circle
       class="cls-4"
       cx="115.84"
       cy="16.610001"
       r="16.110001"
       id="circle3983"
       style="fill:#ffffff;stroke:#0da0c5;stroke-miterlimit:10" />
    <path
       class="cls-5"
       d="m 122.36,16.67 a 0.68,0.68 0 0 0 -1,0 l -2.22,2.22 -0.87,-0.87 a 0.67175144,0.67175144 0 1 0 -0.95,0.95 l 1.35,1.35 a 0.67,0.67 0 0 0 0.47,0.2 0.69,0.69 0 0 0 0.48,-0.2 l 2.69,-2.69 a 0.67,0.67 0 0 0 0.05,-0.96 z"
       transform="translate(-8.34,-0.85)"
       id="path3985"
       inkscape:connector-curvature="0"
       style="fill:#0da0c5" />
    <path
       class="cls-5"
       d="m 122.36,22.06 a 0.68,0.68 0 0 0 -1,0 l -2.22,2.22 -0.87,-0.87 a 0.67175144,0.67175144 0 1 0 -0.95,0.95 l 1.35,1.35 a 0.67,0.67 0 0 0 0.47,0.2 0.69,0.69 0 0 0 0.48,-0.2 L 122.36,23 a 0.67,0.67 0 0 0 0,-0.94 z"
       transform="translate(-8.34,-0.85)"
       id="path3987"
       inkscape:connector-curvature="0"
       style="fill:#0da0c5" />
    <path
       class="cls-5"
       d="m 121.69,14 -0.87,-0.87 0.87,-0.87 a 0.69,0.69 0 0 0 0,-1 0.68,0.68 0 0 0 -1,0 l -0.87,0.87 -0.88,-0.87 a 0.68,0.68 0 0 0 -0.95,0 0.69,0.69 0 0 0 0,1 l 0.87,0.87 L 118,14 a 0.67175144,0.67175144 0 0 0 0.95,0.95 l 0.88,-0.87 0.87,0.87 a 0.68965571,0.68965571 0 1 0 1,-0.95 z"
       transform="translate(-8.34,-0.85)"
       id="path3989"
       inkscape:connector-curvature="0"
       style="fill:#0da0c5" />
    <path
       class="cls-5"
       d="m 136.92,12.37 a 2,2 0 0 0 -2.85,0 l -3.29,3.29 V 9 a 2,2 0 0 0 -2,-2 h -2.14 a 2,2 0 0 0 -1.9,-1.35 H 120.6 A 2,2 0 0 0 118.68,7 h -2.14 a 2,2 0 0 0 -2,2 v 17.63 a 2,2 0 0 0 2,2 h 12.22 a 2,2 0 0 0 2,-2 v -5.25 l 3.76,-3.77 0.48,0.48 a 0.68,0.68 0 0 1 0,0.95 l -2.86,2.86 a 0.68,0.68 0 0 0 0,1 0.66,0.66 0 0 0 1,0 L 136,20 a 2,2 0 0 0 0,-2.85 l -0.47,-0.48 1.42,-1.43 a 2,2 0 0 0 -0.03,-2.87 z M 120.58,7 h 4.14 a 0.67,0.67 0 0 1 0.67,0.67 0.68,0.68 0 0 1 -0.67,0.68 h -4.14 A 0.68,0.68 0 0 1 119.91,7.67 0.67,0.67 0 0 1 120.58,7 Z m 8.85,19.63 a 0.67,0.67 0 0 1 -0.67,0.67 h -12.22 a 0.67,0.67 0 0 1 -0.67,-0.67 V 9 a 0.67,0.67 0 0 1 0.67,-0.67 h 2.14 a 2,2 0 0 0 1.9,1.34 h 4.14 a 2,2 0 0 0 1.9,-1.34 h 2.14 A 0.67,0.67 0 0 1 129.43,9 v 8 l -4.89,4.89 a 0.54,0.54 0 0 0 -0.16,0.26 l -1,2.86 a 0.68,0.68 0 0 0 0.17,0.69 0.67,0.67 0 0 0 0.69,0.16 l 2.85,-0.95 a 0.74,0.74 0 0 0 0.27,-0.16 l 0.95,-1 1.08,-1.09 z m -3.43,-4.25 1,0.95 -0.36,0.36 -1.43,0.48 0.47,-1.43 z m 1.9,0 -1,-1 5.72,-5.71 1,0.95 z m 8.1,-8.1 -1.43,1.43 -0.95,-1 1.38,-1.39 a 0.68965571,0.68965571 0 0 1 0.95,1 z"
       transform="translate(-8.34,-0.85)"
       id="path3991"
       inkscape:connector-curvature="0"
       style="fill:#0da0c5" />
  </g>
</svg>
