<?xml version="1.0" encoding="UTF-8" standalone="no"?>
<svg
   xmlns:dc="http://purl.org/dc/elements/1.1/"
   xmlns:cc="http://creativecommons.org/ns#"
   xmlns:rdf="http://www.w3.org/1999/02/22-rdf-syntax-ns#"
   xmlns:svg="http://www.w3.org/2000/svg"
   xmlns="http://www.w3.org/2000/svg"
   xmlns:sodipodi="http://sodipodi.sourceforge.net/DTD/sodipodi-0.dtd"
   xmlns:inkscape="http://www.inkscape.org/namespaces/inkscape"
   viewBox="0 0 33.220001 33.220002"
   version="1.1"
   id="svg3834"
   sodipodi:docname="system-checks-step.svg"
   width="33.220001"
   height="33.220001"
   inkscape:version="0.92.2 (5c3e80d, 2017-08-06)">
  <metadata
     id="metadata3838">
    <rdf:RDF>
      <cc:Work
         rdf:about="">
        <dc:format>image/svg+xml</dc:format>
        <dc:type
           rdf:resource="http://purl.org/dc/dcmitype/StillImage" />
        <dc:title>timeline2</dc:title>
      </cc:Work>
    </rdf:RDF>
  </metadata>
  <sodipodi:namedview
     pagecolor="#ffffff"
     bordercolor="#666666"
     borderopacity="1"
     objecttolerance="10"
     gridtolerance="10"
     guidetolerance="10"
     inkscape:pageopacity="0"
     inkscape:pageshadow="2"
     inkscape:window-width="1920"
     inkscape:window-height="1017"
     id="namedview3836"
     showgrid="false"
     inkscape:zoom="7.073034"
     inkscape:cx="44.009689"
     inkscape:cy="8.719905"
     inkscape:window-x="-8"
     inkscape:window-y="-8"
     inkscape:window-maximized="1"
     inkscape:current-layer="svg3834" />
  <defs
     id="defs3812">
    <style
       id="style3810">.cls-1{fill:#d8d8d8;}.cls-2{fill:#47a141;}.cls-3,.cls-4{fill:#fff;}.cls-4{stroke:#0da0c5;stroke-miterlimit:10;}.cls-5{fill:#0da0c5;}</style>
  </defs>
  <title
     id="title3814">timeline2</title>
  <g
     id="Layer_1"
     data-name="Layer 1"
     transform="translate(-27.66)">
    <circle
       class="cls-4"
       cx="44.27"
       cy="16.610001"
       r="16.110001"
       id="circle3827"
       style="fill:#ffffff;stroke:#0da0c5;stroke-miterlimit:10" />
    <path
       class="cls-5"
       d="M 61.58,6.65 H 43.45 a 1.93,1.93 0 0 0 -1.93,1.94 v 13 a 1.93,1.93 0 0 0 1.93,1.94 h 5.8 v 1.28 h -0.64 a 1.94,1.94 0 0 0 -1.94,1.94 V 28 a 0.65,0.65 0 0 0 0.65,0.64 H 57.71 A 0.65,0.65 0 0 0 58.36,28 V 26.72 A 1.94,1.94 0 0 0 56.43,24.78 H 55.78 V 23.5 h 5.8 a 1.94,1.94 0 0 0 1.94,-1.94 v -13 A 1.94,1.94 0 0 0 61.58,6.65 Z m -5.15,19.42 a 0.65,0.65 0 0 1 0.64,0.65 v 0.64 H 48 v -0.64 a 0.65,0.65 0 0 1 0.65,-0.65 z M 50.54,24.78 V 23.5 h 4 v 1.28 z m 11.69,-3.22 a 0.65,0.65 0 0 1 -0.65,0.65 H 43.45 A 0.65,0.65 0 0 1 42.8,21.56 v -0.64 h 19.43 z m 0,-1.93 H 42.8 v -11 a 0.65,0.65 0 0 1 0.65,-0.65 h 18.13 a 0.65,0.65 0 0 1 0.65,0.65 z"
       transform="translate(-8.34,-0.21)"
       id="path3829"
       inkscape:connector-curvature="0"
       style="fill:#0da0c5" />
    <path
       class="cls-5"
       d="m 58.7,10 a 0.64,0.64 0 0 0 -0.63,0 l -3,1.49 a 1.93,1.93 0 0 0 -0.56,-1 2,2 0 0 0 -1.38,-0.56 H 48 a 1.93,1.93 0 0 0 -2,1.88 v 3.95 a 1.92,1.92 0 0 0 2,1.93 h 5.2 a 2,2 0 0 0 1.38,-0.55 1.93,1.93 0 0 0 0.56,-1 l 3,1.49 a 0.64,0.64 0 0 0 0.93,-0.58 V 10.52 A 0.65,0.65 0 0 0 58.7,10 Z m -4.85,5.79 a 0.69,0.69 0 0 1 -0.69,0.65 H 48 A 0.65,0.65 0 0 1 47.36,15.79 V 11.81 A 0.65,0.65 0 0 1 48,11.16 h 5.2 a 0.68,0.68 0 0 1 0.69,0.65 z m 3.86,0.25 -2.57,-1.29 v -1.9 l 2.57,-1.29 z"
       transform="translate(-8.34,-0.21)"
       id="path3831"
       inkscape:connector-curvature="0"
       style="fill:#0da0c5" />
  </g>
</svg>
