<?xml version="1.0" encoding="UTF-8" standalone="no"?>
<svg
   xmlns:dc="http://purl.org/dc/elements/1.1/"
   xmlns:cc="http://creativecommons.org/ns#"
   xmlns:rdf="http://www.w3.org/1999/02/22-rdf-syntax-ns#"
   xmlns:svg="http://www.w3.org/2000/svg"
   xmlns="http://www.w3.org/2000/svg"
   xmlns:sodipodi="http://sodipodi.sourceforge.net/DTD/sodipodi-0.dtd"
   xmlns:inkscape="http://www.inkscape.org/namespaces/inkscape"
   viewBox="0 0 33.220001 33.220002"
   version="1.1"
   id="svg3918"
   sodipodi:docname="take-photo-step.svg"
   width="33.220001"
   height="33.220001"
   inkscape:version="0.92.2 (5c3e80d, 2017-08-06)">
  <metadata
     id="metadata3922">
    <rdf:RDF>
      <cc:Work
         rdf:about="">
        <dc:format>image/svg+xml</dc:format>
        <dc:type
           rdf:resource="http://purl.org/dc/dcmitype/StillImage" />
        <dc:title>timeline3</dc:title>
      </cc:Work>
    </rdf:RDF>
  </metadata>
  <sodipodi:namedview
     pagecolor="#ffffff"
     bordercolor="#666666"
     borderopacity="1"
     objecttolerance="10"
     gridtolerance="10"
     guidetolerance="10"
     inkscape:pageopacity="0"
     inkscape:pageshadow="2"
     inkscape:window-width="1920"
     inkscape:window-height="1017"
     id="namedview3920"
     showgrid="false"
     inkscape:zoom="5.0013903"
     inkscape:cx="21.727953"
     inkscape:cy="21.616496"
     inkscape:window-x="-8"
     inkscape:window-y="-8"
     inkscape:window-maximized="1"
     inkscape:current-layer="svg3918" />
  <defs
     id="defs3884">
    <style
       id="style3882">.cls-1{fill:#d8d8d8;}.cls-2{fill:#47a141;}.cls-3,.cls-4{fill:#fff;}.cls-4{stroke:#069fc4;stroke-miterlimit:10;}.cls-5{fill:#0da0c5;}</style>
  </defs>
  <title
     id="title3886">timeline3</title>
  <g
     id="Layer_1"
     data-name="Layer 1"
     transform="translate(-63.229996)">
    <circle
       class="cls-4"
       cx="79.839996"
       cy="16.610001"
       r="16.110001"
       id="circle3901"
       style="fill:#ffffff;stroke:#069fc4;stroke-miterlimit:10" />
    <path
       class="cls-5"
       d="M 97.58,8.89 H 79.45 a 1.93,1.93 0 0 0 -1.93,1.94 v 12.89 a 1.93,1.93 0 0 0 1.93,1.93 h 18.13 a 1.94,1.94 0 0 0 1.94,-1.93 V 10.83 A 1.94,1.94 0 0 0 97.58,8.89 Z m 0.65,14.83 a 0.65,0.65 0 0 1 -0.65,0.64 H 79.45 A 0.65,0.65 0 0 1 78.8,23.72 V 10.83 a 0.65,0.65 0 0 1 0.65,-0.65 h 18.13 a 0.65,0.65 0 0 1 0.65,0.65 z"
       transform="translate(-8.34,-0.42)"
       id="path3903"
       inkscape:connector-curvature="0"
       style="fill:#0da0c5" />
    <path
       class="cls-5"
       d="m 84,16.63 a 3.87,3.87 0 0 0 -3.87,3.87 v 0.64 A 1.93,1.93 0 0 0 82,23.07 h 3.86 A 1.93,1.93 0 0 0 87.8,21.14 V 20.5 A 3.87,3.87 0 0 0 84,16.63 Z m 2.58,4.51 a 0.64,0.64 0 0 1 -0.65,0.64 H 82 A 0.64,0.64 0 0 1 81.35,21.14 V 20.5 a 2.58,2.58 0 0 1 5.16,0 z"
       transform="translate(-8.34,-0.42)"
       id="path3905"
       inkscape:connector-curvature="0"
       style="fill:#0da0c5" />
    <path
       class="cls-5"
       d="M 84,11.47 A 2.58,2.58 0 1 0 86.58,14.05 2.59,2.59 0 0 0 84,11.47 Z m 0,3.87 A 1.29,1.29 0 1 1 85.29,14.05 1.29,1.29 0 0 1 84,15.34 Z"
       transform="translate(-8.34,-0.42)"
       id="path3907"
       inkscape:connector-curvature="0"
       style="fill:#0da0c5" />
    <path
       class="cls-5"
       d="m 96.29,20.5 h -6.44 a 0.64,0.64 0 1 0 0,1.28 h 6.44 a 0.64,0.64 0 1 0 0,-1.28 z"
       transform="translate(-8.34,-0.42)"
       id="path3909"
       inkscape:connector-curvature="0"
       style="fill:#0da0c5" />
    <path
       class="cls-5"
       d="m 96.29,17.92 h -6.44 a 0.65,0.65 0 1 0 0,1.29 h 6.44 a 0.65,0.65 0 1 0 0,-1.29 z"
       transform="translate(-8.34,-0.42)"
       id="path3911"
       inkscape:connector-curvature="0"
       style="fill:#0da0c5" />
    <path
       class="cls-5"
       d="m 96.29,15.34 h -6.44 a 0.65,0.65 0 1 0 0,1.29 h 6.44 a 0.65,0.65 0 1 0 0,-1.29 z"
       transform="translate(-8.34,-0.42)"
       id="path3913"
       inkscape:connector-curvature="0"
       style="fill:#0da0c5" />
    <path
       class="cls-5"
       d="m 95,12.76 h -3.86 a 0.65,0.65 0 1 0 0,1.29 H 95 a 0.65,0.65 0 1 0 0,-1.29 z"
       transform="translate(-8.34,-0.42)"
       id="path3915"
       inkscape:connector-curvature="0"
       style="fill:#0da0c5" />
  </g>
</svg>
